<svg width="460" height="105" viewBox="0 0 460 105" fill="none" xmlns="http://www.w3.org/2000/svg">
<path fill-rule="evenodd" clip-rule="evenodd" d="M0.00114506 52.6111C0.00114506 48.733 0.000858793 44.855 0.000572526 40.977C-0.000238558 29.9895 -0.00104963 19.0021 0.00465049 8.01437C0.00473378 7.85435 0.00408241 7.6919 0.00342412 7.52773C-0.00700009 4.92803 -0.0191588 1.89574 2.85667 1.20543C5.94775 0.463116 9.52119 0.708219 12.6193 1.51916C13.7663 1.81958 14.7576 4.94639 14.8025 6.80777C14.9211 11.7328 14.9192 16.6606 14.9173 21.5886C14.9156 25.952 14.914 30.3155 14.996 34.6773C15.0185 35.8574 15.5316 37.029 16.0448 38.2008L16.0448 38.2008L16.0448 38.2008L16.0448 38.2009L16.0448 38.2009L16.0449 38.2009L16.0449 38.201L16.0449 38.201C16.282 38.7425 16.5192 39.2841 16.708 39.8265C17.0896 39.3543 17.5207 38.9001 17.9519 38.4461L17.9519 38.4461C18.885 37.4634 19.8179 36.4809 20.2471 35.3146C22.7817 28.4228 25.1751 21.479 27.5685 14.5352L27.5685 14.5352L27.5685 14.5351L27.5685 14.5351L27.5685 14.535L27.5686 14.535L27.5686 14.5349L27.5686 14.5349C28.4589 11.952 29.3491 9.36907 30.2467 6.78886C32.2027 1.16551 36.9939 -1.21899 42.7183 0.601074C45.5303 1.49535 46.6507 3.26289 45.6453 6.20831C44.6254 9.19932 43.6519 12.2087 42.6784 15.2179C40.6201 21.5807 38.562 27.943 36.065 34.1304C32.9038 41.9673 32.5497 49.1734 35.6927 57.1994C39.1032 65.9065 42.0483 74.794 44.9937 83.682L44.9939 83.6826C46.3492 87.7723 47.7045 91.8622 49.1052 95.9347C51.0563 101.607 50.8817 103.737 47.6119 104.436C42.7393 105.478 37.2169 105.489 35.399 100.183C33.9469 95.9454 32.4888 91.7097 31.0307 87.4741C29.7749 83.8259 28.519 80.1777 27.2671 76.5282C26.641 74.7029 26.0258 72.8734 25.4107 71.0439C23.8478 66.3958 22.2849 61.7476 20.5423 57.1672C20.1542 56.1469 19.2194 55.3329 18.2846 54.5189C17.8547 54.1445 17.4248 53.7702 17.048 53.3758C16.8229 53.8646 16.5378 54.3525 16.2527 54.8404C15.6383 55.8918 15.0241 56.9429 15.0107 58.0019C14.9981 58.9906 14.9851 59.9793 14.9722 60.968C14.8152 72.9865 14.6581 85.012 15.0163 97.0201C15.2652 105.364 10.3576 105.859 3.16444 104.222C0.15258 103.538 0.00675375 100.536 0.00535158 97.9046C-0.0009582 86.5809 -0.000169471 75.2575 0.00061925 63.9343C0.000882157 60.1599 0.00114506 56.3855 0.00114506 52.6111ZM88.3626 60.1659C88.3626 57.7418 88.3654 55.3177 88.3682 52.8936C88.3748 47.1838 88.3814 41.474 88.3514 35.7642C88.3227 30.1885 86.8027 28.8376 80.8217 28.8502C75.117 28.8621 73.5234 30.3131 73.5171 35.6508C73.4996 51.9193 73.501 68.1864 73.5164 84.4541C73.5213 89.7862 75.2334 91.4228 80.704 91.4536C86.5706 91.4858 88.3191 89.9613 88.3493 84.5676C88.3821 78.8832 88.3752 73.1991 88.3683 67.5154V67.5152V67.5151V67.5149V67.5148V67.5146V67.5144V67.5143C88.3654 65.0648 88.3624 62.6153 88.3626 60.1659ZM58.5675 53.2715V53.2715C58.5652 47.2501 58.5628 41.2286 58.5777 35.2068C58.5819 33.3503 58.6212 31.4875 58.7705 29.6374C59.4267 21.4846 63.2287 16.649 71.3543 15.8717C78.3539 15.2022 85.559 15.5566 92.5635 16.3801C98.6223 17.0923 102.252 21.7598 102.91 27.8908C103.219 30.7697 103.402 33.6774 103.411 36.5724C103.458 52.1371 103.455 67.7025 103.414 83.2665C103.406 86.0466 103.233 88.8345 102.968 91.6034C102.3 98.5889 98.8908 103.081 91.9108 103.994C85.1601 104.877 78.1478 105.101 71.3984 104.331C62.876 103.361 59.0439 98.6183 58.7838 89.9101C58.575 82.9496 58.6234 75.9813 58.6717 69.013C58.6927 65.9909 58.7137 62.9689 58.7137 59.9474H58.5693C58.5693 57.7222 58.5684 55.497 58.5675 53.2717V53.2717V53.2716V53.2716V53.2715ZM118.288 49.0049C118.289 52.6153 118.29 56.2258 118.29 59.8363C118.29 62.9777 118.284 66.1191 118.278 69.2605C118.259 78.903 118.241 88.5452 118.398 98.185C118.43 100.129 119.53 103.374 120.777 103.719C123.839 104.567 127.416 104.67 130.523 103.951C133.262 103.316 133.242 100.488 133.225 98.0399C133.224 97.8329 133.222 97.6287 133.223 97.4287C133.225 95.5964 133.228 93.7641 133.231 91.9318V91.9317V91.9316V91.9315C133.246 83.0724 133.26 74.213 133.205 65.3546C133.186 62.2201 134.189 60.4623 137.678 60.8237C138.784 60.9382 139.906 60.9085 141.027 60.8787H141.027H141.027H141.027H141.028H141.028H141.028C141.545 60.865 142.062 60.8513 142.577 60.8517C147.934 60.8573 148.196 61.1164 148.2 66.6207C148.203 70.1035 148.2 73.5863 148.196 77.069C148.19 84.1619 148.183 91.2547 148.229 98.3468C148.261 103.18 149.981 104.772 154.81 104.829C155.51 104.837 156.211 104.843 156.911 104.827C161.255 104.729 163.12 102.971 163.125 98.6626C163.155 72.9808 163.155 47.2976 163.126 21.615C163.12 17.0589 161.272 15.4679 156.264 15.4069C150.133 15.3327 148.35 16.5988 148.242 21.4575C148.164 24.9923 148.178 28.529 148.192 32.0659C148.199 33.8753 148.206 35.6848 148.201 37.4942C148.198 38.4477 148.202 39.3106 148.207 40.0914C148.227 43.9126 148.237 45.768 147.315 46.6584C146.445 47.4988 144.744 47.4795 141.439 47.4421H141.439H141.438H141.438H141.438H141.438C140.438 47.4308 139.293 47.4178 137.979 47.4264C133.78 47.4544 133.257 46.8711 133.238 42.5019C133.226 39.7235 133.231 36.9448 133.237 34.1661C133.245 30.0883 133.253 26.0104 133.205 21.933C133.144 16.6626 131.471 15.3502 125.293 15.4069C119.993 15.456 118.305 17.0561 118.297 22.1837C118.282 31.1243 118.285 40.0647 118.288 49.0049ZM254.968 57.6246C253.669 58.3839 252.404 59.0875 251.178 59.7699L251.178 59.77C248.281 61.3812 245.597 62.8746 243.168 64.7046C241.639 65.8573 240.48 68.3419 240.334 70.3083C240.02 74.5546 240.087 78.83 240.153 83.1019V83.1021V83.1023V83.1025V83.1026V83.1028C240.17 84.1625 240.186 85.2219 240.197 86.2806C240.222 88.7484 241.457 90.6721 243.939 91.0419C246.304 91.3934 248.802 91.4039 251.166 91.0552C253.65 90.6896 254.839 88.7519 254.905 86.2869C254.969 83.8764 254.967 81.4638 254.966 79.0513C254.966 78.4521 254.966 77.853 254.966 77.2538C254.972 72.8557 254.97 68.457 254.969 63.8289V63.805V63.7557V63.7062C254.969 61.7272 254.968 59.7059 254.968 57.6246ZM269.706 60.1849C269.706 63.2384 269.733 66.293 269.761 69.3477C269.824 76.3897 269.887 83.432 269.615 90.4613C269.286 98.9377 265.618 103.286 257.28 104.29C250.654 105.088 243.755 104.961 237.128 104.096C229.677 103.124 225.958 98.827 225.551 91.4354C225.1 83.2259 225.155 74.9618 225.509 66.7431C225.79 60.2633 229.989 56.0027 235.341 52.8472C237.601 51.5142 239.883 50.2178 242.166 48.9214C245.034 47.292 247.903 45.6625 250.727 43.9605C254.788 41.5144 256.58 35.4632 254.131 31.4687C253.308 30.1269 251.022 29.0884 249.332 28.9736C246.06 28.7502 242.77 28.7845 239.479 28.8188C237.87 28.8356 236.26 28.8524 234.652 28.8391C229.956 28.7992 228.225 26.9931 228.197 22.2241C228.167 17.2822 229.744 15.3823 234.403 15.4481C236.084 15.472 237.766 15.4835 239.45 15.495C245.916 15.5393 252.392 15.5837 258.78 16.3277C265.487 17.1092 269.344 21.8131 269.538 28.517C269.751 35.9266 269.704 43.3441 269.658 50.7616C269.638 53.9025 269.618 57.0433 269.618 60.1835C269.647 60.1835 269.676 60.1842 269.706 60.1849ZM299.897 86.9452C299.89 85.2523 299.882 83.5594 299.882 81.8667H299.917C299.917 80.3562 299.912 78.8456 299.907 77.335C299.891 72.9185 299.875 68.5021 299.994 64.0891C300.013 63.3616 300.502 62.6466 300.99 61.9317C301.215 61.6012 301.441 61.2708 301.62 60.9392C301.94 61.1362 302.267 61.3249 302.594 61.5136C303.389 61.973 304.185 62.4324 304.88 63.0106C305.258 63.3246 305.431 63.9046 305.597 64.4584C305.641 64.6063 305.685 64.7523 305.731 64.8909C306.753 67.915 307.769 70.941 308.785 73.9671L308.798 74.0048L308.799 74.0066L308.799 74.0084L308.8 74.0102L308.801 74.012C310.213 78.2202 311.626 82.4285 313.055 86.6315C314.621 91.2387 316.217 95.8368 317.862 100.417C319.747 105.668 325.947 105.488 330.23 104.34C333.236 103.533 333.362 101.595 331.462 95.9804C330.374 92.7663 329.28 89.5543 328.185 86.3424L328.184 86.3392L328.183 86.336L328.182 86.3328L328.179 86.3264L328.179 86.3251L328.179 86.3241C324.901 76.7084 321.624 67.0926 318.535 57.4167C317.785 55.0637 317.796 52.0826 318.523 49.7156C320.954 41.791 323.663 33.9507 326.371 26.1117L326.382 26.0791L326.393 26.0495C326.894 24.5976 327.396 23.1457 327.896 21.6934C328.71 19.3292 328.698 17.3733 326.228 16.0427C321.394 13.439 314.844 15.8607 312.936 20.998C312.292 22.73 311.687 24.4752 311.082 26.2204L311.081 26.2228L311.077 26.2349L311.073 26.2456L311.069 26.2551L311.066 26.2645C310.765 27.1324 310.464 28.0003 310.158 28.8665C309.676 30.2321 309.203 31.6012 308.729 32.9702L308.728 32.9722L308.728 32.9744L308.727 32.9758L308.727 32.9774C307.42 36.7547 306.114 40.532 304.627 44.2372C304.288 45.0821 303.43 45.7211 302.573 46.36C302.178 46.6542 301.783 46.9483 301.439 47.2625C301.286 46.8746 301.124 46.4895 300.962 46.1044C300.574 45.1863 300.187 44.2683 299.938 43.3142C299.781 42.7122 299.819 42.0597 299.858 41.4068C299.875 41.1149 299.892 40.823 299.892 40.5355C299.892 38.6475 299.897 36.7595 299.903 34.8714C299.917 30.4843 299.93 26.0971 299.863 21.7109C299.784 16.6709 298.08 15.3669 292.083 15.4069C286.795 15.4412 284.971 16.9867 284.967 21.7095C284.94 47.2758 284.941 72.842 284.965 98.4083C284.969 103.09 286.787 104.775 291.628 104.83C297.975 104.902 299.764 103.621 299.858 98.6009C299.931 94.7171 299.914 90.8312 299.897 86.9452ZM406.115 75.999C406.115 77.0885 406.105 78.1786 406.094 79.2688C406.066 82.123 406.038 84.9773 406.202 87.8207C406.268 88.9803 407.32 91.0161 408.003 91.0518C411.43 91.229 414.939 91.166 418.297 90.5378C419.344 90.341 420.689 88.1372 420.735 86.8122C420.979 79.7484 421 72.667 420.736 65.6046C420.683 64.2026 419.242 61.8944 418.109 61.6717C414.765 61.0121 411.243 61.0114 407.815 61.1969C407.189 61.2313 406.256 63.3363 406.19 64.524C406.039 67.2941 406.066 70.0737 406.094 72.8533C406.104 73.9021 406.115 74.9508 406.115 75.999ZM391.302 59.9287C391.302 56.6793 391.3 53.4298 391.299 50.1804C391.295 40.7742 391.29 31.3681 391.308 21.9624C391.317 16.7116 392.849 15.3957 398.744 15.4069C404.4 15.4167 406.082 16.935 406.104 22.1578C406.123 26.5327 406.119 30.9083 406.115 35.2836C406.113 37.4104 406.111 39.5371 406.112 41.6637C406.114 47.2422 406.318 47.3389 412.083 47.474L412.331 47.4798C416.536 47.5779 420.775 47.6767 424.919 48.2976C431.113 49.2269 435.018 53.4104 435.315 59.3153C435.879 70.5171 436.009 81.8017 435.285 92.9853C434.81 100.349 429.217 104.437 421.119 104.716C413.547 104.976 405.959 104.89 398.378 104.804H398.378L397.677 104.796L396.637 104.785C392.993 104.745 391.33 102.835 391.319 98.9399C391.292 89.7645 391.296 80.5891 391.299 71.4137V71.3867C391.301 67.5674 391.303 63.7481 391.302 59.9287ZM186.955 54.9602C186.955 58.4607 186.954 61.9613 186.955 65.4619C186.955 68.3486 186.957 71.2354 186.96 74.1221C186.966 82.1593 186.972 90.1965 186.939 98.2342C186.927 101.168 187.654 104.061 190.732 104.498C197.935 105.521 202.209 105.487 202.124 96.3609C201.987 81.6789 202.015 66.9955 202.043 52.3122C202.054 46.5416 202.065 40.771 202.066 35.0006C202.067 28.8618 202.072 28.8618 208.217 28.8465L208.246 28.8464C209.235 28.8439 210.113 28.8572 210.891 28.8691H210.891C213.617 28.9105 215.127 28.9334 215.965 28.1943C217.006 27.2764 217.01 25.1831 217.02 20.49V20.4899L217.021 19.8609C217.029 16.5906 215.817 15.3125 212.468 15.356C206.165 15.4392 199.862 15.4266 193.558 15.414C189.474 15.4058 185.391 15.3976 181.307 15.4155C180.152 15.4207 179.143 15.4083 178.26 15.3975C175.248 15.3607 173.713 15.342 172.932 16.0996C172.122 16.8859 172.122 18.5084 172.122 21.8147V21.816C172.123 22.706 172.123 23.7181 172.107 24.8687C172.066 27.9283 173.416 29.0586 176.355 28.8723C177.812 28.7798 179.277 28.8051 180.742 28.8303C181.263 28.8393 181.784 28.8483 182.305 28.852C186.614 28.8814 186.942 29.1825 186.948 33.3864C186.958 40.5778 186.957 47.769 186.955 54.9602ZM352.217 54.3315V53.6963C352.217 47.2599 352.217 40.8235 352.214 34.3868C352.213 28.8545 352.209 28.8545 346.471 28.8489C345.883 28.8483 345.286 28.8787 344.689 28.9091C343.274 28.9813 341.858 29.0535 340.553 28.7117C339.343 28.3951 337.698 26.9644 337.542 25.8531C336.145 15.9068 336.66 15.4054 346.615 15.4054C349.543 15.4054 352.472 15.4125 355.4 15.4196C362.859 15.4378 370.318 15.4559 377.775 15.3564C381.166 15.3102 382.288 16.6764 382.282 19.9062L382.281 20.435C382.274 25.1737 382.27 27.2797 381.224 28.1993C380.387 28.9349 378.883 28.9115 376.176 28.8693C375.38 28.8569 374.48 28.8429 373.463 28.8461L373.424 28.8462C367.335 28.865 367.329 28.865 367.328 35.0465C367.327 40.8493 367.316 46.6521 367.305 52.455C367.277 67.106 367.249 81.7569 367.386 96.4061C367.471 105.473 363.165 105.547 355.951 104.482C352.874 104.027 352.187 101.114 352.2 98.1884C352.234 90.2161 352.228 82.2439 352.222 74.2714C352.22 71.4359 352.218 68.6004 352.217 65.7648C352.217 61.9536 352.217 58.1426 352.217 54.3315ZM459.998 71.6794C459.996 67.9676 459.995 64.2558 459.995 60.5441C459.995 56.8696 459.997 53.1951 459.998 49.5206C460 40.5344 460.003 31.5482 459.99 22.5616C459.981 17.0181 458.309 15.4256 452.604 15.4074C446.572 15.3878 444.849 16.8878 444.841 22.5651C444.804 47.6545 444.799 72.7439 444.847 97.8332C444.857 103.428 446.711 104.89 453.137 104.831C458.214 104.784 459.979 103.018 459.988 97.8297C460.003 89.1132 460.001 80.3964 459.998 71.6794Z" fill="white"/>
</svg>
