<svg width="66" height="64" viewBox="0 0 66 64" fill="none" xmlns="http://www.w3.org/2000/svg">
<path fill-rule="evenodd" clip-rule="evenodd" d="M55.4894 27.7283L62.1474 35.3663L62.1479 35.3662C64.3427 35.6385 65.9929 37.506 66 39.7243V59.5861C65.9969 62.0227 64.0289 63.9973 61.6 64H54.9998C52.5713 63.9974 50.6029 62.0227 50.6002 59.5861V54.8468L36.4436 49.7749C34.3343 51.0865 31.6659 51.0865 29.5564 49.7749L15.3998 54.8468V59.5861C15.3972 62.0227 13.4287 63.9973 11.0002 64H4.39998C1.97106 63.9974 0.00311523 62.0227 0 59.5861V39.7243C0.00706349 37.506 1.65719 35.6385 3.85211 35.3662L10.5101 27.7287L8.97439 26.0773C8.08567 25.1188 7.84046 23.7265 8.34824 22.5206L10.5168 17.4514C11.0416 16.2381 12.2334 15.4515 13.552 15.4483H20.2198L21.8699 12.138H17.5999C16.3855 12.1367 15.4011 11.1496 15.3998 9.93127V4.41386H12.0999V5.51743C12.0999 6.12681 11.6077 6.62056 11.0002 6.62056H2.20023C1.59277 6.62056 1.10013 6.12681 1.10013 5.51743V1.10357C1.10013 0.494198 1.59277 0 2.20023 0H11.0002C11.6077 0 12.0999 0.494198 12.0999 1.10357V2.2067H15.3998C16.6142 2.20796 17.5986 3.19551 17.5999 4.4138V9.93121H22.9697L23.0996 9.67005C24.0262 7.79586 25.934 6.61328 28.019 6.62042H37.9806C40.0655 6.61334 41.9734 7.79598 42.8999 9.67005L43.0299 9.93121H48.3996V4.4138C48.4009 3.19554 49.3853 2.20804 50.5998 2.2067H53.8997V1.10357C53.8997 0.494198 54.3919 0 54.9993 0H63.7993C64.4068 0 64.8994 0.494198 64.8994 1.10357V5.51743C64.8994 6.12681 64.4068 6.62056 63.7993 6.62056H54.9993C54.3919 6.62056 53.8997 6.12681 53.8997 5.51743V4.41386H50.5998V9.93127C50.5985 11.1496 49.6141 12.1367 48.3996 12.138H44.1296L45.7797 15.4483H52.448C53.7634 15.451 54.953 16.2341 55.4791 17.4439L57.6495 22.5163C58.1595 23.7225 57.9147 25.1167 57.0256 26.0761L55.4894 27.7283ZM62.6997 2.20722H56.0994V4.41432H62.6997V2.20722ZM9.89965 4.41432H3.29939V2.20722H9.89965V4.41432ZM55.4542 35.3105H59.1755L53.9798 29.3507L51.8241 31.669L55.4542 35.3105ZM50.5989 39.7244V47.0209L48.3988 46.2852L47.3164 36.5163L50.3226 33.2837L52.9002 35.8695C51.4873 36.6346 50.6048 38.1137 50.599 39.7243L50.5989 39.7244ZM39.2138 41.9315C39.374 42.382 39.4848 42.8494 39.5435 43.3244L46.1006 45.5169L45.3392 38.6431L43.5826 40.5319C42.7469 41.419 41.5858 41.9244 40.3691 41.9315H39.2138ZM45.0988 22.0694H38.499C37.2846 22.0708 36.3001 23.0583 36.2989 24.2765V25.3801H29.6991V24.2765C29.6977 23.0582 28.7133 22.0707 27.4989 22.0694H20.8991C19.6846 22.0708 18.7002 23.0583 18.6993 24.2765L16.9397 22.9529C16.6629 22.7439 16.5 22.4167 16.4991 22.0694V17.656H49.4993V22.0694C49.4984 22.4167 49.3355 22.7435 49.0591 22.9529L47.2991 24.277V24.2765C47.2982 23.0582 46.3138 22.0707 45.0992 22.0694L45.0988 22.0694ZM45.0989 24.2765H38.499L38.4991 27.5868H45.1006L45.0989 24.2765ZM27.5006 27.5868H20.8991V24.2765H27.4989L27.5002 26.4779L27.4989 26.4833L27.5002 26.4886L27.5006 27.5868ZM43.3184 15.4487L40.9304 10.6576H40.9302C40.3749 9.53298 39.2302 8.8236 37.9793 8.82806H34.0987V15.4487H43.3184ZM25.0671 10.6576C25.6225 9.533 26.7672 8.82361 28.0181 8.82806H31.8987V15.4487H22.679L25.0671 10.6576ZM12.5347 18.3308L10.3705 23.3879L10.3707 23.3877C10.2033 23.7904 10.2865 24.2542 10.5834 24.5734L24.0245 39.0273C24.4424 39.4692 25.0218 39.721 25.6288 39.725H28.0934C29.34 38.3209 31.1249 37.5183 32.999 37.5183C34.8731 37.5183 36.6581 38.321 37.9046 39.725H40.3692C40.9798 39.7201 41.5619 39.4656 41.9807 39.0197L55.415 24.5727C55.7127 24.2522 55.7951 23.7866 55.6255 23.3834L53.46 18.3232C53.2833 17.9192 52.8864 17.6575 52.4471 17.6562H51.6986V22.0696C51.6964 23.1111 51.2082 24.0911 50.3795 24.7179L47.2986 27.0352V27.587C47.2977 28.8053 46.3132 29.7928 45.0988 29.7941H38.499C37.2845 29.7929 36.3001 28.8053 36.2988 27.587H29.699C29.6977 28.8053 28.7133 29.7928 27.4988 29.7941H20.899C19.6845 29.7929 18.7001 28.8053 18.6992 27.587V27.0352L15.6187 24.7179C14.7901 24.0911 14.3014 23.1111 14.2992 22.0696V17.6562H13.5507C13.1088 17.6584 12.71 17.9232 12.5347 18.3308ZM26.4548 43.3252L19.8977 45.5177L20.6591 38.6439L22.4227 40.5404C23.2576 41.4235 24.416 41.9261 25.6292 41.9324H26.7845C26.6243 42.3829 26.5135 42.8503 26.4548 43.3253L26.4548 43.3252ZM15.6751 33.2846L13.0979 35.8703L13.098 35.8704C14.511 36.6355 15.3935 38.1145 15.3993 39.7253V47.0218L17.5994 46.286L18.6817 36.5176L15.6751 33.2846ZM14.174 31.6698L10.5439 35.3113H6.82263L12.0183 29.3519L14.174 31.6698ZM10.9996 61.7948C12.2141 61.7936 13.1981 60.806 13.1994 59.5877V39.7259C13.198 38.5075 12.214 37.52 10.9996 37.5191H4.39931C3.18478 37.52 2.20038 38.5076 2.19949 39.7259V59.5877C2.2004 60.806 3.18485 61.7935 4.39931 61.7948H10.9996ZM15.3992 49.3488L26.5699 45.6135C26.7751 46.5108 27.1658 47.355 27.7167 48.0917L15.3989 52.5046L15.3992 49.3488ZM32.9988 39.7255C30.569 39.7255 28.5988 41.7019 28.5988 44.1394C28.6015 46.576 30.5699 48.5506 32.9988 48.5533C35.4287 48.5533 37.3988 46.5769 37.3988 44.1394C37.3988 41.7019 35.4287 39.7255 32.9988 39.7255ZM38.2813 48.0917C38.8322 47.355 39.223 46.5108 39.4281 45.6135L50.5988 49.3488V52.5046L38.2813 48.0917ZM61.5989 61.7948C62.8134 61.7936 63.7978 60.806 63.7987 59.5877V39.7259C63.7978 38.5075 62.8134 37.52 61.5989 37.5191H54.9986C53.7841 37.52 52.8001 38.5076 52.7988 39.7259V59.5877C52.8002 60.806 53.7842 61.7935 54.9986 61.7948H61.5989ZM60.8224 39.4966L60.2835 40.0377L58.7922 39.2899C58.4824 39.1346 58.1179 39.1346 57.8082 39.2899L56.3174 40.0377L55.778 39.4966C55.3472 39.0725 54.6565 39.0756 54.2297 39.5038C53.8029 39.9319 53.7998 40.6252 54.2226 41.0569L55.3227 42.1605C55.6574 42.4962 56.1687 42.5797 56.5924 42.3676L58.3004 41.5109L60.0084 42.3676C60.4316 42.5797 60.943 42.4967 61.2781 42.1605L62.3778 41.0574C62.8028 40.6257 62.8006 39.9306 62.3729 39.5016C61.9457 39.073 61.2528 39.0708 60.8225 39.4967L60.8224 39.4966ZM60.2835 44.4514L60.8224 43.9104L60.8225 43.9104C61.2528 43.4845 61.9457 43.4863 62.3729 43.9153C62.8006 44.3443 62.8028 45.0394 62.3778 45.4707L61.2781 46.5742C60.943 46.91 60.4316 46.9934 60.0084 46.7814L58.3004 45.9247L56.5924 46.7814C56.1687 46.9934 55.6574 46.91 55.3227 46.5742L54.2226 45.4707C53.7998 45.0389 53.8029 44.3456 54.2297 43.9175C54.6565 43.4894 55.3472 43.4863 55.778 43.9104L56.3174 44.4514L57.8082 43.7037C58.1179 43.5483 58.4824 43.5483 58.7922 43.7037L60.2835 44.4514ZM60.8224 48.3241L60.2835 48.8652L58.7922 48.1174C58.4824 47.9621 58.1179 47.9621 57.8082 48.1174L56.3174 48.8652L55.778 48.3241C55.3472 47.9 54.6565 47.9031 54.2297 48.3313C53.8029 48.7594 53.7998 49.4527 54.2226 49.8844L55.3227 50.988C55.6578 51.3233 56.1687 51.4067 56.5924 51.1947L58.3004 50.3384L60.0084 51.1947C60.4316 51.4072 60.943 51.3237 61.2781 50.988L62.3778 49.8844C62.8028 49.4527 62.8006 48.7581 62.3729 48.3291C61.9457 47.9001 61.2528 47.8978 60.8225 48.3242L60.8224 48.3241ZM60.2835 53.2789L60.8224 52.7379L60.8225 52.7379C61.2528 52.3116 61.9457 52.3138 62.3729 52.7428C62.8006 53.1718 62.8028 53.8665 62.3778 54.2982L61.2781 55.4017C60.943 55.7374 60.4316 55.8209 60.0084 55.6084L58.3004 54.7517L56.5924 55.6084C56.1687 55.8205 55.6578 55.737 55.3227 55.4017L54.2226 54.2982C53.7998 53.866 53.8029 53.1731 54.2297 52.745C54.6565 52.3169 55.3472 52.3138 55.778 52.7379L56.3174 53.2789L57.8082 52.5312C58.1179 52.3758 58.4824 52.3758 58.7922 52.5312L60.2835 53.2789ZM60.8224 57.1516L60.2835 57.6927L58.7922 56.9449C58.4824 56.7895 58.1179 56.7895 57.8082 56.9449L56.3174 57.6927L55.778 57.1516C55.3472 56.7275 54.6565 56.7306 54.2297 57.1588C53.8029 57.5869 53.7998 58.2797 54.2226 58.7119L55.3227 59.8155C55.6578 60.1507 56.1687 60.2338 56.5924 60.0222L58.3004 59.1655L60.0084 60.0222C60.4316 60.2347 60.943 60.1512 61.2781 59.8155L62.3778 58.7119C62.8028 58.2802 62.8006 57.5856 62.3729 57.1566C61.9457 56.7276 61.2528 56.7253 60.8225 57.1517L60.8224 57.1516ZM9.68337 40.0377L10.2228 39.4966C10.6535 39.0725 11.3442 39.0756 11.771 39.5038C12.1978 39.9319 12.2009 40.6252 11.7781 41.0569L10.678 42.1605C10.3433 42.4962 9.83198 42.5797 9.40831 42.3676L7.70031 41.5109L5.99231 42.3676C5.56904 42.5797 5.0577 42.4962 4.72259 42.1605L3.62293 41.0569C3.19972 40.6252 3.20283 39.9319 3.62961 39.5038C4.05641 39.0756 4.74755 39.0725 5.17834 39.4966L5.71771 40.0377L7.20857 39.2899C7.5183 39.1346 7.88278 39.1346 8.19252 39.2899L9.68337 40.0377ZM10.2228 43.9104L9.68337 44.4514L8.19252 43.7037C7.88278 43.5483 7.5183 43.5483 7.20857 43.7037L5.71771 44.4514L5.17834 43.9104C4.74755 43.4863 4.05641 43.4894 3.62961 43.9175C3.20283 44.3456 3.19972 45.0389 3.62293 45.4707L4.72259 46.5742C5.0577 46.91 5.56904 46.9934 5.99231 46.7814L7.70031 45.9247L9.40831 46.7814C9.83198 46.9934 10.3433 46.91 10.678 46.5742L11.7781 45.4707C12.2009 45.039 12.1978 44.3457 11.771 43.9175C11.3442 43.4894 10.6535 43.4863 10.2228 43.9104ZM9.68337 48.8652L10.2228 48.3241C10.6535 47.9 11.3442 47.9031 11.771 48.3313C12.1978 48.7594 12.2009 49.4527 11.7781 49.8844L10.678 50.988C10.3433 51.3237 9.83198 51.4072 9.40831 51.1947L7.70031 50.3384L5.99231 51.1947C5.56904 51.4067 5.0577 51.3233 4.72259 50.988L3.62293 49.8844C3.19972 49.4527 3.20283 48.7594 3.62961 48.3313C4.05641 47.9031 4.74755 47.9 5.17834 48.3241L5.71771 48.8652L7.20857 48.1174C7.5183 47.9621 7.88278 47.9621 8.19252 48.1174L9.68337 48.8652ZM10.2228 52.7379L9.68337 53.2789L8.19252 52.5312C7.88278 52.3758 7.5183 52.3758 7.20857 52.5312L5.71771 53.2789L5.17834 52.7379C4.74755 52.3138 4.05641 52.3169 3.62961 52.745C3.20283 53.1731 3.19972 53.866 3.62293 54.2982L4.72259 55.4017C5.0577 55.737 5.56904 55.8205 5.99231 55.6084L7.70031 54.7517L9.40831 55.6084C9.83198 55.8209 10.3433 55.7374 10.678 55.4017L11.7781 54.2982C12.2009 53.866 12.1978 53.1731 11.771 52.745C11.3442 52.3169 10.6535 52.3138 10.2228 52.7379ZM9.68337 57.6927L10.2228 57.1516C10.6535 56.7275 11.3442 56.7306 11.771 57.1588C12.1978 57.5869 12.2009 58.2798 11.7781 58.7119L10.678 59.8155C10.3433 60.1512 9.83198 60.2347 9.40831 60.0222L7.70031 59.1655L5.99231 60.0222C5.56904 60.2338 5.0577 60.1507 4.72259 59.8155L3.62293 58.7119C3.19972 58.2797 3.20283 57.5869 3.62961 57.1588C4.05641 56.7306 4.74755 56.7275 5.17834 57.1516L5.71771 57.6927L7.20857 56.9449C7.5183 56.7895 7.88278 56.7895 8.19252 56.9449L9.68337 57.6927ZM30.2504 44.1386C30.2504 42.6149 31.4813 41.3801 33.0002 41.3801C34.5183 41.3819 35.7483 42.6158 35.7501 44.1386C35.7501 45.6623 34.5191 46.8971 33.0002 46.8971C31.4813 46.8971 30.2504 45.6623 30.2504 44.1386ZM32.4502 44.1386C32.4502 44.4435 32.6963 44.6904 33.0002 44.6904C33.3037 44.6899 33.5498 44.4431 33.5503 44.1386C33.5503 43.8337 33.3042 43.5868 33.0002 43.5868C32.6963 43.5868 32.4502 43.8337 32.4502 44.1386ZM36.3007 35.3103H29.7009C29.0934 35.3103 28.6008 34.8166 28.6008 34.2067C28.6008 33.5974 29.0934 33.1036 29.7009 33.1036H36.3007C36.9082 33.1036 37.4008 33.5974 37.4008 34.2067C37.4008 34.8166 36.9082 35.3103 36.3007 35.3103Z" fill="#44B7F6"/>
</svg>
