<svg width="62" height="63" viewBox="0 0 62 63" fill="none" xmlns="http://www.w3.org/2000/svg">
<path fill-rule="evenodd" clip-rule="evenodd" d="M44.6412 7.81752C44.3176 7.87398 43.9875 7.90267 43.6593 7.90267L43.6592 7.9027C42.0762 7.90175 40.5516 7.23859 39.4769 6.0816C38.1585 4.66272 37.6566 2.69399 38.1357 0.816376L38.2949 0.192063L38.9319 0.0814542C40.8125 -0.244001 42.7976 0.420179 44.0957 1.8169C45.4146 3.23625 45.9164 5.20498 45.4373 7.0826L45.2781 7.70691L44.6412 7.81752ZM42.6305 3.16959C41.9333 2.41892 40.9867 2.00055 39.9625 1.98713C39.8975 2.98731 40.2434 3.97722 40.9412 4.72928C41.6394 5.48041 42.585 5.89831 43.6101 5.91173C43.6746 4.9106 43.3292 3.92118 42.6305 3.16959ZM34.4209 8.40531C34.1247 8.40531 33.8253 8.37986 33.5323 8.32895L33.5323 8.32887C31.8034 8.02853 30.3605 6.88725 29.6735 5.27668L29.4204 4.68337L29.8596 4.21039C31.0347 2.94421 32.8183 2.33981 34.5263 2.63785C36.2551 2.9383 37.698 4.079 38.3856 5.69052L38.6391 6.28336L38.1999 6.75588C37.2255 7.80414 35.8485 8.40531 34.4209 8.40531ZM36.2041 5.86037C35.7277 5.19815 35.0086 4.74182 34.1841 4.59836H34.184C33.3666 4.45767 32.5249 4.64696 31.854 5.10652C32.3304 5.76874 33.049 6.22461 33.8744 6.36853C34.6911 6.50876 35.5332 6.31947 36.2041 5.86037ZM25.4567 9.09348C25.6712 9.13606 25.8908 9.15828 26.109 9.15828C27.2714 9.15828 28.4116 8.54739 29.2375 7.48242L29.5402 7.09274L29.4125 6.61652C28.9919 5.0486 27.9223 3.94843 26.5514 3.67262C25.199 3.40373 23.7529 4.01879 22.771 5.28413L22.4683 5.67428L22.596 6.15003C23.0161 7.71795 24.0862 8.81813 25.4566 9.09347L25.4567 9.09348ZM26.1568 5.62484C26.6377 5.72157 27.0481 6.09134 27.3076 6.64532C26.8559 7.0535 26.3346 7.24047 25.8508 7.14236C25.3703 7.04564 24.9604 6.67678 24.7009 6.12281C25.1521 5.71462 25.6767 5.52719 26.1567 5.62484H26.1568ZM18.4697 12.529C19.3903 13.1255 20.4543 13.4407 21.5476 13.4407C22.3382 13.4407 23.1381 13.2708 23.8609 12.9506L24.4519 12.6877L24.4524 12.043C24.4556 10.121 23.4942 8.34796 21.8786 7.30157C20.2932 6.27461 18.2088 6.11586 16.4869 6.88088L15.8964 7.14376L15.8959 7.78844C15.8936 9.71001 16.855 11.4825 18.4697 12.5289L18.4697 12.529ZM20.7918 8.97002C21.6405 9.51983 22.2106 10.3806 22.3931 11.352C21.4242 11.5788 20.3926 11.4011 19.5583 10.861C18.7097 10.3102 18.1395 9.44992 17.9563 8.47853C18.9242 8.25083 19.9567 8.42947 20.7918 8.97002ZM37.6765 9.00131C35.9946 9.96578 34.9287 11.6971 34.8261 13.6311L34.7913 14.2754L35.3665 14.5692C36.171 14.9811 37.0744 15.1986 37.9779 15.1986C38.9695 15.1986 39.9514 14.9367 40.8144 14.441C42.4978 13.477 43.5637 11.7462 43.6663 9.81121L43.7002 9.167L43.125 8.87312C41.4379 8.00999 39.3289 8.05489 37.6765 9.00131ZM39.8199 12.7153C38.9467 13.217 37.8803 13.3378 36.9203 13.0536C37.1571 12.0785 37.7824 11.2371 38.6733 10.7262C39.547 10.2254 40.6129 10.1037 41.5729 10.3878C41.3357 11.363 40.7108 12.2048 39.8199 12.7153ZM46.0172 8.64043L58.5092 3.58337L58.5102 3.5833C58.726 3.49584 58.8305 3.2487 58.7432 3.03257C58.6527 2.81228 58.4048 2.71 58.1894 2.79562L47.0131 7.32036L46.2615 5.47663L57.4378 0.951883C58.674 0.452504 60.0881 1.04773 60.5899 2.27965C60.8355 2.8808 60.83 3.53616 60.5779 4.13085C60.3272 4.72457 59.8583 5.18552 59.2608 5.4271L46.7688 10.4842L46.0172 8.64043ZM24.8923 13.1916C25.3835 11.3326 26.7702 9.86545 28.6002 9.26705V9.26707C30.4052 8.67881 32.4464 9.05651 33.9191 10.2408L34.4223 10.6453L34.257 11.2678C33.7654 13.1277 32.3787 14.5944 30.5487 15.1923C29.9772 15.3793 29.3839 15.4742 28.7864 15.4742C27.499 15.4742 26.2358 15.0284 25.2303 14.219L24.727 13.8145L24.8923 13.1916ZM27.0608 13.0519C27.9293 13.5142 28.9776 13.6128 29.9265 13.3018L29.9266 13.3019C30.8889 12.9876 31.6615 12.3013 32.0895 11.4094C31.2204 10.9471 30.1727 10.849 29.2224 11.1586C28.2599 11.4733 27.4874 12.1596 27.0608 13.0519ZM61.9854 59.4249L60.7594 42.8128C60.76 42.8013 60.7613 42.79 60.7625 42.7788C60.7642 42.7633 60.7659 42.7479 60.7659 42.7318C60.7608 41.2472 58.8668 40.4715 56.7924 40.0651L59.3912 18.6848C59.4404 18.539 59.4558 18.3882 59.4558 18.2308C59.4558 17.8763 59.4544 17.5051 58.8476 17.1414V12.8248C58.8476 11.0972 57.4382 9.69216 55.7042 9.69216C53.9703 9.69216 52.5608 11.0972 52.5608 12.8248V15.8649C51.3956 15.7487 50.033 15.6381 48.4397 15.5345C48.585 14.4603 48.4276 13.3509 47.9425 12.3347L47.6649 11.7529L47.0173 11.7677C45.0753 11.8117 43.3075 12.8224 42.2894 14.4704C41.4004 15.9116 41.2151 17.6656 41.7504 19.2566C41.0169 19.2825 40.268 19.3057 39.4914 19.3256C39.3359 17.809 38.5847 16.5479 37.3962 15.8722C35.9562 15.0521 34.1316 15.21 32.5157 16.2943L32.1076 16.571L32.0783 17.0625C32.0282 17.9178 32.1638 18.7239 32.453 19.4293L32.1059 19.4308L32.1055 19.4308L32.1045 19.4309C31.7561 19.4324 31.4071 19.434 31.0505 19.434C30.9423 19.434 30.8372 19.4335 30.7318 19.433L30.7311 19.433C30.6608 19.4326 30.5904 19.4323 30.5189 19.4321L30.4177 19.0087C30.0403 17.4301 29.0008 16.3022 27.6364 15.9899C26.2948 15.6826 24.8263 16.2648 23.8143 17.4986L23.5014 17.8794L23.6161 18.3589C23.702 18.718 23.8259 19.0494 23.9763 19.3581C22.3798 19.3234 20.8636 19.2789 19.4412 19.2248C20.7609 18.9295 21.9555 18.1701 22.7716 17.0617L23.1541 16.5429L22.8352 15.9824C21.884 14.3099 20.169 13.2436 18.2457 13.1302C16.3176 13.0159 14.482 13.8906 13.3521 15.4238L13.2504 15.5617C11.827 15.658 10.5944 15.7593 9.52715 15.8658V12.8252C9.52715 11.0975 8.11679 9.69253 6.38377 9.69253C4.65074 9.69253 3.24039 11.0975 3.24039 12.8252V17.1491C2.64615 17.5105 2.64383 17.8794 2.64383 18.2311C2.64383 18.3533 2.65312 18.4708 2.67958 18.5856L4.46323 33.1772L3.86576 33.0111C2.7381 32.6973 1.57284 33.3415 1.20977 34.4768L0.0988202 37.9395C-0.0748032 38.4809 -0.0181703 39.0594 0.257124 39.5681C0.537995 40.0878 1.02592 40.4756 1.59415 40.633L5.50956 41.721L5.73472 43.5644L5.73555 43.5707L5.73591 43.574L5.73645 43.58C5.73703 43.5864 5.7376 43.5928 5.7389 43.5995L6.49284 49.7691C7.19153 54.3032 22.7368 55.5162 31.0502 55.5162C34.0338 55.5162 36.9336 55.3954 39.6875 55.1654C40.232 55.7008 40.8662 56.1308 41.5769 56.4533L41.3791 59.374H41.3778C41.3397 59.7535 41.401 60.3228 41.9056 60.8735C43.8193 62.9662 51.4713 63 51.6937 63H51.6988C52.7536 62.9935 62.0093 62.838 62 59.4258L61.9854 59.4249ZM51.4629 43.9352L51.6185 43.9347C55.466 43.9148 57.8736 43.2155 58.6081 42.7398C57.8806 42.2816 55.5227 41.617 51.7697 41.617L51.6142 41.6175C47.767 41.6374 45.3595 42.3367 44.6246 42.8125C45.3521 43.2706 47.71 43.9352 51.4629 43.9352ZM13.9119 35.7987L13.6324 32.8511C15.3255 33.1358 17.1301 33.3639 18.9587 33.5458L19.1337 37.2491L13.9119 35.7987ZM5.85172 28.0686H5.8624H5.86325C5.86325 29.2876 14.4226 32.1431 31.0219 32.1426C47.6209 32.1426 56.1806 29.2866 56.1806 28.0676H56.2405L56.5381 25.619C51.3647 28.2671 38.5851 29.0465 31.0597 29.0465C23.5189 29.0465 10.7017 28.264 5.55042 25.6019L5.85172 28.0686ZM10.5025 20.6842C10.6358 22.1776 10.7774 23.7243 10.9217 25.2965C7.3025 24.5042 5.36661 23.6087 5.30255 22.9816L5.23013 22.982L4.85362 19.9002C6.02166 20.1839 7.80245 20.4435 10.5025 20.6842L10.5025 20.6842ZM18.6185 26.4697C18.5294 24.6489 18.4389 22.8778 18.3488 21.1752L18.3488 21.1753C16.2597 21.0878 14.3016 20.979 12.5216 20.8481C12.6627 22.4206 12.8104 24.0428 12.9636 25.7001C14.5991 25.9893 16.4909 26.2536 18.6185 26.4697ZM26.2498 26.9745C24.2391 26.9056 22.3636 26.7954 20.6259 26.6543C20.5349 24.798 20.4435 22.9898 20.3515 21.2511C22.209 21.315 24.1532 21.3608 26.1546 21.3891C26.1866 23.1842 26.2182 25.054 26.2498 26.9746L26.2498 26.9745ZM41.451 26.657C41.555 24.7988 41.6548 22.9898 41.7486 21.2515L41.7485 21.2515C39.8915 21.314 37.9473 21.3603 35.9468 21.3885C35.9157 23.1851 35.8842 25.0548 35.8531 26.9754C37.8535 26.9069 39.7199 26.7982 41.451 26.657ZM57.2319 19.9038L56.8578 22.9815H56.816C56.7519 23.6091 54.8095 24.5069 51.1786 25.2996C51.3239 23.733 51.4641 22.1872 51.5978 20.6836C54.2872 20.4448 56.0638 20.1866 57.2319 19.9038H57.2319ZM43.4606 26.4746C45.598 26.2581 47.4954 25.9943 49.1379 25.7036L49.1378 25.7036C49.2901 24.0518 49.4386 22.4298 49.5802 20.8488C47.7999 20.9788 45.8421 21.0876 43.7521 21.176C43.6611 22.8801 43.5622 24.6526 43.4606 26.4746ZM54.8713 38.4837C54.8713 38.6063 54.5565 39.0747 53.2493 39.6648C52.5928 39.6328 52.064 39.6264 51.7683 39.6264L51.6021 39.6268C51.3719 39.6282 50.701 39.6375 49.8226 39.6953L50.5092 32.4534C52.6768 31.9948 54.5603 31.4265 55.9163 30.7244L54.9725 38.4837L54.8713 38.4837ZM20.9661 33.7257L21.1592 37.8108L26.446 39.2788L26.3629 34.0423C24.6374 33.9765 22.8082 33.8738 20.9661 33.7257ZM28.4529 39.8351L28.3619 34.1014C29.3002 34.1227 30.1948 34.1333 31.0216 34.1333C31.867 34.1333 32.782 34.1227 33.743 34.1L33.6311 41.272L28.4529 39.8351ZM41.0483 33.727C39.2373 33.8724 37.4398 33.9742 35.7406 34.039L35.6204 41.8237L37.6045 42.3744C38.6096 42.3179 39.5985 42.249 40.5623 42.1661L41.0483 33.727ZM42.664 41.959C42.6335 41.9623 42.6029 41.9657 42.5719 41.9686L43.0571 33.548C44.916 33.3642 46.7501 33.1305 48.4678 32.8408L47.7984 39.898C45.7288 40.1808 43.4646 40.7625 42.7204 41.9528L42.664 41.959ZM55.7046 11.6827C55.0718 11.6827 54.5579 12.1959 54.5579 12.8254L54.5588 12.8253L54.5583 16.0936C55.4882 16.2162 56.2408 16.3453 56.8513 16.4759V12.8254C56.8513 12.195 56.3373 11.6827 55.7046 11.6827ZM43.9917 15.5147C44.5307 14.6414 45.3933 14.0439 46.3789 13.8375C46.6379 14.8075 46.4912 15.8446 45.9522 16.7176C45.4193 17.5821 44.5511 18.1837 43.5655 18.3934C43.3097 17.4229 43.4574 16.3812 43.9917 15.5148L43.9917 15.5147ZM47.7482 17.5847C47.718 17.6438 47.6879 17.7028 47.6523 17.7597L47.6522 17.7596C47.3523 18.2479 46.9754 18.6742 46.5524 19.0444C50.5046 18.8227 53.5166 18.5307 55.4214 18.2354C53.9633 17.9999 51.59 17.7259 47.7976 17.4899C47.7806 17.5213 47.7644 17.553 47.7482 17.5847ZM34.0728 17.6889C34.909 17.2691 35.7562 17.2325 36.4084 17.6019C36.9883 17.9314 37.3662 18.5733 37.4859 19.3734C36.6122 19.3901 35.7088 19.4026 34.7873 19.4128C34.3806 19.0009 34.122 18.4011 34.0728 17.6888L34.0728 17.6889ZM33.8546 27.0291C33.8862 25.0997 33.9183 23.2198 33.9494 21.4116C32.9921 21.42 32.025 21.4241 31.0501 21.4251C30.0757 21.4251 29.1086 21.4204 28.1523 21.4116C28.1834 23.2175 28.2154 25.0983 28.2475 27.0291C29.1606 27.0467 30.0965 27.0569 31.0594 27.0569C32.0157 27.0569 32.9471 27.0471 33.8546 27.0291ZM25.7211 18.3881C26.1844 17.9933 26.7169 17.8207 27.1899 17.9304C27.6686 18.0401 28.0678 18.4205 28.3125 18.9805C28.0562 19.2003 27.7786 19.3419 27.501 19.4146C27.4597 19.4141 27.4182 19.4137 27.3766 19.4133C27.3251 19.4128 27.2733 19.4123 27.2216 19.4119L27.2214 19.4119C27.0664 19.4105 26.9111 19.409 26.76 19.4067C26.3209 19.273 25.9509 18.9148 25.7211 18.3881L25.7211 18.3881ZM14.0244 17.5074C10.5458 17.7305 8.18418 17.9933 6.67352 18.234C8.7222 18.5524 12.0574 18.8657 16.4691 19.0925C15.5281 18.7898 14.6892 18.2414 14.0244 17.5074ZM18.1293 15.1184C19.1404 15.1781 20.0629 15.6451 20.7035 16.399C19.9788 17.0687 19.009 17.432 17.9961 17.3695C16.9849 17.3103 16.0624 16.8433 15.4218 16.0899C16.1465 15.4197 17.1181 15.0578 18.1293 15.1184V15.1184ZM6.38584 11.6827C5.75354 11.6827 5.23916 12.1959 5.23916 12.8253L5.23961 12.8254V16.4778C5.8487 16.3463 6.60357 16.2186 7.53252 16.095V12.8253C7.53252 12.195 7.01814 11.6827 6.38584 11.6827ZM6.18018 30.752C7.54372 31.4481 9.42661 32.0118 11.5919 32.4662L11.8532 35.2278L6.54733 33.7547L6.18018 30.752ZM19.8984 52.9255C19.8251 51.5329 19.7522 50.095 19.6788 48.6242C18.0976 48.4544 16.5345 48.2447 15.0587 47.986C15.1924 49.4373 15.3219 50.8586 15.4472 52.248C16.755 52.5007 18.2406 52.7316 19.8984 52.9255ZM21.6876 48.8181C23.3653 48.9616 25.0306 49.0625 26.6053 49.1273C26.6299 50.605 26.6545 52.0467 26.6791 53.4396C24.9749 53.3725 23.3839 53.2684 21.9085 53.1337C21.8352 51.7365 21.7613 50.2953 21.6875 48.8181L21.6876 48.8181ZM7.59073 42.2986L7.71236 43.2927L7.71196 43.2927C8.14218 44.4913 14.0749 46.4818 24.7475 47.065L7.59073 42.2986ZM8.48208 49.5895L8.03548 45.9352C9.31677 46.6007 11.041 47.1441 13.0164 47.5818C13.1496 49.0152 13.2786 50.4262 13.4031 51.8021C10.3808 51.0579 8.70351 50.2165 8.4821 49.5894L8.48208 49.5895ZM28.6042 49.1916C28.6288 50.6665 28.6539 52.1081 28.6789 53.4993L28.6789 53.4993C29.4495 53.5159 30.2383 53.5247 31.0507 53.5247C31.851 53.5247 32.644 53.5155 33.4309 53.4988C33.4536 52.203 33.4768 50.8637 33.4986 49.4961L32.4731 49.211C31.9913 49.217 31.508 49.2221 31.0196 49.2221C30.268 49.2221 29.4556 49.2119 28.6042 49.1916ZM35.4824 50.2846C36.6904 50.9765 37.6876 52.0076 38.3255 53.2725C37.3738 53.3396 36.4096 53.3951 35.4276 53.4349C35.4471 52.4094 35.4652 51.357 35.4824 50.2846ZM34.3873 47.6767C36.8863 48.3709 38.9819 50.1018 40.136 52.426L40.135 52.4258C40.5231 53.2061 41.0556 53.8216 41.7246 54.2705L42.3002 45.7458L3.32914 34.927C3.23211 34.9024 3.14205 34.9848 3.11095 35.0815L2 38.5438C1.99304 38.566 1.99768 38.5924 2.01347 38.6215C2.03807 38.6669 2.08125 38.7011 2.12906 38.7145L32.7369 47.2176H32.774V47.2283L34.3873 47.6767ZM43.3714 59.5161L44.3356 45.2551L44.4294 44.9205C45.4349 45.324 46.6921 45.5679 47.8825 45.7118C47.8375 48.067 47.7915 50.5444 47.7455 53.031C47.6977 55.6537 47.649 58.2675 47.6012 60.7371C45.5386 60.4686 43.6899 60.022 43.3714 59.5162L43.3714 59.5161ZM49.5937 60.9397C50.3397 60.992 51.0598 61.0179 51.6874 61.0087L51.6874 61.0087C52.4307 61.0031 53.1261 60.9735 53.7821 60.9277C53.7106 58.348 53.6396 55.6674 53.569 52.9832L53.5473 52.1655L53.5473 52.165V52.1649C53.491 50.0393 53.435 47.9229 53.3782 45.8594C52.5152 45.9154 51.8573 45.9241 51.6298 45.9255L51.4636 45.926C51.1531 45.926 50.5821 45.9191 49.8764 45.882C49.8314 48.1979 49.7864 50.6294 49.7414 53.0688C49.6921 55.7494 49.6429 58.4216 49.5937 60.9397ZM55.7738 60.7185C55.7046 58.1875 55.6345 55.5616 55.5653 52.9305L55.5255 51.4283C55.474 49.4844 55.4229 47.5513 55.3708 45.6641C56.5927 45.4994 57.888 45.2328 58.9046 44.7978L59.9802 59.3811C59.6599 59.7837 58.1817 60.371 55.7737 60.7186L55.7738 60.7185Z" fill="#44B7F6"/>
</svg>
