<svg width="54" height="65" viewBox="0 0 54 65" fill="none" xmlns="http://www.w3.org/2000/svg">
<path fill-rule="evenodd" clip-rule="evenodd" d="M50.7143 8.76923H48.5238V7.67308C48.5238 5.86004 47.0496 4.38462 45.2381 4.38462H23.9846C23.4753 1.88648 21.264 0 18.619 0C15.974 0 13.7628 1.88648 13.2535 4.38462H3.28571C1.47419 4.38462 0 5.86004 0 7.67308V55.1346C0 56.9477 1.47419 58.4231 3.28571 58.4231H4.38095V61.7115C4.38095 63.5246 5.85514 65 7.66667 65H50.7143C52.5258 65 54 63.5246 54 61.7115V12.0577C54 10.2447 52.5258 8.76923 50.7143 8.76923ZM3.28571 56.2308C2.68114 56.2308 2.19048 55.7397 2.19048 55.1346V7.67308C2.19048 7.068 2.68114 6.57692 3.28571 6.57692H13.1429V8.76923H7.66667C5.85514 8.76923 4.38095 10.2447 4.38095 12.0577V56.2308H3.28571ZM50.7143 62.8077C51.3189 62.8077 51.8095 62.3166 51.8095 61.7115V12.0577C51.8095 11.4526 51.3189 10.9615 50.7143 10.9615H26.2857V8.76923H46.3333V7.67308C46.3333 7.068 45.8427 6.57692 45.2381 6.57692H24.0952H21.9048V5.48077C21.9048 3.66773 20.4306 2.19231 18.619 2.19231C16.8075 2.19231 15.3333 3.66773 15.3333 5.48077V6.57692V14.25C15.3333 16.063 16.8075 17.5385 18.619 17.5385C20.4306 17.5385 21.9048 16.063 21.9048 14.25V13.1517C21.9048 12.5466 21.4141 12.0555 20.8095 12.0555C20.205 12.0555 19.7143 12.5466 19.7143 13.1517V15.3462H17.5238V13.1517C17.5238 11.3386 18.998 9.86319 20.8095 9.86319C22.621 9.86319 24.0952 11.3386 24.0952 13.1517V14.25C24.0952 17.2721 21.6386 19.7308 18.619 19.7308C15.5995 19.7308 13.1429 17.2721 13.1429 14.25V10.9615H7.66667C7.0621 10.9615 6.57143 11.4526 6.57143 12.0577V61.7115C6.57143 62.3166 7.0621 62.8077 7.66667 62.8077H50.7143ZM26.2857 13.1538H45.2381V15.3462H26.2857V13.1538ZM45.2381 17.5385H26.2857V19.7308H45.2381V17.5385ZM13.1429 26.3077H45.2381V28.5H13.1429V26.3077ZM45.2381 30.6923H13.1429V32.8846H45.2381V30.6923ZM13.1429 35.0769H45.2381V37.2692H13.1429V35.0769ZM14.2381 41.8462H44.1429C44.7474 41.8462 45.2381 41.3551 45.2381 40.75V40.5577C45.2381 39.9526 44.7474 39.4615 44.1429 39.4615H14.2381C13.6335 39.4615 13.1429 39.9526 13.1429 40.5577V40.75C13.1429 41.3551 13.6335 41.8462 14.2381 41.8462Z" fill="#44B7F6"/>
</svg>
