<svg width="130" height="122" viewBox="0 0 130 122" fill="none" xmlns="http://www.w3.org/2000/svg">
<path fill-rule="evenodd" clip-rule="evenodd" d="M116.909 57.9322C115.597 59.5905 114.424 61.0803 114.41 61.111C114.362 61.2271 114.412 61.3604 114.534 61.452L114.566 61.474C114.607 61.4986 114.633 61.5074 114.953 61.5134L116.413 61.5307C116.673 61.5363 116.721 61.5448 116.768 61.5652C116.945 61.6391 115.983 62.9392 114.854 64.073L114.732 64.1938C113.551 65.3539 114.001 66.1988 115.026 66.567L116.239 66.8388C115.804 67.5144 115.303 68.1406 114.736 68.7172C114.564 68.4717 114.384 68.2252 114.199 67.9819L114.052 67.7866C111.861 64.87 111.772 63.9968 111.841 63.9441C111.876 63.9185 112.476 63.7982 113.355 63.6348L114.426 62.9533C114.548 62.7284 113.309 61.3162 113.233 61.2296L113.233 61.2295L113.229 61.2254C110.468 57.0911 111.157 55.7464 111.375 55.6669C111.423 55.6506 111.795 55.6395 112.357 55.6386L113.402 55.6385L113.476 55.5733C113.627 55.4399 113.696 55.2044 113.642 54.9973L113.625 54.9611C113.583 54.8726 113.46 54.6276 113.278 54.2656C113.467 54.4781 113.651 54.6581 113.825 54.792C114.13 55.0315 114.259 55.4839 114.34 55.9895C114.485 56.8144 114.79 57.4797 115.112 58.1716C115.225 58.0918 115.354 58.0385 115.483 57.9853C115.446 57.6581 115.359 57.364 115.274 57.0754C115.172 56.7303 115.073 56.3929 115.064 56.0161C115.245 55.9948 115.363 56.1613 115.469 56.3104C115.496 56.3475 115.521 56.3835 115.547 56.4153C115.712 56.5985 115.874 56.7818 116.034 56.9631L116.034 56.9632C116.329 57.2966 116.617 57.6235 116.909 57.9322ZM117.456 57.2412C116.745 56.363 116.027 55.5136 115.241 54.792C114.758 54.3396 113.66 52.9911 113.241 52.4056C113.241 52.2992 113.225 52.1927 113.161 52.0863C112.919 51.6339 112.674 51.1882 112.428 50.7424C112.183 50.2967 111.937 49.851 111.696 49.3986C111.341 48.414 110.842 47.589 110.295 46.9237C109.426 45.8593 108.621 44.7416 107.896 43.4643C106.947 41.7878 105.82 41.0959 104.451 41.3354C103.711 41.4685 103.163 40.8831 102.857 39.8452C102.423 38.3816 101.634 37.2906 100.845 36.3858C100.637 36.1489 100.4 35.9164 100.155 35.677C99.549 35.0825 98.8987 34.4453 98.543 33.5917C98.4665 33.4167 98.3793 33.2524 98.2916 33.0871C98.1392 32.7998 97.9851 32.5094 97.8829 32.1547C97.3838 30.5048 96.4984 29.7597 95.5164 29.0944C95.0978 28.8283 94.7919 28.2961 94.5344 27.7372C94.3243 27.2936 94.1059 26.906 93.8789 26.5033C93.7927 26.3503 93.7053 26.1953 93.6167 26.0341C93.453 25.7492 93.3492 25.3803 93.2436 25.0052C93.152 24.6796 93.0591 24.3493 92.9245 24.0649C92.5864 23.3464 92.1678 22.7344 91.7332 22.1755C91.0409 21.2708 90.3487 20.366 89.7691 19.2749C89.3505 18.4766 88.9803 17.971 88.3685 18.5831C87.8695 19.0887 87.3865 19.6475 86.9518 20.2862C86.7586 20.5789 86.5655 20.8716 86.4045 21.1909C86.3439 21.3133 86.289 21.4867 86.2326 21.6647C86.1541 21.9126 86.0729 22.1692 85.9698 22.3086C85.5271 22.9207 85.0361 23.4396 84.5451 23.9585C84.054 24.4774 83.563 24.9963 83.1203 25.6084C82.8305 26.0075 82.4925 25.8745 82.2993 25.289C81.7583 23.6994 81.007 22.4111 80.2547 21.1213L80.2547 21.1212L80.0937 20.845C79.9166 20.5257 79.7074 20.2596 79.4981 20.0467C79.346 19.903 79.2011 19.7458 79.0582 19.5906L79.0581 19.5905C78.5657 19.056 78.095 18.5451 77.4213 18.6895L77.3408 18.5564C76.5986 17.4559 75.9378 16.233 75.2782 15.0122L75.2781 15.0121C74.9648 14.4323 74.6518 13.853 74.3304 13.2875C74.1962 13.051 74.0869 12.7734 73.9776 12.4958L73.9776 12.4957L73.9775 12.4955C73.8901 12.2735 73.8027 12.0515 73.7025 11.8505C73.3421 11.1117 72.8396 10.7144 72.3338 10.3145C72.2748 10.2679 72.2159 10.2212 72.157 10.174C71.1871 9.44522 70.3245 8.38381 69.4712 7.3339C69.3898 7.2337 69.3084 7.13359 69.2271 7.0339C67.8426 5.35741 66.619 3.46803 65.798 0.913375C65.4116 -0.257508 64.8482 -0.284119 64.2203 0.727098C63.1256 2.48342 62.1275 4.39941 61.1777 6.36862C60.6142 7.53951 59.9702 8.55072 59.2458 9.42889C59.1349 9.55715 59.0317 9.69804 58.9256 9.84285L58.9255 9.84305C58.8775 9.90848 58.829 9.97471 58.7789 10.0409C57.9418 10.7328 57.2334 11.7174 56.67 12.9948C56.6378 13.0746 56.6217 13.1544 56.6217 13.2343C55.9294 14.2455 55.3016 15.2567 54.7864 16.4808C54.6766 16.7392 54.5665 16.9975 54.4563 17.2561L54.4531 17.2634L54.45 17.2709L54.4469 17.2781L54.4468 17.2783C53.7204 18.9825 52.9918 20.6922 52.3233 22.4417C51.7073 24.0588 50.883 25.3464 50.0609 26.6303L50.0608 26.6305C49.7872 27.0579 49.5138 27.4849 49.2484 27.9235C48.5401 29.0944 47.7352 30.1588 46.8497 31.0104C46.3185 31.516 45.8194 31.4362 45.3042 30.8241L45.2196 30.724C45.0189 30.4862 44.8074 30.2356 44.5959 30.0258C44.5959 29.8927 44.5637 29.7597 44.4671 29.6532C44.2777 29.4397 44.0802 29.2262 43.8798 29.0097L43.8798 29.0096C43.3311 28.4164 42.7612 27.8004 42.2777 27.0986L40.2009 23.9851C40.105 23.8429 40.0029 23.6714 39.895 23.4902L39.8948 23.4899C39.4777 22.7894 38.9733 21.9423 38.3979 22.0691C38.1081 22.1489 37.448 22.4683 37.3031 22.9473C37.2388 23.1601 37.1905 23.3796 37.1422 23.5991L37.1421 23.5992L37.1421 23.5994C37.0938 23.8189 37.0455 24.0384 36.9812 24.2512C36.6914 25.2092 36.305 26.0341 35.7898 26.6462C35.0169 27.6173 34.3428 28.7738 33.6706 29.9272L33.6706 29.9272C33.2929 30.5754 32.9157 31.2226 32.5218 31.8353C31.8049 32.9402 30.989 33.7946 30.1686 34.6536C29.6257 35.2221 29.0808 35.7926 28.5615 36.439C28.4222 36.4902 28.3052 36.6521 28.1872 36.8153C28.0599 36.9916 27.9315 37.1693 27.7726 37.2107C27.1609 37.3704 26.5813 37.8494 26.0501 38.4348C25.5527 39.0029 25.2687 39.8228 24.984 40.6447C24.7619 41.2859 24.5394 41.9283 24.2148 42.4531C24.1311 42.5808 24.0525 42.7171 23.974 42.8533C23.8561 43.0577 23.7383 43.2621 23.6031 43.4377C23.525 43.5433 23.4312 43.6334 23.337 43.724C23.2176 43.8387 23.0974 43.9542 23.0074 44.103C22.6371 44.6086 22.2669 45.0876 21.8805 45.5666C21.156 46.498 20.4316 47.1899 19.6267 47.8817C18.1295 49.2123 16.745 50.7025 15.8595 53.2039C15.5052 54.208 15.0872 55.1383 14.6697 56.0678L14.6696 56.0679L14.6696 56.068C14.4231 56.6166 14.1768 57.1648 13.9438 57.7278C13.8172 58.0286 13.6955 58.3357 13.5743 58.6454C11.9022 56.529 9.72019 53.7771 9.45989 53.4631C9.37352 53.3575 9.15976 53.3228 8.9935 53.3884C8.94599 53.4067 8.88553 53.4413 8.85962 53.465L8.80266 53.5323C8.1828 54.2874 2.81654 61.0586 2.78782 61.1243C2.73998 61.2404 2.78966 61.3735 2.91137 61.4649L2.95224 61.4921C2.98658 61.5111 3.02686 61.5194 3.26435 61.5249L4.79024 61.5435C5.05009 61.5492 5.09874 61.5576 5.14572 61.578C5.32609 61.6532 4.32611 62.9971 3.17051 64.1432L2.13239 65.1639C1.43207 65.8538 0.943021 66.3395 0.930865 66.3587C0.891999 66.4188 0.891999 66.5755 0.928706 66.6375C0.958319 66.6843 1.03076 66.7539 1.08621 66.7901L1.11224 66.8051C1.14463 66.8215 1.62614 66.8288 2.88714 66.8361L4.6167 66.8452C4.01787 67.7734 3.29471 68.6081 2.44723 69.3491L2.11644 69.6325C0.504811 71.0248 -0.0712312 71.9754 0.0069234 72.0959L0.0445346 72.1367C0.0661316 72.1537 0.109667 72.1523 0.361423 72.1442C0.700719 72.1332 1.41821 72.1101 2.96991 72.1033C1.1745 73.365 1.29562e-09 75.4598 1.29562e-09 77.8307V110.019C1.29562e-09 113.875 3.10569 117 6.93676 117H34.9407V113.972L34.9416 113.865C34.9983 110.344 37.8518 107.508 41.3636 107.508H88.6364L88.7426 107.509C92.2409 107.566 95.0593 110.438 95.0593 113.972V117H123.063C126.894 117 130 113.875 130 110.019V77.8307C130 75.4568 128.822 73.3596 127.023 72.0985L129.769 72.0915C129.91 72.0896 129.975 72.0868 129.983 72.0826C130.14 72.0068 129.195 70.7534 127.844 69.5796L127.453 69.2451C125.386 67.4616 125.276 66.908 125.34 66.8622L125.342 66.8607C125.377 66.8442 125.822 66.8369 127.128 66.8296L128.866 66.8205L128.946 66.7749C129.108 66.6801 129.169 66.4922 129.078 66.3499C129.063 66.3249 128.794 66.0571 128.411 65.6849L127.565 64.8661C125.04 62.4067 124.665 61.5891 124.876 61.5396L124.895 61.5371C124.983 61.5284 125.311 61.5225 125.789 61.5215L126.904 61.5214L126.977 61.4794C127.128 61.3937 127.197 61.2423 127.143 61.1091L127.127 61.0859C126.79 60.6379 121.497 53.9412 121.082 53.4405C120.996 53.3347 120.782 53.3 120.616 53.3657C120.568 53.3839 120.508 53.4186 120.482 53.4423L120.404 53.5356C120.074 53.9403 118.766 55.5864 117.456 57.2412ZM14.0416 59.2371C14.1842 58.938 14.3288 58.6276 14.474 58.3156C15.3248 56.4883 16.1996 54.6092 16.8531 54.6675C17.4512 54.7132 17.5909 53.9416 17.7482 53.0734C17.866 52.4225 17.9937 51.7174 18.3317 51.2613C18.4791 51.0629 18.5875 50.9129 18.6741 50.7928C18.9943 50.3492 19.0185 50.3156 19.6267 49.7711C19.6801 49.7199 19.7759 49.6297 19.899 49.5138L19.8993 49.5135L19.8994 49.5134C20.4804 48.9663 21.668 47.8478 21.8805 47.5624C22.0813 47.2968 22.3645 47.0312 22.6617 46.7523C23.1984 46.2489 23.781 45.7022 24.009 45.0344C24.17 44.5288 24.508 44.2893 24.8622 44.1828C25.4522 44.0268 26.5593 43.2703 27.2416 42.804L27.2416 42.804L27.2417 42.804C27.4902 42.6341 27.6824 42.5028 27.7726 42.4531C28.0256 42.3137 28.7379 42.9336 29.4307 43.5365C30.0606 44.0847 30.6743 44.6187 30.9119 44.5554C32.1998 44.236 33.2784 42.9853 34.1961 41.4951C35.1781 39.8718 36.1279 38.2486 36.7075 36.0665C36.8202 35.6141 37.2065 35.0819 37.5446 34.6561C38.43 33.5917 39.2672 32.4208 39.0901 30.2653C39.0499 29.7552 39.1214 29.2452 39.1929 28.7352L39.193 28.7352C39.2073 28.6331 39.2216 28.5311 39.235 28.4291C39.4765 28.3227 39.6858 28.0832 39.7341 27.6308V27.551C39.9111 27.1784 40.0399 27.3115 40.5068 27.8171C40.5148 27.8304 40.5229 27.837 40.5309 27.8437C40.539 27.8503 40.547 27.857 40.5551 27.8703C40.8771 28.4291 41.2473 28.8815 41.6337 29.2807C43.0987 31.3297 44.5959 33.2723 46.3829 34.5763C47.4293 35.348 48.1537 36.6785 48.3147 38.6743C48.3898 39.6923 48.7032 40.5945 49.0063 41.4673L49.0714 41.6548C49.1249 41.8158 49.1652 42.0303 49.2074 42.255L49.2074 42.255L49.2075 42.2551L49.2075 42.2552L49.2075 42.2552C49.3048 42.7732 49.4122 43.3449 49.7153 43.4377L49.7352 43.4424C49.8446 43.4678 49.9776 43.4987 50.0534 43.624C50.1178 43.7304 50.1339 43.8901 50.15 44.0498C50.275 45.0138 50.6994 45.5423 51.1443 46.0963L51.1444 46.0965L51.1446 46.0967C51.2154 46.1849 51.2867 46.2736 51.3574 46.3649C52.0023 47.1906 52.5728 48.2174 53.1448 49.2471L53.1448 49.2471C54.0292 50.8391 54.9173 52.4378 56.0904 53.3104C57.0201 54.0019 57.8006 55.1124 58.5755 56.2149L58.6662 56.344C58.8412 56.59 59.0171 56.8405 59.1944 57.093L59.1945 57.0931C60.1003 58.3828 61.0413 59.7227 62.0635 60.7602C60.7433 62.0938 59.5573 63.2969 59.5438 63.3216C59.496 63.4144 59.5456 63.5209 59.6674 63.594L59.7082 63.6158C59.7545 63.6363 59.8116 63.6412 60.3478 63.646L61.5462 63.6569C61.8061 63.6614 61.8547 63.6682 61.9017 63.6845C62.0754 63.7424 61.1544 64.7417 60.054 65.6344L59.8655 65.7848C58.784 66.6337 58.5071 67.1672 58.4549 67.2679L58.4548 67.2681C58.4501 67.2772 58.4472 67.2828 58.4457 67.2846C58.4117 67.3267 58.4075 67.4279 58.4315 67.4858L58.4471 67.5142C58.4491 67.5193 58.4507 67.5262 58.4526 67.5344C58.4736 67.6255 58.5336 67.8858 59.6431 67.891L61.3727 67.8982C60.8581 68.5364 60.2516 69.1193 59.5534 69.6469L59.4449 69.5531L59.0879 69.2486C57.0473 67.4901 56.9142 66.9287 56.9724 66.8706L57.0626 66.8099C57.5007 66.5069 59.4478 65.0833 58.8523 64.5106L58.5349 64.2035C56.1068 61.8362 56.3015 61.6014 56.5109 61.5525L56.5437 61.5487C56.6492 61.5407 56.9685 61.5353 57.4239 61.5344L58.5384 61.5343L58.6118 61.4924C58.763 61.4067 58.832 61.2555 58.7781 61.1225L58.7493 61.0835C58.3158 60.5146 53.1275 53.9581 52.7171 53.4631C52.6307 53.3575 52.4169 53.3228 52.2507 53.3884C52.2032 53.4067 52.1427 53.4413 52.1168 53.465L52.0778 53.5105C52.0386 53.5579 51.9716 53.6405 51.8812 53.7528C51.3054 53.2432 50.7309 52.7321 50.1661 52.1927C49.6685 51.7089 49.2774 50.9833 48.896 50.2756L48.8223 50.1391L48.7816 50.0638C48.3308 49.2389 47.8478 48.6801 47.2844 48.0946C45.8194 46.5512 44.3705 44.7949 43.0987 42.8257C43.0504 42.2668 42.7445 41.8411 42.4226 41.7346H42.3904C42.1006 40.8032 41.5532 40.0049 40.9898 39.8718C40.6195 39.792 40.3136 40.0847 40.056 40.4573C39.836 40.7732 39.618 41.1029 39.3991 41.4339L39.3989 41.4341L39.3989 41.4342C39.0094 42.0233 38.6169 42.6169 38.2047 43.145C38.0923 43.29 37.9784 43.4389 37.8634 43.5894C37.3029 44.3227 36.7129 45.0945 36.1118 45.6464C35.5673 46.1488 35.1839 46.1078 34.6847 46.0545C34.5492 46.04 34.4052 46.0247 34.2471 46.019C33.6193 45.9924 32.6989 46.4181 32.2803 47.1632C31.9729 47.7095 31.5994 48.1345 31.2282 48.5569C30.8219 49.0193 30.4183 49.4786 30.107 50.0905C30.0729 50.1655 29.7829 50.1876 29.5752 50.2035H29.5752H29.5752C29.4883 50.2101 29.4158 50.2157 29.3825 50.2235C29.1249 50.33 28.8674 50.463 28.642 50.6759C28.3008 50.9676 28.0284 51.373 27.7494 51.7882L27.7494 51.7882L27.7493 51.7883C27.6725 51.9027 27.5951 52.0179 27.5156 52.1316C26.2312 50.0115 25.0292 48.0336 24.8402 47.7357C24.7538 47.5976 24.5401 47.5523 24.3738 47.6381C24.3263 47.6619 24.2658 47.7071 24.2399 47.7381L24.2272 47.7567C23.9074 48.2454 18.1978 57.6613 18.1681 57.75C18.12 57.9026 18.1706 58.0778 18.2939 58.1973L18.3236 58.2239C18.3674 58.2584 18.3942 58.2692 18.7875 58.277L20.0576 58.2952C20.4177 58.3027 20.4729 58.3129 20.526 58.343C20.7008 58.4382 19.7671 60.0909 18.6575 61.5565L18.4899 61.7747C17.3865 63.1897 16.9124 64.3615 16.8407 64.5387C16.8357 64.5512 16.8326 64.5588 16.8315 64.5611C16.7926 64.6397 16.7926 64.8445 16.8293 64.9255C16.8596 64.988 16.9344 65.0815 16.9903 65.1279L17.0268 65.155C17.0607 65.1766 17.1841 65.2064 18.1903 65.2154L19.997 65.228C19.3608 66.5171 18.5841 67.6682 17.6672 68.6811L17.4277 68.9476C17.1168 69.2963 16.839 69.6187 16.5939 69.9129C16.4281 69.7615 16.2555 69.6097 16.078 69.4596L15.9112 69.3177C13.7393 67.4583 13.6506 66.9008 13.7201 66.867L13.7274 66.8649C13.7969 66.85 14.2588 66.843 15.5058 66.8361L17.244 66.827L17.3239 66.7814C17.4858 66.6867 17.5463 66.499 17.4556 66.3569C17.4395 66.3298 17.1244 66.0182 16.6908 65.5976L15.9427 64.8749C13.4178 62.4184 13.0427 61.6018 13.2537 61.5525L13.2865 61.5487C13.3974 61.5403 13.7437 61.5348 14.2361 61.5343L15.2812 61.5343L15.3546 61.4924C15.5058 61.4067 15.5749 61.2555 15.5209 61.1225L15.4922 61.0835C15.3601 60.9101 14.7867 60.1811 14.0416 59.2371ZM28.5366 53.8183C29.1892 54.8971 29.7979 55.9052 30.2342 56.6302C30.4402 56.1949 30.6822 55.8336 30.9602 55.5119C30.9824 55.4384 31.0123 55.3776 31.0446 55.312C31.0591 55.2825 31.074 55.2521 31.089 55.2192C31.4459 54.578 31.8887 54.1609 32.3293 53.7461L32.3293 53.746C32.803 53.3 33.274 52.8564 33.6326 52.1395C33.7119 51.9793 33.6128 51.2055 33.5199 50.4809L33.5199 50.4808L33.5199 50.4807C33.4431 49.8813 33.3706 49.3157 33.4071 49.1591C33.3829 49.1325 33.3588 49.0992 33.3347 49.066L33.3346 49.0659C33.3105 49.0327 33.2863 48.9994 33.2622 48.9728C33.1645 49.0132 33.1986 49.5232 33.2312 50.0106C33.263 50.4869 33.2934 50.9417 33.1979 50.9154C32.9696 51.0631 32.778 51.312 32.5853 51.5623L32.5853 51.5623C32.4656 51.7178 32.3455 51.8739 32.2159 52.0064C31.6491 52.5871 30.9436 52.8126 30.237 53.0384C29.6439 53.228 29.05 53.4179 28.5366 53.8183ZM30.3524 56.8265C30.6539 57.3279 30.8521 57.6596 30.8933 57.7327L30.9012 57.7476C30.9552 57.9215 30.8861 58.1191 30.735 58.2311L30.6615 58.2858L29.6164 58.2859C29.0537 58.2866 28.6817 58.2959 28.634 58.3096C28.4443 58.3677 28.3955 58.4274 30.2046 60.7268L31.1457 61.9151C31.5891 62.4724 31.3604 63.1412 30.4598 63.9215C29.6463 64.7281 29.1977 65.1693 29.1139 65.2451L29.0958 65.2607C29.0368 65.3348 29.1675 66.0708 31.2273 68.3879L31.5881 68.7902L31.7162 68.9359C32.547 68.1039 33.2573 67.1688 33.847 66.1306L32.1175 66.1202C30.9165 66.1124 30.4226 66.1045 30.3503 66.0877L30.3426 66.0851C30.2864 66.054 30.1936 65.9568 30.159 65.8947C30.1223 65.8243 30.1223 65.6464 30.1612 65.5781C30.1662 65.5691 30.2528 65.4695 30.402 65.3005L32.3988 63.0643C33.5553 61.7621 34.5565 60.234 34.3761 60.1486C34.327 60.1244 34.2762 60.1151 33.9855 60.1086L32.6375 60.0913C32.3121 60.0856 32.2376 60.0783 32.1967 60.0589L32.1736 60.0451C32.029 59.9417 31.9663 59.7761 32.0182 59.6333C32.0422 59.5709 35.8014 54.1792 37.3926 51.9161C37.2658 51.8552 37.1324 51.7817 36.9972 51.7071C36.416 51.3866 35.7999 51.0468 35.516 51.6073C35.0653 52.5121 33.9707 54.6143 33.1979 54.6409C32.7218 54.6561 31.5633 55.7193 30.7861 56.4325L30.7858 56.4328C30.6207 56.5843 30.4728 56.72 30.3524 56.8265ZM38.5188 50.8241C38.5905 50.843 38.6525 50.88 38.6902 50.9324C39.0964 51.4887 44.1814 58.7865 44.7074 59.5645L44.7512 59.6313C44.8052 59.7823 44.7361 59.9541 44.585 60.0513L44.5116 60.0989L43.3971 60.0991C42.8733 60.1003 42.5297 60.1082 42.484 60.1196L42.4775 60.1214C42.2673 60.1822 42.0319 60.5009 44.5108 63.2416L44.7512 63.5057C45.3674 64.1786 43.3258 65.8631 42.9947 66.1219L42.948 66.1571C42.8841 66.2087 42.9933 66.8379 45.0695 68.8684L45.47 69.2569L45.6288 69.4147C46.509 68.6574 47.2573 67.8009 47.8739 66.8452L46.1443 66.8361C44.8833 66.8288 44.4018 66.8215 44.3694 66.8051L44.3434 66.7901C44.2879 66.7539 44.2155 66.6843 44.1859 66.6375C44.1492 66.5755 44.1492 66.4188 44.188 66.3587C44.1919 66.3526 44.2433 66.3 44.3339 66.2092L46.4277 64.1432C47.5833 62.9971 48.5833 61.6532 48.4029 61.578C48.3559 61.5576 48.3073 61.5492 48.0474 61.5435L46.5091 61.5246C46.3032 61.5196 46.2519 61.5123 46.2189 61.4969L46.2004 61.4869C46.0558 61.3958 45.9932 61.25 46.045 61.1243C46.0494 61.1142 46.1816 60.9435 46.4041 60.6596C46.0559 60.4095 45.7762 60.0513 45.6101 59.4043C45.4904 58.9323 45.3443 58.4777 45.199 58.0256L45.1989 58.0254C45.0903 57.6874 44.9821 57.3508 44.8857 57.0093C44.748 56.5146 44.6348 55.9979 44.5213 55.4796L44.5213 55.4795C44.3295 54.6037 44.1367 53.7235 43.8232 52.9378C43.4349 51.9623 43.3762 50.9125 43.3148 49.8123L43.308 49.6913L43.3053 49.6565C43.289 49.4478 43.2683 49.1828 43.4207 49.1325C43.5656 49.0792 43.7427 49.4252 43.9358 49.9308C44.2133 50.6951 44.499 51.8162 44.6798 52.5255C44.7508 52.804 44.8056 53.0191 44.8374 53.1241C45.3203 54.7474 45.755 56.3706 46.0931 58.0471C46.164 58.399 46.2871 58.7114 46.4113 59.0265C46.555 59.3913 46.7002 59.7596 46.7675 60.1971C47.5113 59.2523 48.7098 57.738 49.7841 56.3846L49.7604 56.302L49.7198 56.1595C49.6182 55.8023 49.5195 55.4551 49.4094 55.1732C49.322 54.9538 49.2351 54.7345 49.1484 54.5156L49.1469 54.5119L49.1469 54.5118L49.1469 54.5118L49.1468 54.5117C48.771 53.5629 48.3978 52.6208 47.9927 51.7137C47.5259 50.6493 46.9141 50.0106 46.2702 49.4784L46.1901 49.4122C45.1222 48.5303 44.0619 47.6546 43.308 46.019L43.2941 45.99C42.9748 45.323 42.0633 43.4189 41.7302 43.9433C41.2311 44.7416 40.8286 45.5666 40.732 46.8173C40.6515 47.6955 40.5549 48.5736 40.0559 49.0792C39.9372 49.1913 39.7888 49.2837 39.635 49.3795L39.6349 49.3796C39.3506 49.5566 39.0478 49.7451 38.8807 50.0905C38.829 50.2002 38.7749 50.3057 38.7209 50.4109L38.7207 50.4113C38.6512 50.5467 38.5819 50.6816 38.5188 50.8241ZM51.0251 54.8238L51.1182 54.7068C51.0802 54.6845 51.0418 54.6625 51.0032 54.6409C51.0105 54.7027 51.0177 54.7636 51.0251 54.8238ZM63.1341 59.6799C62.9355 59.3749 62.7348 59.0767 62.53 58.7922C62.1758 58.3132 62.0309 57.6746 61.9182 56.9561C61.7894 56.1045 61.9504 55.5989 62.2885 54.9337C62.6833 54.1806 62.8489 53.3092 63.0286 52.3641L63.0612 52.1927C63.1739 51.5541 63.3993 50.9952 63.7535 50.6227C63.9388 50.4312 64.1427 50.3254 64.3456 50.2202C64.5656 50.1061 64.7843 49.9926 64.977 49.7711C65.8785 48.7333 66.3776 46.2585 66.442 44.5288C66.4696 43.7532 66.506 42.9777 66.5425 42.2022L66.5425 42.2016C66.5911 41.1678 66.6397 40.134 66.6673 39.1001C66.6834 38.5945 66.7961 38.0623 67.0859 37.8228C67.2402 37.674 67.4253 37.6101 67.6003 37.5497C67.6443 37.5345 67.6877 37.5195 67.7299 37.5035C68.2705 37.2753 68.2769 36.6124 68.2835 35.9322V35.932C68.286 35.667 68.2886 35.3995 68.3228 35.1539C68.2772 35.5231 68.7607 35.1874 68.7924 35.1351C68.9285 35.0038 69.0586 34.8131 69.1912 34.6189L69.1912 34.6188C69.435 34.2616 69.687 33.8922 69.9998 33.8578C70.406 33.8098 70.6814 34.4316 70.9086 34.9445L70.9094 34.9463C70.9341 35.002 70.9582 35.0564 70.9818 35.1085C71.4004 36.0399 71.8512 36.918 72.4307 37.6099C73.6703 39.1267 74.6201 41.0427 75.0226 43.5442C75.1031 44.0232 75.3124 44.8481 75.4412 45.3005C75.6404 45.9795 75.8227 46.6705 76.0049 47.3612L76.0049 47.3612L76.005 47.3614C76.2941 48.457 76.5829 49.5515 76.9384 50.5961C77.0189 50.8622 77.7433 52.8314 78.1458 52.8846C78.2746 52.9112 78.3551 52.858 78.3551 52.5919C78.3325 51.9012 78.096 51.4069 77.8568 50.9069C77.755 50.6942 77.6527 50.4805 77.5662 50.2501C77.5324 50.1524 77.4942 49.908 77.4469 49.6054V49.6054L77.4468 49.6052C77.404 49.3314 77.3537 49.01 77.2925 48.7067C76.8418 46.3117 76.2944 43.9965 75.57 41.7612C75.4752 41.4739 75.4191 41.1353 75.3619 40.7894V40.7893L75.3619 40.7893C75.3025 40.4305 75.2419 40.0639 75.1353 39.7388C74.8641 38.9006 74.446 38.2481 74.033 37.6033C73.8821 37.3679 73.7319 37.1334 73.5898 36.8914C72.5434 35.0819 71.6741 33.2191 71.8995 30.5048C72.0547 30.4258 72.1479 30.5812 72.2449 30.7427C72.2786 30.7989 72.3128 30.8559 72.3502 30.9039C73.3322 32.0482 74.3626 33.1393 75.4573 33.9642C75.5493 34.0308 75.6393 34.094 75.7277 34.156L75.7278 34.156C76.1341 34.4412 76.5067 34.7027 76.8901 35.1617C77.248 35.5984 77.5654 36.1023 77.8827 36.6061C78.1648 37.054 78.4469 37.5019 78.7575 37.9026C78.7901 37.9438 78.8229 37.9848 78.8556 38.0257L78.9743 38.1735C79.5175 38.8489 80.0606 39.5243 80.4157 40.5105C80.652 41.185 80.9956 41.7293 81.3369 42.2697C81.5072 42.5394 81.677 42.8082 81.8324 43.0918C82.1543 43.6852 82.3143 44.4203 82.4736 45.1518C82.5214 45.3715 82.5692 45.5909 82.6212 45.8061C82.7339 46.2851 82.8627 46.7375 83.072 47.1366C83.4371 47.8741 83.553 48.7806 83.6693 49.6897L83.6693 49.6898L83.6693 49.6899L83.6694 49.6899L83.6694 49.69L83.6694 49.6901C83.7377 50.2242 83.8061 50.7592 83.9252 51.2613C83.9862 51.5269 84.03 51.8144 84.0743 52.1056C84.1588 52.6608 84.2453 53.2291 84.4565 53.6829C84.7785 54.3748 85.0522 55.1732 85.2615 55.9715C85.3204 56.1965 85.3692 56.4363 85.4182 56.6772C85.543 57.291 85.6692 57.9119 85.9698 58.3132C86.0583 58.433 86.1509 58.5461 86.2435 58.6592C86.336 58.7723 86.4286 58.8854 86.5172 59.0051C86.6299 59.5107 86.8391 59.9897 87.0806 60.4953C87.1007 60.139 87.0983 59.7894 87.0777 59.4459L87.0839 59.4499C87.1271 59.474 87.2014 59.4816 87.6163 59.488L88.9127 59.5056C89.1725 59.5123 89.2212 59.5224 89.2681 59.5467C89.4457 59.635 88.4799 61.1892 87.3476 62.5416L87.232 62.6784C86.0509 64.0606 85.8911 64.7578 87.0064 65.3783L88.7391 65.8297C88.1029 67.0062 87.3263 68.0566 86.4093 68.981L86.2282 69.1646L86.1403 69.2544L85.9765 69.1124C84.0622 67.4401 83.9585 66.9139 84.0202 66.8686L84.0229 66.867C84.0574 66.8506 84.5023 66.8433 85.8086 66.8361L86.7101 66.7163L86.79 66.6707C86.9519 66.576 87.0124 66.3883 86.9217 66.2462C86.9172 66.2387 86.8987 66.2331 86.8661 66.2233C86.7414 66.1859 86.4115 66.0869 85.8841 65.5798L85.7119 65.4121C83.1316 62.8695 83.3431 61.6024 83.5565 61.5525L83.5893 61.5487C83.6949 61.5407 84.0141 61.5353 84.4696 61.5344L85.584 61.5343L85.6575 61.4924C85.8086 61.4067 85.8777 61.2555 85.8237 61.1225L85.7618 61.0402C85.1474 60.244 80.1646 53.9478 79.7627 53.4631C79.6763 53.3575 79.4626 53.3228 79.2963 53.3884C79.2488 53.4067 79.1883 53.4413 79.1624 53.465L79.1055 53.5323C78.4856 54.2874 73.1193 61.0586 73.0906 61.1243C73.0388 61.25 73.1014 61.3958 73.2461 61.4869L73.2645 61.4969C73.2975 61.5123 73.3488 61.5196 73.5548 61.5246L75.093 61.5435C75.3529 61.5492 75.4016 61.5576 75.4485 61.578C75.6289 61.6532 74.4285 63.5853 73.463 64.1737L73.4124 64.2034C72.4388 64.7531 72.2625 66.133 73.2461 66.5104L74.9195 66.8452C74.2833 67.8314 73.5066 68.712 72.5897 69.487L72.3723 69.6719L72.2034 69.5522C70.4826 68.3228 70.4119 67.9407 70.4761 67.9157L70.489 67.9131C70.5753 67.9018 71.0445 67.8964 72.2618 67.891L72.3755 67.8798C73.0099 67.8082 73.1374 67.6187 72.758 67.3112L72.5439 67.144C69.9552 65.097 69.7964 63.704 70.0097 63.6641L70.0425 63.6611C70.1481 63.6547 70.4673 63.6504 70.9227 63.6496L72.0372 63.6495L72.1106 63.616C72.2618 63.5475 72.3309 63.4265 72.2769 63.3201L72.269 63.311C72.0329 63.0544 66.6349 57.5968 66.2159 57.1926C66.1295 57.1081 65.9157 57.0804 65.7495 57.1329C65.702 57.1474 65.6415 57.1751 65.6156 57.1941L65.5375 57.2686C65.2535 57.5469 64.245 58.56 63.1341 59.6799ZM87.0217 58.8298C86.8742 57.6125 86.5255 56.468 86.188 55.3607C86.164 55.2818 86.14 55.2032 86.1162 55.1248C86.1049 55.0876 86.0937 55.0505 86.0825 55.0135C85.5264 53.1752 85.3443 51.1824 85.1607 49.173C85.1157 48.6808 85.0706 48.1876 85.02 47.6955C85.358 47.6955 85.5834 47.9616 85.7766 48.2277C85.9591 48.4571 86.1441 48.6825 86.3291 48.908C87.3028 50.0943 88.2775 51.2819 88.8998 53.0709C89.0608 53.5233 89.3505 53.7628 89.6242 53.949C89.7695 54.0451 89.9082 54.1506 90.0402 54.2678C88.7355 56.2306 87.4078 58.2352 87.0217 58.8298ZM91.1059 52.6661C91.9896 51.3395 92.7192 50.2486 92.9251 49.9494L92.982 49.869C93.0014 49.8479 93.0401 49.8195 93.0783 49.7974L93.0281 49.649C92.7721 48.8922 92.516 48.1348 92.1517 47.4826C91.7654 46.7907 91.54 45.9658 91.3629 45.0876C91.2019 44.2627 91.0409 43.4643 90.6867 42.7192C90.4321 42.1788 90.1786 41.6366 89.9249 41.0943L89.9249 41.0942L89.9248 41.0941L89.9247 41.0939L89.9246 41.0938C88.767 38.6187 87.6077 36.14 86.3401 33.8045C85.7122 32.6603 84.8912 31.8619 83.9091 31.516C83.8848 31.8376 83.9156 32.0985 83.946 32.356L83.9461 32.3565C83.9559 32.4397 83.9657 32.5226 83.9735 32.607C83.9798 32.6634 83.9889 32.7238 83.9984 32.7856C84.0378 33.0447 84.0812 33.3297 83.9252 33.4586C83.7425 33.6096 83.603 33.2607 83.5067 33.0198L83.4906 32.9796L83.335 32.6004C82.7408 31.1527 82.1374 29.6824 81.5748 28.1896C80.8665 26.2736 80.0937 24.4109 79.1922 22.7078C78.3068 21.0313 76.8096 20.5257 75.5056 20.2862C75.3448 20.2582 75.1851 20.2376 75.0263 20.217C74.6634 20.1702 74.3049 20.1239 73.9471 19.9918L72.6798 17.5785C73.0826 17.3288 73.5012 17.1643 73.9601 17.1993C74.3626 17.2259 74.3787 16.88 74.1372 16.401C73.9831 16.1078 73.8372 15.7877 73.69 15.4648C73.3295 14.6741 72.9612 13.8663 72.4468 13.3939C72.2806 13.2344 72.1108 13.0807 71.941 12.9271L71.9406 12.9267C71.6007 12.6192 71.2609 12.3117 70.9496 11.9569C69.7422 10.5732 68.5187 9.13617 67.4079 7.53951L72.6798 17.5785C72.5512 17.6583 72.4241 17.7467 72.2979 17.8401L65.5565 5.35741C65.315 5.59691 65.0736 5.96946 65.0092 6.50168C64.8643 7.77901 64.4457 8.81683 63.9305 9.77483C63.5698 10.4564 63.473 11.247 63.374 12.056V12.056C63.3184 12.5104 63.262 12.9707 63.1578 13.4205C62.8841 14.618 62.4012 15.6559 61.7894 16.4276C60.8235 17.5985 60.7108 19.7539 60.7913 21.5901C60.8074 22.0159 60.8074 22.4417 60.6625 22.761C60.5329 23.0546 60.4133 23.3671 60.2935 23.6802L60.2935 23.6802C60.0115 24.4172 59.7282 25.1573 59.3102 25.6616C58.6662 26.4599 58.4087 27.4977 58.2316 28.6686C58.0405 29.9032 57.9759 31.1687 57.9115 32.4318V32.4319C57.8565 33.5102 57.8016 34.5867 57.6681 35.6407C57.3938 37.8071 56.7156 39.6873 56.0021 41.6651L56.0021 41.6653L56.002 41.6654L55.8811 42.0007C56.0421 42.187 56.1065 42.6128 55.8811 42.7724C55.366 43.1716 54.8508 43.4377 54.3035 43.624C54.223 43.8369 54.3035 44.1828 54.4484 44.7949C54.6269 45.5881 54.968 46.1 55.3106 46.6143C55.4622 46.8419 55.6141 47.0699 55.7524 47.3229C56.0743 47.9084 56.348 47.9616 56.6861 47.5624C56.9812 47.2112 57.3044 46.9351 57.6272 46.6593C58.1849 46.183 58.7413 45.7077 59.1492 44.8481C59.278 44.5554 59.5034 44.3691 59.7127 44.2094C60.2922 43.7304 60.8235 43.1716 61.2903 42.4265C61.5479 42.0539 61.7894 41.6282 61.8699 41.0693C62.1275 39.4993 62.707 38.222 63.351 37.0245C63.5336 36.6951 63.6991 36.3155 63.8658 35.9331L63.8659 35.9329L63.8659 35.9328C64.1841 35.203 64.5066 34.4631 64.9609 34.044C65.2642 33.7721 65.5642 33.5626 65.8568 33.3583C66.4803 32.9228 67.0699 32.5111 67.585 31.5692C67.852 31.0727 68.0886 30.5395 68.3245 30.0077L68.3246 30.0076L68.3246 30.0075L68.3247 30.0073C68.6577 29.2567 68.9896 28.5088 69.4041 27.8703C69.4331 27.8224 69.4447 27.7458 69.4563 27.6691C69.464 27.618 69.4717 27.5669 69.4846 27.5243C69.8549 26.3801 70.7886 25.5817 71.4004 25.9277C71.9799 26.2204 72.479 26.7792 72.8976 27.4711L72.9298 27.5243C73.0425 27.6574 73.1552 27.8437 73.2517 28.0566C73.2598 28.0699 73.2638 28.0832 73.2678 28.0965C73.2719 28.1098 73.2759 28.1231 73.2839 28.1364L73.3322 28.2162C74.0492 29.7963 75.0972 30.5424 76.133 31.2799L76.1656 31.3031C77.5179 32.2877 78.6609 33.8045 79.7396 35.2948C80.8062 36.7569 81.7234 38.4585 82.6396 40.1581L82.6397 40.1582C83.4242 41.6137 84.208 43.0679 85.0844 44.3691C85.4523 44.7667 85.8823 44.9999 86.309 45.2312C86.3678 45.2631 86.4265 45.2949 86.485 45.3271C87.2255 45.7263 87.7729 46.3649 88.127 47.6156C88.5778 49.2389 89.3183 50.5428 90.2038 51.5807L90.2947 51.687L90.2948 51.6871L90.2948 51.6872C90.569 52.0079 90.8423 52.3274 91.1059 52.6661ZM73.293 19.6828L91.1059 52.6661L73.9471 19.9918C73.8656 19.9616 73.784 19.9271 73.7025 19.887C73.633 19.8532 73.5634 19.8181 73.4938 19.783C73.427 19.7492 73.3601 19.7154 73.293 19.6828ZM73.293 19.6828L72.2979 17.8401C72.1357 17.9601 71.9748 18.0883 71.8136 18.2167C71.5974 18.3891 71.3805 18.5619 71.1589 18.7161C70.9013 18.9024 70.6437 19.1153 70.5311 19.7539C70.7226 19.7156 70.9079 19.6841 71.0892 19.6533C71.4106 19.5987 71.7194 19.5463 72.0282 19.4612C72.4634 19.3213 72.8805 19.4816 73.293 19.6828ZM93.9512 50.4136C95.2511 52.3543 99.3321 58.5091 99.6266 58.9757L99.6433 59.0034C99.6973 59.162 99.6282 59.3424 99.4771 59.4446L99.4037 59.4945L98.2892 59.4947C97.8337 59.4958 97.5145 59.5022 97.4089 59.5118L97.3761 59.5163C97.1624 59.5759 97.0263 60.8564 99.6186 63.8865L99.8421 64.1444C100.255 64.614 100.556 64.921 100.721 65.0887L100.721 65.089C100.792 65.1609 100.837 65.207 100.855 65.2294L100.863 65.2408C100.954 65.4103 100.893 65.6341 100.731 65.7471L100.651 65.8015L99.6282 65.8188C98.3219 65.8275 97.8771 65.8362 97.8425 65.8558L97.84 65.8576C97.7783 65.9107 97.8798 66.5327 99.7708 68.508L99.9259 68.669C100.078 68.4626 100.238 68.2476 100.408 68.0245C101.325 66.8176 102.102 65.4461 102.738 63.91L101.231 63.6348C100.128 63.1495 100.05 61.6002 101.231 59.7956L101.336 59.633C102.473 57.8634 103.445 55.8223 103.267 55.7066C103.216 55.6721 103.163 55.6597 102.839 55.6508L101.57 55.629C101.412 55.6256 101.308 55.6217 101.237 55.6162C101.266 55.9418 101.296 56.2682 101.327 56.5975V56.5976C101.384 57.1998 101.442 57.8117 101.489 58.4463C101.054 57.5681 100.926 56.7964 100.845 55.9981L100.817 55.7142C100.699 54.5319 100.581 53.3547 100.298 52.2459C100.27 52.1385 100.246 52.0179 100.222 51.8961C100.163 51.5953 100.102 51.2875 99.9757 51.1549C99.3157 50.4896 98.6717 49.7711 98.1244 48.8131C97.6575 47.9882 97.0941 47.4294 96.4501 47.0568C95.8524 46.6928 95.2957 46.2046 94.7399 45.7172C94.4424 45.4564 94.1452 45.1958 93.8421 44.9545C93.712 44.9292 93.5854 44.9099 93.4608 44.8909L93.4608 44.8909L93.4607 44.8909L93.4606 44.8909C93.3233 44.87 93.1883 44.8494 93.0533 44.8215C92.9728 45.061 93.005 45.4069 93.1016 45.9658C93.1842 46.4267 93.2403 46.9013 93.2965 47.3764C93.4155 48.3825 93.5347 49.391 93.9065 50.2767C93.9233 50.3163 93.9383 50.3624 93.9512 50.4136ZM101.15 54.5105C101.289 54.2347 101.481 53.8541 101.711 53.3985C101.504 53.2395 101.294 53.0749 101.087 52.8846C101.091 53.4371 101.115 53.976 101.15 54.5105ZM102.647 51.5517C103.904 49.076 105.526 45.8923 106.386 44.2174L106.37 44.2048C106.337 44.1794 106.304 44.1543 106.27 44.1296C105.562 43.624 104.886 43.2248 104.113 43.2514C103.308 43.3047 102.874 43.7304 102.278 44.582C102.243 44.6325 102.202 44.7026 102.158 44.779C102.038 44.9843 101.892 45.2351 101.763 45.2739C101.505 45.3537 101.344 44.8747 101.553 44.582C101.714 44.3425 101.795 44.0298 101.875 43.7171C101.956 43.4044 102.036 43.0918 102.197 42.8523C102.407 42.5329 102.342 42.0806 102.181 41.7346C101.634 40.5903 100.974 39.4727 100.185 38.9937C98.5269 37.9825 97.4321 36.0931 96.6111 33.6715C96.2891 32.7933 95.8545 32.2079 95.3071 31.7555C94.887 31.4182 94.4759 31.0662 94.0604 30.7103L94.0599 30.7099C93.9182 30.5886 93.776 30.4669 93.6328 30.3451C93.343 30.1056 93.1016 29.7863 93.0533 29.2541C92.9889 28.4025 92.7152 27.7372 92.4254 27.072C92.2224 26.6138 92.0298 26.1431 91.8375 25.6732C91.2369 24.2052 90.6393 22.7448 89.7369 21.6965C89.6981 21.6516 89.6602 21.5974 89.6224 21.5433L89.6223 21.5432C89.5032 21.3728 89.3844 21.2028 89.2379 21.324C89.0447 21.4837 89.0286 21.8296 89.0286 22.2022C89.0286 23.3996 88.9642 24.5705 88.7388 25.7414C88.5295 26.8325 88.5295 27.9767 88.7227 29.0944L88.7421 29.2095L88.7693 29.3726C88.9776 30.6212 89.1937 31.9173 89.8979 32.6603C90.13 32.9006 90.3631 33.137 90.5958 33.3729L90.596 33.3732L90.5962 33.3734L90.5964 33.3736L90.5965 33.3737C91.7031 34.4959 92.8012 35.6094 93.7455 37.1043C94.1501 37.7385 94.588 38.3127 95.0263 38.8876C95.5996 39.6395 96.1737 40.3925 96.6755 41.2822C96.9073 41.691 97.126 42.1215 97.3446 42.5521C97.8092 43.467 98.2738 44.3819 98.8649 45.0876C99.6586 46.0187 100.289 47.2022 100.919 48.3839C101.082 48.6882 101.244 48.9924 101.409 49.2921C101.534 49.5223 101.658 49.7547 101.782 49.9867C102.066 50.5205 102.35 51.0525 102.647 51.5517ZM2.14513 78.6976H8.89048L10.8112 87.7336L11.1999 90.3974L11.5886 87.8381L13.8066 78.6976H19.2715L17.9453 81.6487V96.4301L19.2257 99.3811H13.8066L15.0871 96.4301V87.2896L15.2929 84.5997L11.9545 99.3811H9.37066L6.03228 83.973L6.2838 86.8457V96.4301L7.58714 99.3811H2.14513L3.44847 96.4301V81.6487L2.14513 78.6976ZM31.8933 78.6976H22.3126L21.0321 81.6487V96.4562L22.3126 99.3811H31.8933L33.1966 96.4562V81.6226L31.8933 78.6976ZM34.843 78.6976H41.3139L40.0106 81.6487V95.4377L40.445 96.4301H43.9892L44.4008 95.4377V81.6487L43.1203 78.6976H48.8138L47.5105 81.6226V96.4562L46.23 99.3811H37.4268L36.1234 96.4562V81.6487L34.843 78.6976ZM54.4617 78.6976H50.3001L51.6035 81.6487V96.4301L50.3001 99.3811H55.7421L54.4388 96.4301V88.8305L54.1644 87.0285L60.4067 99.3811H63.242V81.6487L64.5683 78.6976H59.1034L60.4067 81.6487V89.1438L60.521 90.9719L54.4617 78.6976ZM65.8716 78.6976H77.4873V84.4169L75.1779 83.1112V81.6487H73.6002V96.4301L74.9035 99.3811H68.4325L69.7359 96.4301V81.6487H68.181V83.1112L65.8716 84.4169V78.6976ZM87.1366 78.6976H82.2205L83.2723 81.7793L79.5681 96.4562L78.0132 99.3811H83.4324L82.4034 96.4301L82.6092 95.4899H87.0909L87.3195 96.4301L86.2906 99.3811H92.7616L91.2067 96.4301L87.1366 78.6976ZM93.3561 78.6976H99.8499L98.5465 81.6487V96.4301L99.827 99.3811H93.3561L94.6594 96.4301V81.6487L93.3561 78.6976ZM105.475 78.6976H101.313L102.617 81.6487V96.4301L101.313 99.3811H106.755L105.452 96.4301V88.8305L105.178 87.0285L111.42 99.3811H114.255V81.6487L115.581 78.6976H110.117L111.42 81.6487V89.1438L111.534 90.9719L105.475 78.6976ZM118.508 78.6976H127.563V83.1112L124.979 81.6487H120.818L120.315 82.7194V84.208L120.772 85.2004L126.786 87.5508L128.089 90.4757V96.4301L126.786 99.3811H117.228V94.9415L119.812 96.4301H124.499L124.979 95.3593V92.6694L124.545 91.7032L118.508 89.3266L117.228 86.4017V81.6487L118.508 78.6976ZM28.8522 81.5416L29.3095 82.6279V95.5304L28.8979 96.5371H25.3537L24.9193 95.5304V82.6279L25.3995 81.5416H28.8522ZM86.4278 92.4004L84.8958 85.9369L83.3181 92.4004H86.4278ZM45.3472 119.973L44.6636 121.55H39.65V119.178L41.0053 119.973H43.4641L43.716 119.401V117.964L43.4881 117.448L40.3217 116.178L39.65 114.616V112.077L40.3217 110.5H45.0714V112.858L43.716 112.077H41.5331L41.2692 112.649V113.444L41.5091 113.974L44.6636 115.23L45.3472 116.792V119.973ZM50.0018 119.973L50.6735 121.55H47.2792L47.9628 119.973V112.077L47.2792 110.5H50.6855L50.0018 112.077V119.973ZM58.6985 121.55L59.3822 119.987V117.281L58.9504 116.36L57.8829 115.704L58.9984 115.02L59.3822 114.128V112.063L58.6985 110.5H52.6055L53.2891 112.077V119.987L52.6055 121.55H58.6985ZM55.3281 114.923H57.2472L57.4871 114.379V112.649L57.2352 112.077H55.0883L55.3281 112.649V114.923ZM57.2592 119.973H55.1242L55.3281 119.443V116.499H57.2592L57.4871 117.016V119.443L57.2592 119.973ZM67.5271 119.178V121.55H61.4221L62.1057 119.973V112.077L61.4221 110.5H67.5271V112.858L66.1717 112.077H63.9528L64.1327 112.537V114.923H64.8164L66.1717 114.128V117.281L64.8164 116.499H64.1327V119.555L63.9768 119.973H66.1717L67.5271 119.178ZM72.1577 121.55V117.127H74.2447L74.4606 117.643V120.001L75.1443 121.55H77.1713L76.4996 119.987V117.922L76.0678 116.988L75.0003 116.332L76.1158 115.662L76.4996 114.755V112.063L75.8159 110.5H69.435L70.1187 112.077V119.987L69.435 121.55H72.1577ZM72.1577 115.551H74.2327L74.4606 115.007V112.649L74.2207 112.077H71.9178L72.1577 112.649V115.551ZM82.4256 121.55L81.7539 119.973V112.077L82.4376 110.5H79.0313L79.7149 112.077V119.973L79.0313 121.55H82.4256ZM86.2166 119.973L86.7564 121.55H83.9138L84.7294 119.987L86.6724 112.146L86.1207 110.5H88.6994L90.8344 119.973L91.65 121.55H88.2557L88.7954 119.973L88.6754 119.471H86.3246L86.2166 119.973ZM88.3276 117.881H86.6964L87.524 114.337L88.3276 117.881Z" fill="white"/>
</svg>
