<?xml version="1.0" encoding="UTF-8"?>
<svg width="801px" height="712px" viewBox="0 0 801 712" version="1.1" xmlns="http://www.w3.org/2000/svg" xmlns:xlink="http://www.w3.org/1999/xlink">
	<!-- Generator: Sketch 63.1 (92452) - https://sketch.com -->
	<title>map-frame</title>
	<desc>Created with Sketch.</desc>
	<g id="Page-1" stroke="none" stroke-width="1" fill="none" fill-rule="evenodd">
		<path d="M801.000211,686.963896 C800.938924,686.436487 800.866117,685.923965 800.770139,685.417629 C800.525727,684.12739 800.269013,683.105252 800.025666,681.823391 L799.80431,680.613448 C799.364625,678.315615 798.851202,676.637301 798.435403,674.124532 C798.220345,672.819589 798.116524,671.098814 797.879219,670.048294 C797.668982,669.117598 797.431714,668.747536 797.208862,667.897057 L796.984868,666.955955 C796.731524,665.920304 796.466307,665.004974 796.224264,663.890164 C795.954618,662.651334 795.782596,660.915969 795.572061,659.288837 L795.48152,658.617823 L795.386263,657.987517 C795.326415,657.620685 795.272495,657.349862 795.216182,657.110633 L795.12888,656.767436 L794.825503,655.69466 C794.678249,655.143379 794.593557,654.704732 794.518692,654.196908 L794.463561,653.800228 L794.239306,652.04445 C793.476716,646.299416 792.094909,642.488543 791.895919,634.746425 L791.879098,633.921293 C791.828946,630.522987 792.067049,629.342373 792.306225,626.99558 L792.361308,626.431771 L792.417496,625.795114 L792.589295,623.661586 C792.631704,623.155561 792.676893,622.660501 792.732034,622.154909 L792.834339,621.267269 C792.886602,620.79022 792.925032,620.343391 792.957837,619.891803 L792.989072,619.437334 L793.134355,617.111905 C793.371989,613.613817 793.782966,610.98557 794.006533,607.376588 L794.122199,605.383144 L794.278084,602.998954 C794.302109,602.600222 794.32397,602.199437 794.341891,601.794549 C794.430881,599.838501 794.341891,597.685481 794.439532,595.661041 L794.496625,594.537249 C794.719143,590.403061 795.084808,586.166003 795.534596,583.374874 C795.712575,582.264168 796.054937,581.328548 796.058645,579.254864 C796.061117,577.61069 795.800328,576.631298 795.765721,575.077403 C795.716283,572.858726 796.087072,571.975085 796.14269,570.040923 C796.183572,568.607821 796.123529,567.540562 796.008692,566.4743 L795.972643,566.154086 L795.89179,565.505081 L795.795129,564.812412 L795.639812,563.795964 C795.579655,563.376143 795.530014,562.936306 795.48563,562.226076 L795.440663,561.368657 C795.370213,559.79014 795.394932,558.753298 795.252796,557.180253 C795.029087,554.71536 794.073687,551.44069 794.144137,548.855425 C794.192339,547.099085 794.607623,546.694197 794.73122,545.307182 C794.870884,543.742344 794.864704,541.44433 794.9883,539.729027 L795.056567,538.852783 C795.549595,532.973274 796.554726,529.199581 796.108083,520.68287 L796.061098,519.917542 C796.009377,519.189726 795.944011,518.568001 795.870071,517.994363 L795.79346,517.434604 L795.712261,516.894013 L795.476506,515.413853 C795.19965,513.635628 795.134144,512.133712 794.91785,510.144835 C794.602679,507.266847 794.131777,505.376457 793.817842,502.348003 L793.648933,500.689323 C793.393686,498.128018 793.133427,495.270683 792.914908,492.573012 L792.775925,490.80322 L792.597521,488.482919 L792.448138,486.619769 C792.345784,485.373924 792.238132,484.131406 792.126562,482.957114 L792.04217,482.090202 L791.908278,480.80686 C791.687041,478.790626 791.391646,476.492612 791.125913,474.780045 C790.899732,473.321901 790.617932,472.602403 790.392987,471.261895 C790.338055,470.935887 790.284649,470.576949 790.232425,470.199447 L790.078952,469.025614 L789.842983,467.130942 C789.621746,465.404696 789.515453,463.366577 789.296687,461.654009 C789.155152,460.552839 788.958406,459.461959 788.76822,458.499567 L788.430875,456.843221 L788.275656,456.028175 C788.093225,455.048405 787.90722,454.001123 787.729485,453.238902 C787.375999,451.726043 786.681388,451.901129 786.465094,449.22832 C786.372503,448.078845 786.331632,446.207817 786.304519,444.367563 L786.257388,440.950999 L786.158575,436.359101 C786.129221,435.059287 786.093687,433.765971 786.037451,432.523949 C785.941045,430.398286 785.790258,428.609118 785.729696,426.363083 L785.658937,423.604099 L785.658937,423.604099 L785.569098,419.878935 L785.519011,418.377574 C785.42597,416.028938 785.280145,414.382732 785.007081,412.452999 L784.890892,411.663648 L784.778004,410.94177 C784.43317,408.783278 783.659456,407.166461 783.495073,403.839813 C783.351701,400.918052 783.954852,397.990821 784.136538,395.815915 L784.307391,393.757716 C784.509818,391.278133 784.686631,388.875757 784.813847,385.948134 C784.975758,382.216598 785.012837,378.993907 785.31812,375.836874 L785.539183,373.524326 C785.755574,371.207846 785.953714,368.849817 786.095541,366.18248 C786.362509,361.187036 785.368794,362.574051 785.220479,357.863123 C785.173687,356.381542 785.359968,354.030382 785.549764,352.106295 L785.636776,351.253302 L785.724859,350.438868 L785.831045,349.508202 C786.148687,346.799828 786.565207,344.4854 786.897681,341.774291 C787.08802,340.228603 787.432854,339.572028 787.572518,338.001718 C787.730721,336.223493 787.738137,334.368668 787.977914,332.806566 L788.064979,332.260584 C788.221982,331.309846 788.36427,330.588556 788.486448,329.324407 L788.661487,327.372602 L788.71168,326.894108 C788.744913,326.603965 788.778839,326.364337 788.82038,326.132059 L788.889268,325.78376 L788.974767,325.414114 L789.087809,324.968697 C789.557017,323.163469 789.516021,320.365105 789.30562,317.15341 L789.274447,316.691848 L789.20607,315.753354 L789.093045,314.353656 L788.957174,312.906871 C788.906526,312.389836 788.853057,311.863723 788.804374,311.405622 L788.735893,310.779114 L788.687357,310.368103 C788.483423,308.754022 788.233758,308.491391 787.990273,307.227484 C787.764931,306.063157 787.586276,304.169584 787.440214,302.191595 L787.322672,300.490541 L787.143638,297.589505 C787.018368,295.536852 787.042269,293.347472 787.106092,291.244092 L787.13557,290.348558 L787.210537,288.325015 C787.321228,284.993992 787.285919,281.48635 786.853187,278.543348 C786.552419,276.501527 786.37329,274.755489 786.190417,272.709802 L785.916326,269.556472 C785.573964,265.649849 785.051152,263.557015 784.666767,260.03613 C784.482608,258.359127 784.342944,256.452323 784.164966,254.772584 C783.988223,253.10926 783.758333,251.932895 783.584063,250.231271 C783.472826,249.145186 783.432039,247.941464 783.301027,246.858115 C783.191026,245.93891 783.024171,245.643451 782.929002,244.53548 C782.846192,243.577974 782.79181,241.91465 782.830125,240.951673 C782.90799,239.028454 783.378893,239.14609 783.305971,236.785155 C783.283489,236.063613 783.173921,235.014518 783.055067,234.027097 L782.9654,233.304176 L782.64076,230.812277 C782.024472,226.171885 781.34127,222.574879 780.652872,218.643689 L780.377383,217.050125 L779.94525,214.45937 L779.802786,213.640189 L779.514034,212.029528 C778.685938,207.449915 777.79728,203.297075 776.991432,198.588883 C776.696037,196.862637 776.299292,195.817588 776.03974,193.86154 C775.854345,192.466318 775.778951,190.592342 775.586141,189.156084 L775.353641,187.395127 C775.056061,185.091335 774.804518,182.90275 774.555347,180.092608 C774.388241,178.209857 774.311453,176.107871 774.260638,173.976085 L774.242675,173.175639 L774.19005,170.482871 L774.154895,168.870641 L774.11636,167.516685 C774.031803,164.799985 773.919356,162.059453 774.085681,159.815372 C774.313948,156.747934 774.858327,154.668725 775.212673,152.209463 L775.313493,151.47388 L775.399903,150.917465 C775.761743,148.723379 776.438344,145.818216 776.148505,141.937372 C775.874121,138.271493 775.075688,136.586283 775.41805,132.359579 C775.547826,130.745498 775.771536,130.050622 775.812322,128.080896 L775.830038,126.987438 C775.845458,125.671479 775.83819,124.856404 775.929662,123.737483 L775.954657,123.450957 L776.023672,122.784522 C776.620838,117.528463 777.433205,113.662125 777.986817,108.21972 L778.138758,106.658613 C778.308628,104.98522 778.510792,103.549029 778.726262,102.19849 L778.807649,101.695757 L779.476955,97.7498502 C779.874711,95.3175369 780.21935,92.6523474 780.543375,89.7234507 L780.721829,88.0544347 C780.878418,86.5130256 781.020724,84.8593594 781.157021,83.177345 L781.549666,78.2112617 C781.79552,75.1267254 782.194041,72.7157297 782.397747,69.6886627 L782.468351,68.5095178 C782.584318,66.7571741 782.916797,64.0601818 782.900575,62.2263874 C782.880799,60.0952532 782.596528,59.6000859 782.475403,57.8245967 C782.19807,53.7691747 782.610271,52.1241948 782.857279,49.6684412 L782.883073,49.4020755 L782.931474,48.8267785 C783.33687,43.4592749 780.793256,37.465289 780.953932,29.4742197 C781.02809,25.7919262 781.563262,22.8400728 781.872253,20.186414 C782.096597,18.2624 782.281909,16.204866 782.486352,14.2680163 C779.848215,13.7332601 776.733094,13.3419019 773.898075,12.8216846 C771.151641,12.3184253 768.096587,11.4467802 764.285556,11.3259979 C756.015109,11.0643031 749.811565,15.2071336 744.256407,14.5468574 C741.187196,14.1845107 739.601626,13.3028004 734.944013,13.8040467 C733.106451,14.0013243 732.593972,14.4643229 730.38833,14.4965315 C728.490424,14.5229526 725.699141,13.9814377 723.885533,13.7925607 L722.730983,13.6844804 C719.567132,13.3548774 717.059304,12.6995087 713.844604,12.2962819 L709.153132,11.7136486 C706.959152,11.4365612 704.799776,11.1458311 702.847542,10.8146865 C699.452723,10.2409709 696.392006,9.63303368 693.622921,8.92041852 L692.589326,8.64802339 C690.034242,7.96330081 687.650003,7.25962834 684.402697,6.7408726 L682.833989,6.50090662 C677.176552,5.5990783 673.167933,4.27130918 667.713006,3.29599267 C665.629113,2.92358079 664.759881,3.03631087 662.231463,2.95176331 C660.192873,2.88533309 659.473703,2.52097336 657.803192,2.30960446 C653.428717,1.75199316 651.68459,3.05241517 647.890547,3.49930942 C643.524761,4.01242566 640.352018,2.66583065 638.020631,2.13931013 L637.289293,1.98187807 C634.730951,1.4049358 632.574638,0.512791161 629.387509,0.139550387 C627.710121,-0.0560976545 625.764729,-0.0149148397 623.754182,0.0749419141 L621.323235,0.194091467 L620.015657,0.252280468 C616.17348,0.401245219 611.917923,0.413323442 608.401355,0.904504511 C605.700708,1.28134507 603.554734,1.66151823 601.352913,2.10196391 L600.244522,2.32747307 L599.021008,2.58337751 C597.534536,2.89741131 595.595044,3.02020658 594.151043,3.32216215 C592.126609,3.74489996 591.045024,4.39108489 589.258426,4.87220077 C584.385629,6.18470101 580.087601,7.63207473 575.347879,8.98080964 C574.517578,9.21633499 573.68887,9.45299267 572.833087,9.68313944 L571.179699,10.1147052 L569.714652,10.5046057 C565.14441,11.7399685 561.163596,12.9770612 555.868674,14.0816748 L553.023025,14.6628925 L552.324664,14.7961626 C551.380696,14.9704939 550.411301,15.1232429 549.726764,15.1568077 C547.283287,15.2755769 547.405036,14.5086097 545.414579,14.3817884 C544.417935,14.3193842 542.696459,14.4079578 541.705477,14.5428313 C540.55877,14.6978352 540.252982,14.9695952 539.30164,15.1487555 C538.180415,15.3621375 536.93461,15.4285677 535.810554,15.609741 C534.049438,15.8935793 532.831947,16.2680042 531.110471,16.5558685 C529.372006,16.8457459 527.398538,17.0732191 525.662905,17.3731616 C522.018924,17.9992162 519.852922,18.8507309 515.809718,19.4083422 L512.791849,19.8203531 C510.567491,20.1304583 508.703133,20.425518 506.50865,20.9342244 C503.462757,21.6390242 499.832483,21.6965316 496.385003,21.5162474 L494.290715,21.3941474 C491.83725,21.2582674 489.22452,21.1741113 486.796615,21.4072881 L484.316695,21.6460404 C481.546443,21.9225547 478.474297,22.2828787 476.82168,22.7862186 C475.513584,23.1827869 475.241772,23.5894204 473.571261,23.9215715 L473.202919,23.9904143 C472.430406,24.1292747 471.166314,24.3310022 470.122316,24.4850538 L469.331684,24.5982151 L468.435585,24.7133065 L467.56356,24.8173974 C463.817442,25.2494101 460.516375,25.4148286 458.460211,24.5737956 L458.062094,24.4140135 C457.384028,24.1498897 456.950716,24.0340712 456.09841,23.8990933 L455.587973,23.8225623 L453.97607,23.597961 C452.41379,23.3620545 451.651131,23.0798536 450.34832,22.7660882 C448.731605,22.375559 446.811933,22.3634807 444.971539,22.105812 C443.346329,21.8783388 442.666799,21.3167014 441.067072,21.0066937 C438.261179,20.4651867 435.865835,19.7867932 433.062774,19.2694426 L432.141277,19.1037892 C430.073207,18.7416845 426.451408,18.1738285 424.415754,18.2750023 C419.540125,18.5165667 420.975633,20.1350486 415.805541,19.7002326 C413.351683,19.4949028 411.15076,19.2171036 409.008143,18.9103764 L408.207015,18.7940828 L405.813618,18.4340322 C402.54621,17.936812 399.21085,17.8764209 395.348854,17.612713 C392.823874,17.4400472 390.676401,17.2112853 388.545603,16.9490302 L387.266239,16.7878388 L385.136083,16.5095687 C382.88514,16.2136522 379.855568,15.2312901 376.83166,15.4648024 C373.388707,15.7325363 371.715364,16.9926976 369.481409,17.5543349 L368.734293,17.7381991 C365.94284,18.407751 363.914935,18.6801376 360.231789,18.8428045 L359.23183,18.8829395 L356.376388,18.9891272 L353.520946,19.1043736 C351.196387,19.2030124 349.344668,19.4486029 347.144689,19.6056198 C345.002282,19.7582751 342.712407,19.8172683 340.489712,19.8921048 L338.825618,19.9518236 L338.06931,19.9730309 C335.531692,20.0355031 331.748957,20.0622133 329.856311,20.3021307 C327.090057,20.6544122 327.271265,21.7857391 325.705515,22.3614677 C324.564471,22.7801794 322.806187,23.2270737 321.534899,23.6437724 C320.297588,24.0504059 318.658222,24.5778216 316.996204,24.9139988 C315.223763,25.2703064 313.114389,25.4434276 311.327791,25.8037613 L308.872806,26.286904 C308.21936,26.4196264 307.592263,26.5564135 307.052414,26.6995628 C305.66504,27.0659356 304.920388,27.5249081 303.411265,27.8932939 C301.638824,28.3260968 299.260469,28.8072127 297.173746,29.1675464 C295.252766,29.4982194 292.984113,29.8137422 290.727773,30.1020705 L289.229321,30.2901284 L285.920128,30.691049 C282.254207,31.144194 278.201353,31.7332397 274.879496,32.2776888 C271.745164,32.7890003 269.788683,33.5559674 266.810076,34.0692919 C264.751666,34.4215734 263.197241,34.5282644 261.356847,34.9791847 L259.824939,35.3631632 C258.7169,35.6339172 257.569883,35.8708343 255.903619,36.0078467 C246.659178,36.7707878 242.81417,34.9328848 236.191583,34.184035 C234.416311,33.9827313 232.037956,33.9927965 230.418409,33.7653233 C228.982902,33.5640196 228.563858,32.8876391 226.746115,32.8091306 C224.070466,32.6943875 220.681309,34.2504652 218.13024,34.614825 C216.502199,34.8463242 215.429108,34.8060635 213.795404,34.9208066 C211.514345,35.0802941 211.312627,35.2709628 209.747588,35.6066161 L209.176283,35.7236355 C207.834404,35.9873113 206.599791,36.1441138 204.819945,36.0642117 C202.818162,35.9736251 201.903628,35.3697139 199.607383,35.4502354 C197.999161,35.5066004 196.985529,35.9313513 195.283872,35.9273252 C193.13769,35.9212861 192.169359,35.3636748 191.019821,35.0737974 C188.256707,34.3730709 184.124412,33.7977015 180.025762,33.4318216 L179.467195,33.3832353 L178.304114,33.2902465 C176.208897,33.1312166 173.980604,33.2761552 171.956171,33.1312166 C170.69904,33.0436495 169.480133,32.8983333 168.242114,32.7733992 L166.229062,32.5898703 C162.468088,32.2268675 159.739848,31.5532471 156.1033,31.1644793 L155.207786,31.0735384 C153.93644,30.9504077 152.95469,30.8744574 151.802659,30.6758378 L150.883986,30.5092121 C150.535141,30.4493399 150.19114,30.3966707 149.845391,30.3477445 L149.324634,30.2767299 L147.116515,29.9969177 L146.477287,29.908291 C143.421548,29.4609308 142.351487,28.9662427 137.852255,29.147416 C129.839463,29.471515 125.895357,31.7220906 119.949469,32.9641345 L119.035865,33.1491662 C117.76588,33.3999384 117.129347,33.5106679 116.117805,33.9416691 L115.061361,34.4129993 L114.809151,34.5161171 C114.507996,34.6330707 114.170063,34.7408572 113.663134,34.8663521 L113.435146,34.9212981 L112.907838,35.0395758 C111.098589,35.428092 109.088313,35.7179693 107.689613,36.1970722 C106.305071,36.6701359 105.217823,37.1975517 103.855931,37.6806806 C102.740369,38.0772489 102.386447,38.5120649 101.316187,38.892529 C100.228939,39.2790321 98.4480042,39.4481272 97.0974381,39.7983957 C94.4786337,40.4803507 92.7355788,41.3235393 90.3316754,42.042966 L89.129417,42.3884865 C87.8027407,42.7848307 86.7448681,43.2029448 85.4095207,43.6010229 C83.7022014,44.1103213 81.926929,44.2190253 79.7722524,44.583385 L78.0109412,44.8879571 C75.6928298,45.2951744 73.4644374,45.7032629 70.9478276,46.0688582 L68.989653,46.3458431 C66.3797882,46.725368 63.0266659,47.2501856 60.6633002,47.0352643 C59.0748986,46.8923387 57.4327009,46.4877182 56.0028564,46.2662841 C53.9161328,45.9401721 44.3023098,45.662373 42.1193194,46.20388 C41.2829747,46.411997 25.2273727,44.49485 24.244364,44.5780063 L24.2094405,44.583385 L16.6637653,41.835519 C16.2299777,44.333103 15.902782,46.6323004 16.0685263,48.8267785 L16.1169266,49.4020755 C16.3594062,52.0097708 16.8118349,53.6243382 16.5245969,57.8245967 C16.4034725,59.6000859 16.1192008,60.0952532 16.0994254,62.2263874 C16.0844512,63.9191207 16.3665951,66.3473599 16.5013014,68.0891848 L16.5316491,68.5095178 L16.6022531,69.6886627 C16.7855883,72.413023 17.1267239,74.6383655 17.3723451,77.3048174 L17.4503338,78.2112617 L17.7618561,82.1654059 L17.9017842,83.8962281 L18.0467844,85.5986017 C18.1208859,86.4392945 18.1976396,87.26171 18.2781709,88.0544347 L18.4566246,89.7234507 L18.6537734,91.4493905 C18.887273,93.4266435 19.1340591,95.2777013 19.4052793,97.0131391 L19.523045,97.7498502 L19.7744892,99.2403801 L20.1923507,101.695757 L20.3538788,102.709253 C20.5127637,103.739993 20.6628291,104.829568 20.7960639,106.041914 L20.8612417,106.658613 L21.0131834,108.21972 C21.566795,113.662125 22.3791621,117.528463 22.9763277,122.784522 C23.1160028,124.014486 23.1445289,124.806512 23.1574117,125.793541 L23.1737033,127.280703 L23.1876775,128.080896 C23.2284643,130.050622 23.4521738,130.745498 23.58195,132.359579 C23.9243119,136.586283 23.1258794,138.271493 22.8514954,141.937372 C22.5742576,145.649483 23.181249,148.468911 23.5512205,150.627226 L23.6000968,150.917465 L23.6865072,151.47388 L23.7873273,152.209463 C24.1416726,154.668725 24.6860519,156.747934 24.9143189,159.815372 C25.0252025,161.311426 25.0121871,163.028125 24.9661357,164.811311 L24.8836396,167.516685 L24.8451049,168.870641 L24.8099502,170.482871 L24.7573253,173.175639 C24.7063326,175.578948 24.6326476,177.974513 24.4446527,180.092608 L24.3293235,181.348145 C24.1362974,183.376093 23.9378922,185.103325 23.7142336,186.865192 L23.6463585,187.395127 L23.4138589,189.156084 C23.2210486,190.592342 23.1456548,192.466318 22.9602602,193.86154 C22.7007078,195.817588 22.3039635,196.862637 22.0085681,198.588883 C21.2027197,203.297075 20.3140618,207.449915 19.4859661,212.029528 L19.1972141,213.640189 C19.1493977,213.911027 19.1018517,214.183745 19.0547499,214.45937 L18.7688956,216.182321 C17.9865157,220.873634 17.1945582,224.768953 16.4838053,229.894572 L16.3592398,230.812277 L16.0345996,233.304176 L15.9449331,234.027097 L15.8679264,234.690243 C15.7816824,235.464607 15.7115149,236.223956 15.6940293,236.785155 C15.6211074,239.14609 16.0920096,239.028454 16.1698753,240.951673 C16.2081902,241.91465 16.1538078,243.577974 16.0709982,244.53548 C15.975829,245.643451 15.8089739,245.93891 15.6989731,246.858115 C15.567961,247.941464 15.5271742,249.145186 15.4159374,250.231271 C15.2416665,251.932895 15.0117773,253.10926 14.8350345,254.772584 C14.6570557,256.452323 14.5173918,258.359127 14.3332332,260.03613 C13.9702032,263.36141 13.4836988,265.412904 13.1423503,268.921607 L13.0836738,269.556472 L12.8095831,272.709802 C12.62671,274.755489 12.4475806,276.501527 12.1468133,278.543348 C11.7449901,281.276136 11.6858439,284.495782 11.7680699,287.608792 L11.789463,288.325015 L11.8644299,290.348558 L11.8939081,291.244092 C11.9486132,293.046989 11.9739883,294.91307 11.9012346,296.702075 L11.8563618,297.589505 L11.6773282,300.490541 L11.590591,301.766683 C11.439008,303.895353 11.2511644,305.979991 11.0097266,307.227484 C10.7814596,308.412397 10.547761,308.717282 10.3514039,310.080725 L10.3126431,310.368103 L10.2641074,310.779114 L10.1199628,312.134146 C10.0626657,312.697302 10.0041552,313.296837 9.95486858,313.827005 L9.87836898,314.683551 L9.79393024,315.753354 L9.75880998,316.225037 C9.50782347,319.666639 9.40713887,322.715211 9.84859507,324.704114 L9.91219082,324.968697 L10.0252332,325.414114 L10.0843346,325.664515 C10.1733344,326.057214 10.2300453,326.393337 10.2841616,326.8581 L10.3385128,327.372602 L10.5135525,329.324407 C10.5990765,330.209312 10.6944548,330.828215 10.7978368,331.446019 L10.9350211,332.260584 L11.0220863,332.806566 C11.2618632,334.368668 11.269279,336.223493 11.4274824,338.001718 C11.5671463,339.572028 11.9119802,340.228603 12.1023186,341.774291 C12.3872965,344.098099 12.7340222,346.130467 13.0273023,348.369284 L13.1689553,349.508202 L13.2751413,350.438868 L13.3632244,351.253302 C13.5771989,353.286366 13.8335116,356.153607 13.7795214,357.863123 C13.6312058,362.574051 12.6374909,361.187036 12.9044591,366.18248 C13.0305274,368.553447 13.2010904,370.680021 13.3894146,372.75026 L13.4608166,373.524326 L13.6818803,375.836874 C13.96368,378.751058 14.0169508,381.721187 14.1508264,385.095841 L14.1861535,385.948134 C14.2815655,388.143851 14.4048753,390.044117 14.5459662,391.903092 L14.6926095,393.757716 L14.8634616,395.815915 C15.0451483,397.990821 15.6482986,400.918052 15.5049268,403.839813 C15.3476907,407.021824 14.6329579,408.639453 14.2693217,410.663114 L14.2219964,410.94177 L14.0568554,412.011459 L13.9459885,412.791156 C13.6858777,414.703957 13.5503143,416.388186 13.4632993,418.850242 L13.4309024,419.878935 L13.3410633,423.604099 L13.2703043,426.363083 C13.2097421,428.609118 13.0589545,430.398286 12.9625494,432.523949 C12.9203721,433.455465 12.8898399,434.415835 12.8648262,435.386159 L12.8414249,436.359101 L12.7426119,440.950999 L12.688394,444.827832 C12.6611969,446.514644 12.6197813,448.174634 12.5349059,449.22832 C12.3186123,451.901129 11.6240006,451.726043 11.270515,453.238902 C11.041999,454.218901 10.7998112,455.670122 10.5691251,456.843221 L10.2317802,458.499567 C10.0415937,459.461959 9.84484845,460.552839 9.70331294,461.654009 C9.51579959,463.121924 9.41091923,464.82902 9.24545864,466.373886 L9.15701696,467.130942 L8.92104792,469.025614 L8.767575,470.199447 L8.66144894,470.925443 C8.6434647,471.040898 8.62532367,471.153226 8.60701309,471.261895 C8.38206769,472.602403 8.10026795,473.321901 7.87408658,474.780045 C7.60835437,476.492612 7.31295904,478.790626 7.09172152,480.80686 L6.95782974,482.090202 C6.80341975,483.63659 6.65563096,485.339436 6.51794275,487.035085 L6.40247905,488.482919 L6.22407497,490.80322 L6.08509233,492.573012 C5.89779018,494.885301 5.67982164,497.314895 5.46062874,499.574825 L5.35106656,500.689323 L5.18215752,502.348003 C4.86822272,505.376457 4.39732053,507.266847 4.08214977,510.144835 C3.88988875,511.912725 3.81676852,513.295857 3.60844844,514.830298 L3.52349416,515.413853 L3.2877392,516.894013 L3.20653954,517.434604 L3.1194252,518.076645 C3.06372081,518.517292 3.01313386,518.987457 2.96990699,519.512794 L2.9389019,519.917542 L2.89191668,520.68287 C2.46706132,528.784132 3.35579814,532.593823 3.86785491,538.006605 L3.94343308,538.852783 L4.01169984,539.729027 C4.13529622,541.44433 4.1291164,543.742344 4.2687803,545.307182 C4.39237668,546.694197 4.8076605,547.099085 4.85586309,548.855425 C4.92631302,551.44069 3.97091304,554.71536 3.7472036,557.180253 C3.62086063,558.578515 3.62635381,559.553111 3.57965506,560.861068 L3.5593371,561.368657 L3.51318004,562.245036 L3.47619582,562.758985 C3.43786787,563.224839 3.39520555,563.560843 3.34547983,563.896913 L3.23580194,564.607637 L3.13826405,565.279737 L3.06641653,565.831743 L2.99130796,566.4743 C2.87647079,567.540562 2.81642781,568.607821 2.85730969,570.040923 C2.91292806,571.975085 3.28371719,572.858726 3.23427864,575.077403 C3.19967165,576.631298 2.9388833,577.61069 2.94135523,579.254864 C2.94506312,581.328548 3.28742508,582.264168 3.46540386,583.374874 C3.87430187,585.912264 4.21367692,589.644637 4.43918308,593.408356 L4.50337452,594.537249 L4.56046775,595.661041 C4.65810889,597.685481 4.56911949,599.838501 4.65810889,601.794549 L4.68772374,602.39906 L4.68772374,602.39906 L4.72191551,602.998954 L4.87780144,605.383144 L4.99346742,607.376588 C5.19840315,610.684822 5.56081611,613.168966 5.80283428,616.254434 L5.86564548,617.111905 L5.92148128,617.977168 L6.01092808,619.437334 C6.0408957,619.89598 6.07375166,620.338209 6.11770494,620.798998 L6.16566137,621.267269 L6.26796616,622.154909 L6.3441101,622.908085 L6.3441101,622.908085 L6.41070549,623.661586 L6.58250446,625.795114 L6.64524294,626.501549 C6.88817549,629.074064 7.15025862,630.192775 7.12609543,633.456178 L7.12129529,633.894298 L7.10408116,634.746425 C6.91094365,642.260833 5.60354311,646.071846 4.82954232,651.542405 L4.76069388,652.04445 L4.53643887,653.800228 C4.44814885,654.467726 4.36473608,654.96868 4.19384953,655.621485 L4.10068923,655.962016 L3.84350093,656.87089 L3.76440766,657.194804 C3.68704762,657.537326 3.61243337,657.95467 3.5184797,658.617823 L3.42793942,659.288837 L3.15193255,661.517943 C3.04085031,662.390983 2.92281577,663.214438 2.77573608,663.890164 C2.53369318,665.004974 2.26847596,665.920304 2.015132,666.955955 L1.79113769,667.897057 C1.56828601,668.747536 1.33101805,669.117598 1.12078061,670.048294 C0.88347557,671.098814 0.779654614,672.819589 0.56459692,674.124532 C0.497178913,674.531955 0.427194403,674.91744 0.355124994,675.290776 L0.282378454,675.660426 L0.341,681.68 L1.37166296,681.529301 C4.56304167,681.0528 7.6864558,680.527775 10.6623767,679.965214 L11.9285093,679.72185 C14.1711414,679.282322 16.34737,678.832178 18.3304243,678.356554 C21.394047,677.624008 25.3480822,677.167493 28.8916221,676.524127 C31.8194192,675.993296 35.0762161,675.073897 39.1389118,674.946498 C47.9555048,674.670466 54.5687041,679.040264 60.4907019,678.343814 C63.7625906,677.961616 65.4528652,677.031601 70.4180468,677.560308 C72.3769543,677.768393 72.9232752,678.256758 75.2745679,678.290731 C77.2978039,678.318599 80.2734111,677.747417 82.2067821,677.548193 L83.4375739,677.434191 C86.8103526,677.086531 89.4837869,676.395257 92.9107722,675.969939 L97.91205,675.355386 C100.250911,675.063119 102.552883,674.756461 104.634034,674.407174 C108.253032,673.802027 111.515866,673.160784 114.46781,672.409128 L115.512289,672.137011 C118.267409,671.407468 120.828651,670.655972 124.333373,670.104422 L125.923819,669.864205 C131.978818,668.912849 136.258985,667.507893 142.088708,666.476565 C143.546326,666.218824 144.446476,666.181388 145.654575,666.160927 L147.136276,666.135562 L147.932228,666.113477 C150.105439,666.043407 150.872099,665.659086 152.652924,665.436137 C157.316271,664.847977 159.175573,666.219643 163.220158,666.691021 C167.879783,667.232893 171.264551,665.808495 173.750715,665.254533 L174.521475,665.090456 C177.248759,664.481906 179.547465,663.540885 182.945059,663.147196 C185.833618,662.813834 189.467708,663.132332 192.935789,663.266102 L194.594739,663.322792 C198.227436,663.435609 202.068102,663.505046 205.317051,663.954058 C208.196037,664.351544 210.483723,664.752545 212.830943,665.217121 L214.012527,665.454985 L215.316836,665.724909 C216.901468,666.056147 218.969037,666.18567 220.508394,666.504168 C222.666512,666.950066 223.819521,667.631653 225.724098,668.139127 C230.918674,669.523533 235.500526,671.050202 240.553239,672.472827 C241.733413,672.804066 242.910569,673.137427 244.157146,673.453802 C250.104603,674.960807 254.767921,676.500838 261.316924,677.852765 L264.220488,678.440484 L264.916288,678.573501 C265.978186,678.770901 267.0928,678.949656 267.866266,678.98718 C270.4711,679.112456 270.341311,678.303471 272.463209,678.169701 C273.525667,678.103878 275.360823,678.197305 276.417244,678.339567 C277.639675,678.503063 277.965656,678.789711 278.979821,678.978687 C280.175087,679.203759 281.50316,679.273829 282.701444,679.464928 C284.578856,679.764316 285.876745,680.159254 287.7119,680.46289 C289.565166,680.768648 291.668954,681.008583 293.519201,681.324958 C297.403814,681.985312 299.71285,682.883477 304.02305,683.471637 L307.074912,683.883477 C309.519629,684.219027 311.544772,684.532119 313.938322,685.081116 C317.185353,685.824528 321.055355,685.885186 324.730492,685.695025 L326.963078,685.566236 C329.57856,685.422912 332.363824,685.334145 334.952057,685.580096 L337.937817,685.865978 C340.798614,686.153051 343.891706,686.524076 345.585695,687.034572 C346.980172,687.452867 347.269933,687.881778 349.050758,688.232126 L349.473599,688.310096 C350.608695,688.511096 352.692656,688.831704 353.827269,688.980185 L354.961338,689.11958 L355.852918,689.221632 C359.681807,689.643163 363.040799,689.777622 365.159678,688.920082 L365.595977,688.746969 C366.2703,688.487653 366.719169,688.364698 367.523867,688.232995 L368.054036,688.151763 L369.569484,687.943354 C371.492172,687.684309 372.319199,687.367934 373.807244,687.013339 C375.53072,686.601414 377.57716,686.588674 379.539086,686.316889 C381.271617,686.076954 381.996021,685.484547 383.701387,685.157555 C386.692569,684.586382 389.246091,683.870822 392.234255,683.325128 L393.459,683.108688 C395.694868,682.726573 399.359711,682.173301 401.452289,682.276207 C406.649883,682.531005 405.119581,684.238157 410.631083,683.779519 C413.045761,683.5796 415.230688,683.314549 417.349054,683.020489 L418.927898,682.795069 L421.282832,682.443949 C424.766005,681.919489 428.321618,681.855789 432.438644,681.577634 C434.968483,681.406461 437.142837,681.183022 439.281052,680.92711 L441.204311,680.688556 L443.325823,680.414053 C445.72541,680.101925 448.955041,679.065743 452.178636,679.312049 C455.848947,679.594451 457.63279,680.92365 460.014266,681.516057 L460.782971,681.703403 C463.782354,682.416644 465.949519,682.704787 469.911324,682.876712 L470.940684,682.91745 L473.984688,683.029455 L477.028691,683.151016 C479.506755,683.255058 481.480754,683.514104 483.82601,683.679723 C486.175147,683.845342 488.6906,683.906442 491.123371,683.988713 L492.678066,684.044366 L494.294395,684.085031 C496.944821,684.140424 500.427708,684.185074 502.25604,684.414392 C505.204965,684.785974 505.011791,685.979281 506.680937,686.586551 C507.775692,686.984037 509.403426,687.405602 510.705994,687.806355 L512.293594,688.311786 C513.401026,688.656457 514.676814,689.021037 515.965374,689.278924 C517.854859,689.654752 520.103528,689.837358 522.008105,690.217432 L523.037855,690.418271 C524.266724,690.654391 525.558688,690.898075 526.56581,691.162311 C528.0448,691.548756 528.838626,692.032873 530.447405,692.421441 C531.864519,692.763827 533.644967,693.134877 535.385091,693.459348 L535.963086,693.565676 L537.096825,693.765504 C539.44032,694.164651 542.269196,694.54287 545.008322,694.881121 L545.752699,694.972367 L549.093584,695.372472 L550.922227,695.60256 C554.312523,696.040504 557.866877,696.56011 560.863293,697.046037 C564.204603,697.585361 566.290281,698.394347 569.465583,698.935794 C571.659922,699.307375 573.316994,699.419911 575.27892,699.895536 L576.817319,700.277567 C578.028207,700.572699 579.268465,700.832171 581.092257,700.980553 C590.947162,701.785293 595.046078,699.846699 602.105993,699.056823 C603.998496,698.844491 606.533908,698.855108 608.260403,698.615172 C609.790705,698.40284 610.237421,697.689404 612.1752,697.606594 C615.027538,697.485565 618.6405,699.126893 621.360031,699.511214 C623.095581,699.755396 624.239535,699.71293 625.981121,699.833959 L626.593271,699.880843 C628.468313,700.040458 628.781266,700.236442 630.30662,700.559542 L630.879713,700.675793 C632.320113,700.956915 633.640609,701.124788 635.549283,701.040006 C637.683254,700.944457 638.658181,700.30746 641.10606,700.392393 C642.820482,700.451846 643.90105,700.899867 645.715077,700.895621 C648.002984,700.889251 649.035259,700.30109 650.260708,699.995332 C653.216999,699.253528 657.643519,698.644912 662.028433,698.259198 L662.625976,698.207991 L663.816107,698.114068 C666.049684,697.946326 668.425124,698.099205 670.583242,697.946326 C672.370104,697.823173 674.084525,697.591731 675.871387,697.447345 C680.314394,697.088504 683.347833,696.309244 687.48297,695.87184 L688.367844,695.782622 C689.768868,695.647616 690.836322,695.568182 692.099137,695.351028 L693.046945,695.180674 C693.542787,695.096471 694.029449,695.025774 694.523586,694.959934 L695.272481,694.863734 L697.063204,694.640313 C700.866322,694.147702 701.823138,693.540432 706.939237,693.744271 C715.481161,694.086126 719.685719,696.46 726.024249,697.77009 L727.934192,698.149756 C728.807817,698.328847 729.420048,698.493584 730.346522,698.903944 L731.151068,699.262364 C731.581056,699.448224 731.98478,699.59535 732.733031,699.778314 L732.995717,699.840732 L733.530879,699.959235 C735.459603,700.369037 737.602629,700.674795 739.093693,701.180146 C740.569665,701.679126 741.72871,702.235437 743.180536,702.745034 C744.369765,703.163329 744.747058,703.621966 745.887993,704.023274 C747.047039,704.430952 748.945579,704.609311 750.385331,704.978769 C753.17707,705.698086 755.035229,706.587469 757.597876,707.34631 L758.879527,707.71076 C760.293811,708.128818 761.421541,708.569838 762.845069,708.989725 C764.665133,709.526926 766.557637,709.641585 768.854599,710.025907 C772.061342,710.563107 774.956126,711.119934 778.34569,711.604798 L779.7147,711.79465 L781.105994,712 L0,712 L0,0 L801.000211,0 L801.000211,686.963896 Z" id="map-frame" fill="#2E4A6B"></path>
	</g>
</svg>