<svg width="827" height="132" viewBox="0 0 827 132" fill="none" xmlns="http://www.w3.org/2000/svg">
<path fill-rule="evenodd" clip-rule="evenodd" d="M0.030168 53.1243C0.030168 48.7927 0.0289023 44.4612 0.0276366 40.1297C0.0245427 29.5419 0.0214489 18.9546 0.036842 8.36767C0.0460188 2.46202 1.49427 0.926171 7.33151 0.886961C17.4626 0.819387 27.5962 0.811044 37.7282 0.893635C43.1842 0.93785 44.7542 2.40613 44.7659 7.80205C44.8293 37.9168 44.8318 68.0298 44.7676 98.1445C44.7551 103.913 43.2142 105.035 36.5285 104.969C31.1735 104.915 29.9105 103.626 29.9063 97.8634C29.8911 81.6349 29.892 65.4068 29.893 49.1789C29.8935 39.575 29.8941 29.9713 29.8913 20.3675C29.8896 14.6587 29.7328 14.4852 24.1141 14.5127C23.0324 14.5179 22.0778 14.5093 21.2353 14.5017C18.0763 14.4731 16.4956 14.4588 15.7139 15.242C14.9311 16.0264 14.9498 17.6108 14.9873 20.7821V20.7821V20.7821C14.997 21.6005 15.0079 22.5245 15.0066 23.5677C14.9877 38.9353 14.9906 54.3029 14.9935 69.6708V69.6709V69.671V69.671V69.6711V69.6712V69.6713V69.6713V69.6714V69.6715V69.6716V69.6737V69.6794C14.9952 78.7592 14.9969 87.839 14.9941 96.919C14.9916 104.243 9.70829 107.825 3.14525 104.4C1.43337 103.505 0.203692 100.136 0.164482 97.8784C-0.0312742 86.6259 -0.00809508 75.3691 0.015084 64.1123C0.022626 60.4496 0.030168 56.7868 0.030168 53.1243ZM168.272 63.4215L168.282 63.3953C169.141 61.0789 170.013 58.7255 170.905 56.3228C170.829 59.9413 170.747 63.5029 170.666 67.0215C170.422 77.6749 170.186 87.9355 170.141 98.1971C170.132 100.249 171.11 103.193 172.645 104.208C178.397 108.011 184.954 104.228 184.967 97.4262C184.989 87.0124 184.984 76.5986 184.98 66.1848C184.978 62.232 184.977 58.2792 184.977 54.3264C184.977 51.5191 184.978 48.7117 184.979 45.9045V45.9043V45.9042V45.9041V45.904V45.9038V45.9037V45.9036V45.9035V45.9033V45.9032V45.9031V45.903C184.983 38.2121 184.987 30.5216 184.962 22.831C184.952 19.9904 184.67 17.1757 181.261 16.2221C174.417 14.3075 170.37 16.3473 168.002 23.0079C165.941 28.8021 163.915 34.6084 161.889 40.4149L161.888 40.4183C160.42 44.6253 158.952 48.8324 157.471 53.035C156.448 55.9359 155.388 58.8248 154.259 61.9041L154.259 61.9046C153.709 63.4035 153.143 64.9474 152.556 66.5599C152.304 66.0792 152.113 65.7335 151.967 65.4678C151.739 65.052 151.618 64.8325 151.536 64.5994C149.952 60.1353 148.374 55.6693 146.796 51.2032L146.787 51.1784C145.385 47.2097 143.982 43.2409 142.576 39.2732C141.969 37.5625 141.372 35.8481 140.775 34.1336L140.775 34.1329L140.775 34.1324L140.774 34.1319C139.196 29.6005 137.617 25.0685 135.869 20.6028C134.134 16.1671 129.892 14.7455 123.885 16.1737C119.994 17.0995 119.997 20.1331 120.001 23.157L120.001 23.3967C120.002 30.3584 120.001 37.32 120 44.2816V44.2817V44.2819V44.282V44.2821V44.2822V44.2824V44.2825V44.2826V44.2828V44.2829V44.283V44.2831C119.997 62.3247 119.995 80.3658 120.017 98.4065C120.024 103.549 121.528 104.925 126.781 104.97C133.259 105.022 134.926 103.847 134.907 98.4565C134.876 89.6227 134.625 80.7888 134.349 71.9583C134.242 68.5518 134.023 65.1488 133.804 61.7454V61.7451V61.7449V61.7447V61.7445V61.7442V61.744V61.7437V61.7435V61.7434V61.7432V61.743L133.804 61.7414L133.804 61.7377L133.803 61.734L133.803 61.7304L133.803 61.7268L133.803 61.7231L133.802 61.7195L133.802 61.7158L133.802 61.7122L133.802 61.7086L133.802 61.705L133.801 61.7013L133.801 61.6977C133.702 60.1577 133.603 58.6176 133.514 57.077C134.649 58.3575 135.261 59.7182 135.782 61.1122C136.844 63.9572 137.897 66.8055 138.951 69.6539L138.951 69.6554C141.052 75.3361 143.152 81.0166 145.326 86.6694C146.414 89.4975 148.371 92.1179 151.712 91.5798C154.178 91.1819 156.696 89.7687 158.672 88.1719C159.583 87.4355 160.001 86.0653 160.41 84.724C160.554 84.251 160.698 83.7817 160.861 83.3449C163.294 76.8423 165.709 70.3328 168.242 63.502L168.247 63.4875L168.263 63.4445L168.272 63.4215ZM570.979 83.0008V60.1966C570.979 57.7164 570.989 55.2361 570.999 52.7557C571.025 46.5283 571.05 40.3008 570.924 34.0763C570.85 30.4932 572.102 28.9148 575.748 29.2785C576.744 29.3785 577.752 29.3598 578.761 29.3411C579.284 29.3314 579.807 29.3218 580.328 29.3286C583.865 29.3753 585.836 31.2065 585.849 34.6803C585.91 51.8174 585.894 68.9554 585.867 86.0934C585.861 89.5572 584.003 91.405 580.528 91.6987C571.076 92.4954 570.979 92.4161 570.979 83.0008ZM600.895 68.363C600.89 65.7248 600.885 63.0866 600.883 60.4486C600.882 57.5026 600.892 54.5565 600.903 51.6105C600.925 45.162 600.948 38.7138 600.848 32.2676C600.683 21.6185 595.748 16.5229 585.069 16.0882C579.685 15.8685 574.289 15.8945 568.895 15.9206C567.347 15.9281 565.8 15.9356 564.253 15.9372C557.213 15.9456 555.989 17.1753 555.987 24.1112C555.98 55.7459 555.983 87.3806 555.987 119.014C555.987 119.297 555.981 119.581 555.976 119.865C555.961 120.69 555.946 121.518 556.059 122.326C556.639 126.435 558.79 127.643 564.916 127.401C569.111 127.234 570.846 125.68 570.947 121.718C571.05 117.715 571.096 113.703 570.945 109.703C570.82 106.363 572.154 104.811 575.563 104.95C577.5 105.028 579.442 105.006 581.383 104.985C582.08 104.977 582.777 104.97 583.474 104.967C595.388 104.915 600.79 99.6266 600.874 87.8002C600.92 81.3277 600.908 74.8551 600.895 68.3829V68.363ZM541.045 79.8829C541.043 75.7654 541.041 71.648 541.041 67.5305H541.314C541.314 64.271 541.315 61.0115 541.315 57.7521V57.643C541.317 46.706 541.318 35.7692 541.302 24.832C541.301 24.5512 541.305 24.2677 541.309 23.9829V23.9795V23.976V23.9726V23.9691V23.9656V23.9622V23.9587V23.9552V23.9517V23.9483C541.327 22.568 541.346 21.1609 540.943 19.9041C540.526 18.6035 539.553 17.0117 538.396 16.4878C531.627 13.4236 526.509 16.7389 526.491 24.0203C526.475 30.3016 526.479 36.5837 526.482 42.866V42.9256C526.484 45.6056 526.485 48.2856 526.485 50.9657C526.485 53.7981 526.488 56.6306 526.492 59.4631L526.492 59.6072C526.502 68.6099 526.513 77.6128 526.414 86.6148C526.396 88.2399 525.925 90.6892 524.823 91.3358C518.705 94.9239 511.669 90.6575 511.667 83.6123C511.663 75.3059 511.663 66.9993 511.662 58.6925C511.662 47.3776 511.662 36.0625 511.653 24.7477C511.653 24.5438 511.654 24.3392 511.655 24.1341V24.1338C511.66 22.8168 511.665 21.482 511.395 20.2153C510.591 16.4603 508.486 15.606 502.382 15.9347C498.896 16.1241 496.768 17.6549 496.763 21.1905C496.756 26.3665 496.74 31.5427 496.724 36.719V36.7193V36.7196V36.7199V36.7203V36.7206V36.7209V36.7213V36.7216V36.7219V36.7223V36.7264C496.668 54.7628 496.613 72.8001 496.931 90.8302C497.093 99.997 502.855 104.725 512.094 104.942C513.406 104.972 514.72 104.959 516.035 104.946C518.055 104.925 520.075 104.904 522.084 105.045C523.435 105.139 525.649 105.828 525.849 106.641C526.216 108.133 525.86 110.28 524.931 111.495C523.91 112.834 522.413 113.831 520.937 114.815C520.548 115.074 520.161 115.332 519.784 115.596C519.082 116.086 518.336 116.521 517.592 116.955C516.537 117.571 515.484 118.186 514.559 118.956C511.625 121.395 511.899 123.922 515.04 128.869C516.955 131.885 519.343 132.597 522.427 130.853C523.235 130.397 524.044 129.943 524.854 129.489C528.031 127.708 531.21 125.926 534.282 123.978C538.513 121.296 541.014 117.419 541.026 112.291C541.055 101.509 541.05 90.7254 541.045 79.9422V79.8829ZM826.102 67.4825L826.102 80.284C826.102 90.7994 826.103 101.315 826.101 111.83C826.101 117.473 823.355 121.562 818.676 124.432C816.204 125.949 813.677 127.376 811.15 128.804L811.137 128.811L811.134 128.814L811.122 128.82C810.041 129.431 808.959 130.042 807.883 130.66C804.748 132.46 802.182 132.189 800.093 128.913C796.732 123.642 796.614 121.1 800.193 118.459C801.145 117.756 802.186 117.173 803.228 116.59C804.245 116.02 805.263 115.45 806.198 114.769C807.853 113.561 809.604 112.233 810.689 110.558C812.619 107.581 811.155 105.131 807.586 104.997C805.665 104.924 803.742 104.94 801.818 104.955C800.686 104.964 799.554 104.973 798.422 104.964C787.229 104.871 781.841 99.6327 781.782 88.3937C781.71 74.504 781.722 60.6133 781.734 46.7228C781.739 40.9915 781.744 35.2603 781.743 29.5291C781.742 26.9038 781.742 24.2784 781.756 21.653C781.778 17.6778 783.914 16.0468 787.783 15.9175C793.936 15.7123 795.998 16.7676 796.594 20.9756C796.726 21.9091 796.713 22.8646 796.7 23.8178V23.8184V23.819V23.8196V23.8202V23.8207V23.8213V23.8219V23.8225V23.8243C796.696 24.1168 796.692 24.4091 796.692 24.7005C796.694 33.5644 796.694 42.4287 796.694 51.2931C796.694 62.0504 796.694 72.8079 796.698 83.5651C796.701 90.6879 803.549 94.9042 809.801 91.3328C810.966 90.6671 811.436 87.9975 811.446 86.248C811.534 71.0572 811.527 55.8648 811.521 40.6725C811.519 36.5192 811.517 32.3659 811.517 28.2127C811.517 27.7914 811.517 27.3701 811.516 26.9489V26.922C811.515 25.9703 811.514 25.0188 811.519 24.0673C811.557 16.7326 816.617 13.3022 823.338 16.5582C824.9 17.3157 826.11 20.2932 826.197 22.3029C826.441 27.9557 826.406 33.6206 826.371 39.2852C826.358 41.3609 826.345 43.4366 826.346 45.5117C826.349 50.5385 826.348 55.5662 826.348 60.5935V60.9076L826.347 65.1344L826.347 67.4825H826.102ZM645.123 61.0474C645.988 58.5554 646.857 56.052 647.73 53.5316C647.637 57.7524 647.541 61.945 647.445 66.1176L647.444 66.1868L647.443 66.2029C647.21 76.3679 646.979 86.4146 646.815 96.4621C646.696 103.715 647.884 104.96 654.184 104.969C660.687 104.978 661.75 103.821 661.752 96.6815C661.754 86.253 661.754 75.824 661.753 65.395V64.7431C661.753 60.1962 661.753 55.6493 661.753 51.1023C661.753 48.5878 661.765 46.0728 661.778 43.5579C661.814 36.5409 661.849 29.5241 661.608 22.5168C661.536 20.422 660.167 17.3227 658.502 16.5202C652.76 13.7505 647.225 16.4693 645.06 22.5602C643.361 27.3407 641.73 32.1455 640.099 36.9502L640.099 36.9531L640.097 36.9567L640.096 36.9603L640.094 36.9644L640.081 37.0029C639.239 39.4845 638.397 41.966 637.545 44.4442C635.799 49.5257 634.045 54.6048 632.291 59.6837L632.257 59.7807C631.486 62.0138 630.714 64.2468 629.944 66.48C629.446 64.2626 629.395 62.2153 629.456 60.1714C629.574 56.1044 629.708 52.0376 629.842 47.9708C630.117 39.6231 630.392 31.2755 630.537 22.9256C630.635 17.2251 628.898 15.8828 622.809 15.9337C616.939 15.9813 615.742 17.1133 615.73 22.9898C615.706 35.3764 615.709 47.763 615.713 60.1496C615.715 64.337 615.716 68.5244 615.716 72.7119C615.716 74.9489 615.707 77.1862 615.697 79.4234C615.67 85.8889 615.642 92.354 615.845 98.8122C615.906 100.719 616.947 103.407 618.418 104.312C623.395 107.369 630.221 104.469 632.154 98.8889C633.508 94.9759 634.834 91.0528 636.16 87.1297C637.215 84.0069 638.271 80.8842 639.341 77.7666C641.249 72.209 643.176 66.6571 645.123 61.0474ZM227.891 44.7215L227.891 42.3722C227.891 40.8061 227.891 39.2402 227.891 37.6746V37.6673C227.891 33.2808 227.891 31.0824 226.793 30.0317C225.689 28.976 223.478 29.0786 219.044 29.2845L218.863 29.2929C215.091 29.4672 213.254 31.3134 213.229 34.9674C213.197 39.4931 213.206 44.0191 213.214 48.5453C213.217 50.3752 213.221 52.2051 213.221 54.035C213.222 57.5531 215.098 59.3942 218.511 59.7079C219.409 59.7903 220.313 59.7867 221.219 59.7831H221.219C221.982 59.7801 222.745 59.7771 223.504 59.8256C226.645 60.0283 228.09 58.7719 227.928 55.4975C227.802 52.9775 227.833 50.4501 227.864 47.9225C227.877 46.8553 227.89 45.7881 227.891 44.7215ZM208.62 72.4853C201.094 69.9125 198.464 64.4807 198.361 57.5781C198.232 48.881 198.168 40.1773 198.366 31.4828C198.595 21.4434 203.417 16.5172 213.487 16.1251C221.244 15.8223 229.023 15.8907 236.79 15.9883C241.459 16.0467 242.715 17.3506 242.723 22.0408C242.771 47.7256 242.77 73.4096 242.712 99.0936C242.702 103.501 241.256 104.822 237.036 104.966C230.094 105.203 228.217 104.224 228.021 99.399C227.873 95.7505 227.883 92.0959 227.894 88.4411V88.4401C227.903 85.3278 227.912 82.2155 227.823 79.1067C227.786 77.8273 227.362 76.5593 226.938 75.2916L226.938 75.2911L226.938 75.2906L226.937 75.2901L226.937 75.2896L226.937 75.2892L226.937 75.2887L226.937 75.2882C226.743 74.7087 226.549 74.1293 226.393 73.5489C225.977 73.9872 225.522 74.405 225.067 74.8228L225.067 74.823C224.077 75.7316 223.088 76.6402 222.507 77.7586C219.996 82.5934 217.623 87.4993 215.251 92.4051L215.25 92.4074L215.249 92.4097L215.248 92.412C214.32 94.3317 213.391 96.2514 212.455 98.1668C209.378 104.459 207.821 105.361 200.764 104.965C196.313 104.716 194.819 102.406 196.667 98.352C198.891 93.4774 201.164 88.6265 203.438 83.7758L203.446 83.7593C204.563 81.3748 205.681 78.9903 206.793 76.6031C207.171 75.7907 207.53 74.9699 207.94 74.0318L207.941 74.0305C208.151 73.551 208.374 73.0407 208.62 72.4853ZM387.13 60.0863C388.275 59.4332 389.474 58.7483 390.758 58.0214C390.758 60.9831 390.773 63.8718 390.786 66.7088C390.82 73.4765 390.852 79.9501 390.686 86.4192C390.577 90.6464 387.869 92.0095 381.693 91.7042C377.686 91.5065 375.98 89.8472 375.91 85.7777C375.86 82.8179 375.875 79.8572 375.89 76.8964C375.899 75.0368 375.909 73.1772 375.902 71.3177C375.891 67.9782 377.322 65.5505 380.28 63.9387C382.494 62.7324 384.685 61.482 387.13 60.0868L387.13 60.0863ZM405.363 69.9815C405.308 66.8063 405.253 63.6311 405.253 60.4599C405.231 60.4595 405.209 60.4589 405.187 60.4582C405.165 60.4576 405.143 60.457 405.12 60.4566C405.12 57.2341 405.167 54.0085 405.215 50.783C405.326 43.2482 405.437 35.7136 404.942 28.2187C404.435 20.5411 399.292 16.5142 391.556 16.1938C384.632 15.9069 377.691 15.9194 370.757 15.9603C365.224 15.9928 364.052 17.2517 364.049 22.5241C364.045 27.8066 365.48 29.2215 371.078 29.2899C375.794 29.3466 380.512 29.3908 385.226 29.3016C388.474 29.2407 390.039 30.9484 390.647 33.8624C391.526 38.0804 389.831 42.3042 386.142 44.5174C382.131 46.9221 378.057 49.2236 373.983 51.5247L373.983 51.525L373.982 51.5256L373.962 51.537C373.226 51.9524 372.491 52.3679 371.756 52.784C365.754 56.1802 361.393 60.9096 361.03 68.0057C360.649 75.4405 360.678 82.9212 361.012 90.3602C361.426 99.6371 366.938 104.725 376.232 104.935C380.807 105.038 385.387 105.023 389.963 104.943C399.108 104.785 404.402 100.866 405.072 91.8786C405.614 84.6125 405.488 77.297 405.363 69.9815ZM90.0402 58.0483C88.7692 58.7811 87.5512 59.462 86.3782 60.1177C83.5961 61.6729 81.0676 63.0863 78.6886 64.7148C77.3613 65.6232 75.9823 67.4544 75.8755 68.9544C75.4417 74.9885 75.1614 81.0752 75.4901 87.1052C75.7045 91.0595 78.455 92.1148 84.5834 91.711C88.0939 91.4791 89.9843 89.6396 90.0135 86.2083C90.0692 79.7398 90.0592 73.2705 90.0488 66.4981C90.0445 63.7386 90.0402 60.9288 90.0402 58.0483ZM105.02 60.5518C105.02 63.2464 105.025 65.9409 105.029 68.6354C105.039 74.9232 105.049 81.2111 105.011 87.4989C104.935 99.739 99.7166 104.929 87.5366 104.964C86.49 104.967 85.443 104.976 84.3959 104.984H84.3954H84.3949H84.3944H84.3939H84.3934H84.393C81.1349 105.012 77.8758 105.039 74.6258 104.888C66.4159 104.509 61.357 99.9075 60.8064 91.7845C60.3574 85.1676 60.3606 78.5144 60.3638 71.8728C60.3641 71.1966 60.3644 70.5205 60.3643 69.8445C60.3618 61.8383 64.5639 56.4156 71.3997 52.6557C76.1291 50.0545 80.8117 47.3615 85.4293 44.5676C89.5914 42.0482 91.5302 37.112 89.5555 32.8056C88.8347 31.2347 86.4321 29.6638 84.6559 29.4844C81.5039 29.1671 78.3166 29.2144 75.1274 29.2617C73.5873 29.2846 72.0468 29.3074 70.5096 29.2892C65.0236 29.2258 63.3359 27.599 63.3401 22.5143C63.3442 17.5321 64.8384 16.0113 70.1817 15.9554L71.4102 15.9424C77.2486 15.8801 83.0935 15.8178 88.9223 16.0555C100.064 16.5094 104.871 21.5532 104.997 32.7764C105.069 39.1462 105.052 45.5168 105.035 51.8874C105.027 54.7756 105.019 57.6638 105.02 60.5518ZM305.681 50.2947C305.684 53.6964 305.686 57.0981 305.687 60.4997C305.687 63.6841 305.68 66.8687 305.673 70.0532V70.0574C305.651 79.5875 305.629 89.1174 305.815 98.6441C305.854 100.64 307.045 103.596 308.6 104.411C315.088 107.807 320.524 104.222 320.549 96.9355C320.562 93.3571 320.559 89.7784 320.557 86.1998C320.552 79.2739 320.547 72.3482 320.651 65.4243C320.665 64.5027 321.225 63.5893 321.784 62.6761C322.043 62.2534 322.302 61.8308 322.507 61.4074C322.863 61.7315 323.27 62.035 323.677 62.3384C324.566 63.0004 325.455 63.6623 325.804 64.5375C327.177 67.9711 328.35 71.4834 329.523 74.9959L329.524 74.9993L329.525 75.0026L329.526 75.0059L329.527 75.0092C329.968 76.3311 330.41 77.6531 330.862 78.9708C331.59 81.0921 332.306 83.218 333.022 85.3438C334.724 90.4013 336.427 95.4588 338.293 100.456C339.879 104.702 346.007 106.753 350.724 104.626C354.573 102.89 353.464 100.201 352.416 97.6586C352.198 97.1301 351.983 96.608 351.815 96.1021C350.283 91.4746 348.718 86.8576 347.153 82.2407C344.425 74.1945 341.697 66.1486 339.145 58.0479C338.341 55.4934 338.392 52.2732 339.17 49.6962C340.983 43.6956 343.015 37.7613 345.048 31.8268L345.049 31.824L345.05 31.8216L345.05 31.8195L345.051 31.8176C346.144 28.6275 347.236 25.4374 348.295 22.2369C349.594 18.3109 348.304 16.4105 344.31 15.99C337.096 15.2309 334.937 16.6566 332.597 23.5392L332.307 24.3941L332.306 24.3951L332.306 24.396C330.009 31.1559 327.712 37.9172 325.22 44.6056C324.916 45.4235 324.124 46.0619 323.332 46.7001C322.967 46.9942 322.602 47.2882 322.285 47.5997C322.104 47.2105 321.877 46.8225 321.65 46.4344C321.158 45.592 320.665 44.7497 320.645 43.8965C320.556 40.1226 320.562 36.3471 320.568 32.5716V32.5679C320.574 29.2955 320.579 26.023 320.522 22.7516C320.426 17.1647 318.771 15.8424 312.589 15.9341C306.913 16.0184 305.718 17.1355 305.699 22.7675C305.666 31.943 305.674 41.1189 305.681 50.2947ZM676.742 60.3164C676.741 57.6233 676.735 54.9301 676.729 52.237C676.714 45.8085 676.7 39.3802 676.754 32.9522C676.852 21.4454 681.567 16.485 693.023 16.0462C698.147 15.8485 703.306 15.9152 708.422 16.2572C715.378 16.7194 720.41 21.5756 720.896 28.4681C721.323 34.5215 721.347 40.6198 721.207 46.6898C721.106 51.0888 719.1 52.457 713.894 52.4511C708.8 52.4461 706.786 50.937 706.579 46.6089C706.491 44.78 706.505 42.946 706.518 41.1121C706.532 39.2126 706.546 37.313 706.448 35.4191C706.182 30.2835 704.412 29.1047 697.862 29.3091C693.314 29.4509 691.717 31.0051 691.705 35.6961C691.661 52.2801 691.657 68.865 691.708 85.449C691.722 89.9631 693.491 91.6433 698.047 91.6942C700.383 91.7212 702.72 91.7133 705.057 91.7054C707.997 91.6955 710.938 91.6856 713.877 91.7451C718.158 91.831 719.954 93.8983 719.967 98.3924C719.979 103.023 718.324 104.909 713.944 104.949C706.862 105.013 699.779 105.026 692.698 104.947C682.458 104.831 677.148 99.5812 676.762 89.3391C676.752 89.063 676.746 88.786 676.746 88.5099L676.746 83.1199C676.745 75.5188 676.745 67.9176 676.742 60.3164ZM266.697 57.3612C266.706 60.3299 266.715 63.2985 266.715 66.267C266.716 69.0632 266.706 71.8597 266.697 74.6562V74.6594C266.67 82.6362 266.643 90.6129 266.845 98.5841C266.896 100.599 268.088 103.544 269.662 104.393C276.055 107.844 281.655 104.219 281.66 97.0415C281.669 83.9376 281.668 70.8337 281.667 57.7298V57.6124C281.666 50.1754 281.665 42.7383 281.667 35.3013C281.667 29.3147 281.675 29.3147 287.634 29.3014C296.864 29.2805 297.59 28.4738 296.555 19.3964C296.55 19.3487 296.552 19.2941 296.555 19.2402C296.559 19.1383 296.564 19.0387 296.514 18.9917C296.189 18.6778 295.863 18.2838 295.536 17.8887C294.806 17.005 294.07 16.1157 293.323 16.1036C280.559 15.8983 267.789 15.8967 255.024 16.0936C253.929 16.1111 252.105 17.7963 251.898 18.9367C250.259 27.9799 251.443 29.283 260.578 29.3014C260.709 29.3017 260.841 29.3065 260.972 29.3114C261.259 29.3221 261.546 29.3327 261.826 29.2956C265.782 28.7683 266.83 30.7021 266.772 34.3619C266.652 42.0251 266.675 49.6909 266.697 57.3564V57.3612ZM457.66 65.8417C457.66 62.6171 457.661 59.3925 457.661 56.168C457.662 49.0271 457.663 41.8863 457.656 34.7459C457.651 29.3207 457.639 29.3199 452.019 29.3016C451.519 29.3001 451.019 29.3004 450.52 29.3007C450.186 29.3009 449.853 29.3011 449.52 29.3007C442.942 29.294 442.776 29.128 442.776 22.5642C442.776 15.9527 442.792 15.9311 449.546 15.9285C452.86 15.9271 456.173 15.9344 459.487 15.9417C467.283 15.959 475.08 15.9763 482.875 15.8785C486.444 15.8343 487.746 17.0231 487.685 20.6896L487.677 21.1711C487.545 29.2891 487.545 29.2909 479.146 29.3016C472.663 29.3091 472.658 29.3091 472.657 35.7019C472.656 42.4585 472.656 49.215 472.657 55.9714C472.658 69.9457 472.659 83.9198 472.648 97.8943C472.643 103.803 471.471 104.946 465.613 104.969C459.195 104.994 457.7 103.692 457.674 97.7675C457.643 90.2936 457.649 82.8194 457.655 75.3453C457.658 72.1773 457.661 69.0095 457.66 65.8417ZM742.677 56.7713C742.684 59.6968 742.69 62.6222 742.691 65.5476C742.691 69.1056 742.691 72.6635 742.69 76.2215C742.689 83.029 742.688 89.8364 742.695 96.6434C742.702 103.639 743.936 104.971 750.351 104.969C756.761 104.967 757.684 103.971 757.686 96.9445C757.689 83.5247 757.688 70.1055 757.688 56.6862C757.688 49.9275 757.688 43.1687 757.688 36.4098C757.689 29.3061 757.69 29.3061 764.716 29.302C768.7 29.2995 770.688 29.2982 771.677 28.3036C772.661 27.3133 772.654 25.3382 772.639 21.3966C772.622 16.0658 772.516 15.9406 766.952 15.9323C755.982 15.9156 745.011 15.9198 734.041 15.9298C727.937 15.9365 727.818 16.0716 727.808 22.2701C727.796 29.2069 727.883 29.2953 734.674 29.3011C735.062 29.3017 735.451 29.3122 735.841 29.3227C736.704 29.346 737.568 29.3693 738.421 29.2836C741.719 28.9533 742.783 30.419 742.742 33.6225C742.642 41.3377 742.66 49.0546 742.677 56.7713Z" fill="white"/>
</svg>
