<svg width="1920" height="504" viewBox="0 0 1920 504" fill="none" xmlns="http://www.w3.org/2000/svg">
<path fill-rule="evenodd" clip-rule="evenodd" d="M1459.55 0C1459.26 0 1458.97 0.00524894 1458.66 0.0157468C1454.21 0.14697 1450.26 1.74265 1447.09 2.4565C1435.44 5.11247 1419.71 5.66361 1407.73 8.21984C1401.93 9.45334 1396.16 10.3824 1388.95 11.0123C1385.5 11.322 1381.61 11.2327 1378.53 11.7419C1374.53 12.4137 1371.59 13.6787 1368.16 14.5501C1362.5 15.9988 1355.51 16.8543 1349.31 18.0878C1341.91 19.5628 1337.61 21.2949 1329.6 22.5809C1322.99 23.6517 1318.87 25.6358 1312.34 26.6331C1305.35 27.6934 1299.16 26.4179 1292.15 26.2919C1280.8 26.0767 1280.14 27.2472 1272.69 29.1526C1269.33 30.0134 1265.16 30.6538 1262.16 31.6354C1259.31 32.5539 1258 33.6719 1255.75 34.685C1248.79 37.8344 1233.37 42.1542 1218.61 42.7316C1217.26 42.7894 1215.83 42.7474 1214.42 42.7054C1213.19 42.6739 1211.98 42.6371 1210.81 42.6581C1206.93 42.7474 1204.04 43.1463 1200.25 43.33C1192.27 43.7184 1187.34 43.7237 1179.7 44.8154C1173.43 45.7078 1166.8 46.4636 1160.6 47.3664C1157.4 47.8388 1154.27 48.5055 1151.33 49.0828C1148.61 49.6287 1145.16 50.7992 1142.11 51.1299C1132.26 52.206 1132.86 48.2745 1127.66 47.3087C1122.81 46.4059 1112.66 46.8153 1107.69 47.4557C1100.85 48.3322 1096.66 50.0906 1089.9 51.0617C1082.38 52.1482 1074.94 52.8568 1067.52 53.9014C1061.41 54.7569 1056.18 56.0114 1049.76 56.7358C1045.78 57.1924 1041.13 57.3657 1037.63 58.0428C1033.97 58.7409 1031.71 59.8484 1027.89 60.5098C1022.09 61.5228 1016.07 61.9217 1009.38 61.9007C1007.79 61.9007 1006.2 61.906 1004.61 61.9165C1002.65 61.927 1000.69 61.9322 998.74 61.9217C993.321 61.885 989.379 61.3129 984.137 61.1554C978.007 60.9717 971.301 61.1921 965.124 61.1921C961.527 61.1921 957.931 61.2079 954.341 61.1869C950.561 61.1764 947.046 60.62 943.903 60.5885C939.548 60.536 939.291 61.2919 936.114 61.9322C933.201 62.5044 928.853 62.961 925.331 63.1815C918.429 63.6224 909.325 63.4439 902.207 63.3442C895.277 63.2497 891.64 62.7563 888.396 61.0504C886.445 60.0269 886.154 59.166 882.666 58.4837C878.778 57.7278 872.208 57.035 867.859 56.3631C854.224 54.2688 838.768 52.8831 826.528 50.1484C819.647 48.6052 815.61 47.7024 806.337 47.6499C799.923 47.6079 792.269 47.3297 786.633 48.075C774.069 49.739 761.64 52.7413 747.091 52.6521C746.38 52.6521 745.716 52.6521 745.086 52.6521C742.505 52.6574 740.419 52.6626 738.021 52.2584C733.368 51.4764 734.56 50.4003 727.773 50.6208C724.657 50.7258 722.063 51.1562 718.69 51.2244C714.227 51.3084 711.341 51.5603 707.128 51.849C703.443 52.101 700.213 52.164 696.738 52.6206C692.606 53.1613 690.276 53.8541 685.508 54.1061C679.412 54.4315 673.932 54.8934 667.836 55.4078C654.229 56.5468 635.284 58.3472 622.516 55.8802C607.797 53.051 593.289 50.0644 580.535 46.5948C567.848 43.1515 555.873 40.0442 540.857 37.341C528.495 35.1154 515.47 32.4384 499.919 32.6904C484.929 32.9266 473.042 34.874 459.184 36.2072C457.308 36.3857 452.905 36.9473 451.137 36.921C446.999 36.8476 443.565 35.2834 440.713 34.5275C435.03 33.0158 424.721 33.1313 416.905 33.3938C409.563 33.63 403.839 35.4408 398.109 36.6586C392.832 37.7819 385.212 38.0758 378.426 38.4432C359.982 39.4563 349.476 34.3018 335.489 32.1603C320.039 29.7877 306.425 26.5649 291.097 24.1661C277.957 22.1085 267.628 18.3398 256.065 15.6261C250.159 14.2299 243.799 12.545 238.516 10.9965C236.01 10.2617 234.56 9.45334 231.499 8.83397C227.909 8.10961 223.601 7.76843 219.869 7.11756C213.082 5.9313 206.593 4.26214 199.739 3.20185C192.782 2.12057 184.681 3.32258 177.448 3.52204C161.957 3.9367 150.957 7.82617 140.499 10.6396C134.322 12.3088 128.172 13.9832 121.954 15.6418C114.55 17.6154 108.874 19.883 101.464 21.8671C87.7213 25.5518 71.7363 28.4388 58.0609 32.1393C43.3899 36.1075 32.7151 40.6898 18.945 44.8574C12.7609 46.7261 6.30596 48.5055 0 50.3163V125.507C1.57141 125.187 3.10896 124.872 4.70069 124.563C11.8872 123.166 19.0059 121.376 26.9917 120.253C33.7515 119.303 39.861 118.61 46.2076 117.44C53.5296 116.086 58.5486 114.779 64.6243 113.167C69.9684 111.755 75.0349 110.228 80.9344 108.895C86.5969 107.619 93.1671 106.674 98.7347 105.378C105 103.913 109.118 102.381 115.77 101.068C128.734 98.4964 143.181 95.7984 152.826 92.5388C157.514 90.9536 158.841 89.5574 164.605 88.2347C171.142 86.7282 175.28 84.7441 181.769 83.2429C185.481 83.5684 184.858 84.6864 187.384 85.4055C191.915 85.2008 195.248 83.6943 199.312 83.0645C204.473 82.2719 209.221 81.3953 214.321 80.5502C222.544 79.1908 228.512 77.2591 236.619 75.7684C243.081 74.5874 253.864 72.976 262.182 73.249C271.123 73.5429 280.124 75.7212 286.579 77.2067C296.197 79.4165 307.942 81.1329 317.899 83.2587C326.163 85.0223 334.23 86.9172 342.94 88.5444C347.363 89.3737 349.612 89.8409 353.269 90.9379C357.096 92.0874 360.625 92.4181 365.766 93.1792C371.727 94.061 374.03 95.2315 378.717 96.3758C383.187 97.4728 389.507 98.3336 394.627 99.2574C410.965 102.213 422.181 105.714 443.172 106.69C448.861 106.952 453.176 106.947 458.696 107.467C462.469 107.818 466.452 108.28 470.279 108.564C474.939 108.915 478.102 108.674 481.455 108.438C483.778 108.27 486.189 108.107 489.257 108.133C493.755 108.175 500.521 108.8 504.274 109.393C507.417 109.881 509.239 110.826 512.937 111.104C524.567 111.976 526.653 109.582 534.916 108.574C540.687 107.876 552.574 106.564 558.704 106.8C565.6 107.057 571.086 108.123 576.965 108.889C587.464 110.259 592.192 111.96 600.645 113.881C604.648 114.794 609.308 115.97 613.71 116.784C617.145 117.419 621.229 117.587 624.886 118.133C639.11 120.253 653.422 122.379 668.432 124.195C672.774 124.725 677.143 125.245 681.051 125.954C686.016 126.846 689.538 128.363 694.841 129.098C702.17 130.116 708.259 129.134 714.992 128.137C723.337 126.904 728.688 125.927 738.672 125.975C743.514 125.996 745.98 125.933 749.915 126.646C753.024 127.203 754.941 128.379 758.727 128.735C764.85 129.318 766.401 128.074 770.499 127.371C774.462 126.688 777.374 126.946 781.743 126.557C789.946 125.828 796.191 123.576 801.758 122.059C804.84 121.219 806.411 120.185 809.615 119.377C814.357 118.18 816.531 118.117 819.789 116.747C824.55 114.758 827.903 113.818 835.686 112.432C844.166 110.931 851.982 110.348 857.042 108.034C861.946 105.777 868.692 105.031 877.917 103.877C884.725 103.031 896.341 102.769 903.893 103.341C913.945 104.102 913.376 105.121 922.974 103.646C931.142 102.396 934.929 100.811 940.706 98.9268C947.737 96.6487 951.117 96.0503 963.099 96.0818C970.902 96.1028 980.256 96.528 986.602 95.4047C992.102 94.4284 999.661 93.5518 1004.36 92.3971C1012.1 90.4917 1014.87 88.8121 1024.35 87.3948C1032.75 86.1351 1035.33 83.6051 1044.58 82.5238C1052.01 81.663 1060.32 81.1854 1067.89 80.4243C1072.14 79.9938 1077.91 79.7576 1081.47 79.0543C1085.12 78.3247 1085.14 77.0492 1090.42 76.8445C1095.77 77.9625 1089.73 80.4505 1099.02 79.9623C1104.95 79.6474 1109.14 77.9205 1112.39 76.855C1116.48 75.506 1120.96 73.9051 1125.72 72.7083C1130.17 71.5903 1135.75 71.3488 1141.62 70.8082C1149.93 70.0366 1162.57 68.5617 1171.59 69.0813C1186.31 69.9316 1192.82 73.0652 1201.18 75.7107C1209.78 78.4244 1218.45 81.0174 1226.26 83.8151C1230.02 85.164 1235.52 86.2768 1239.65 87.5628C1244.16 88.9695 1249.36 89.3055 1255.27 90.371C1260.98 91.3998 1265.49 92.7593 1270.61 93.9455C1276.26 95.242 1282.78 96.2236 1288.48 97.4991C1293.64 98.6591 1300.29 99.5094 1304.87 100.769C1308.9 101.882 1311.75 103.236 1315.78 104.354C1324.2 103.488 1335.41 102.643 1344.7 103.152C1355.78 103.751 1359.96 107.325 1371.36 108.223C1374.22 108.448 1377.18 108.669 1380.18 108.889C1391.53 105.378 1401.81 101.604 1413.46 98.1814C1417.74 96.9269 1420.33 95.2368 1425.17 94.1397C1428.62 93.3524 1433.26 93.0322 1436.82 92.2134C1444.28 90.5022 1450.57 89.1532 1459.26 87.8305C1467.67 86.555 1477.86 86.5235 1487.04 86.1351C1494.82 85.8044 1502.99 85.0171 1509.46 85.8412C1517.56 86.8752 1522.88 89.4367 1529.52 90.9169C1535.16 92.1661 1542.91 95.9926 1553.72 94.6016C1562.8 93.4364 1566.97 90.0456 1577.43 91.4995C1581.44 92.0507 1583.16 93.0007 1588.03 93.1739C1594.07 93.3944 1596.16 93.1004 1601.14 94.0715C1614.88 96.7485 1624.78 100.444 1639.48 102.795C1649.16 104.333 1655.61 106.622 1663.13 108.737C1669.75 110.59 1677.07 112.18 1685.2 113.676C1693.2 115.156 1702.66 116.327 1711.5 117.534C1719.83 118.679 1726.17 120.589 1734.7 121.355C1738.97 121.739 1746.24 123.35 1751.08 123.277C1756.35 123.198 1757.58 121.985 1761.98 121.471C1773.12 120.164 1776.91 122.463 1784.26 123.408C1791.18 124.305 1798.53 121.796 1806.8 119.287C1814.37 116.988 1822.7 114.689 1832.17 115.01C1841.29 115.324 1848.6 117.597 1855.16 118.909C1863.12 120.5 1871.98 121.628 1878.87 123.439C1883.32 124.615 1888.2 125.728 1893.23 126.814C1897.63 126.08 1902.05 125.334 1906.3 124.578C1910.67 123.801 1914.93 122.846 1920 122.463V84.6549C1907.41 81.9832 1894.36 78.6081 1884.72 75.2698C1874.28 71.6533 1864.46 67.8845 1852.48 64.5935C1844.63 62.4361 1836.57 60.3576 1829.1 58.111C1826.62 57.3657 1823.78 56.9457 1821.23 56.2634C1817.36 55.2293 1816.63 53.7649 1813.44 52.6311C1808.95 51.0302 1805.14 49.1353 1800.14 47.6236C1794.38 45.8862 1786.57 44.7105 1780.88 43.0623C1777.04 41.9495 1775.16 40.7318 1770.41 39.7922C1766.61 39.0416 1763.36 38.3592 1759.86 37.5037C1756.95 36.7898 1753.67 36.055 1749.88 35.7033C1746.3 35.3674 1744.03 34.9632 1740.69 34.5538C1737.85 34.2021 1734.84 33.8662 1731.43 34.0814C1727.92 34.3071 1726.22 35.1049 1722.91 35.4356C1720.78 35.656 1718.63 35.6036 1716.48 35.5511C1715.07 35.5143 1713.67 35.4776 1712.28 35.5196C1707.85 35.6508 1704.22 36.2282 1699.72 36.2964C1691.49 36.4224 1685.77 36.3227 1678.06 37.1625C1671.08 37.9288 1660.37 39.1991 1653.38 38.0181C1645.82 36.7373 1645.3 35.5143 1635.71 36.0812C1626.74 36.6061 1621.62 37.5089 1613.51 35.95C1605.19 34.3438 1598.52 32.4699 1591.24 30.5383C1584.96 28.8692 1580.48 26.8903 1574.22 25.2369C1568 23.5887 1562.06 21.8618 1555.77 20.2347C1548.96 18.4763 1539.37 17.5944 1531.94 15.9148C1517.36 12.6237 1500.6 9.54782 1487.21 5.94705C1484.06 5.09672 1482.46 3.92621 1479.16 3.11262C1475.97 2.32003 1472.22 2.26229 1468.71 1.67441C1465.11 1.06553 1463.95 0.00524894 1459.58 0H1459.55Z" fill="#2E3D4F"/>
<path fill-rule="evenodd" clip-rule="evenodd" d="M1142.27 63.628C1136.4 64.1733 1130.81 64.4168 1126.36 65.5446C1121.6 66.7517 1117.12 68.3665 1113.02 69.7272C1109.77 70.802 1105.57 72.5439 1099.64 72.8615C1090.35 73.3539 1096.4 70.8443 1091.04 69.7166C1085.76 69.9231 1085.74 71.2096 1082.08 71.9456C1078.52 72.655 1072.75 72.8933 1068.5 73.3274C1060.92 74.0951 1052.61 74.5769 1045.17 75.4452C1035.92 76.5359 1033.34 79.0878 1024.93 80.3585C1015.45 81.788 1012.68 83.4822 1004.93 85.4041C1000.23 86.5689 992.667 87.4531 987.164 88.4378C980.813 89.5709 971.454 89.142 963.647 89.1208C951.658 89.0891 948.276 89.6926 941.242 91.9904C935.461 93.8912 931.672 95.4901 923.499 96.7502C913.896 98.2379 914.465 97.2108 904.408 96.4431C896.851 95.866 885.228 96.1307 878.417 96.9831C869.187 98.1479 862.437 98.8997 857.53 101.176C852.467 103.511 844.646 104.099 836.161 105.613C828.374 107.011 825.02 107.959 820.255 109.965C816.996 111.347 814.82 111.411 810.076 112.618C806.87 113.433 805.298 114.476 802.215 115.323C796.644 116.853 790.395 119.125 782.188 119.861C777.817 120.252 774.903 119.993 770.938 120.681C766.838 121.391 765.286 122.645 759.159 122.058C755.371 121.698 753.453 120.512 750.342 119.951C746.404 119.23 743.938 119.294 739.092 119.273C729.102 119.225 723.748 120.21 715.399 121.454C708.662 122.46 702.57 123.45 695.237 122.423C689.93 121.682 686.406 120.152 681.438 119.252C677.528 118.537 673.157 118.013 668.813 117.478C653.794 115.646 639.474 113.502 625.242 111.363C621.582 110.812 617.496 110.643 614.06 110.002C609.655 109.182 604.992 107.996 600.987 107.074C592.529 105.137 587.798 103.421 577.294 102.039C571.411 101.266 565.922 100.192 559.022 99.9321C552.889 99.6939 540.995 101.018 535.221 101.722C526.953 102.738 524.865 105.152 513.229 104.274C509.529 103.993 507.706 103.04 504.561 102.548C500.806 101.949 494.036 101.319 489.536 101.277C486.466 101.25 484.053 101.415 481.729 101.584C478.374 101.822 475.209 102.066 470.546 101.711C466.717 101.425 462.732 100.959 458.957 100.605C453.434 100.08 449.117 100.086 443.424 99.821C422.421 98.8362 411.198 95.3048 394.852 92.324C389.728 91.3922 383.405 90.5239 378.932 89.4173C374.243 88.2631 371.938 87.0825 365.974 86.193C360.831 85.4253 357.3 85.0917 353.47 83.9323C349.811 82.8257 347.561 82.3545 343.135 81.518C334.42 79.8767 326.348 77.9654 318.08 76.1864C308.118 74.0422 296.366 72.3109 286.742 70.0819C280.284 68.5836 271.277 66.3864 262.331 66.0899C254.009 65.8146 243.219 67.44 236.754 68.6312C228.642 70.1349 222.671 72.0832 214.443 73.4545C209.34 74.3069 204.589 75.1911 199.425 75.9906C195.359 76.6259 192.025 78.1454 187.491 78.3519C184.963 77.6265 185.586 76.4988 181.872 76.1706C175.38 77.6848 171.239 79.6861 164.699 81.2056C158.932 82.5398 157.603 83.9481 152.913 85.5471C143.263 88.8349 128.807 91.5563 115.836 94.1506C109.18 95.4742 105.06 97.0202 98.7909 98.4973C93.2201 99.8051 86.6462 100.758 80.9805 102.045C75.0776 103.389 70.0082 104.93 64.6611 106.354C58.5819 107.98 53.56 109.298 46.2339 110.664C39.8837 111.845 33.7707 112.544 27.0071 113.502C19.0168 114.635 11.8939 116.44 4.70336 117.849C3.11072 118.161 1.57231 118.479 0 118.802V177.613C6.20112 178.566 12.4158 179.519 18.4068 180.567C26.0176 181.901 33.8859 183.066 41.5509 184.352C49.7513 185.724 56.5284 187.423 65.3998 188.54C74.8133 189.732 81.2516 191.526 89.8722 193.078C96.5951 194.285 103.569 195.566 109.628 197.006C112.339 197.657 116.839 198.515 119.021 199.278C120.817 199.908 121.379 200.665 122.586 201.353C123.812 200.956 124.89 200.532 126.937 199.976C132.155 198.552 132.873 199.251 137.875 200.103C141.291 200.691 145.221 201.761 149.023 202.131C155.435 202.772 164.889 200.914 171.347 199.945C179.893 198.663 186.908 197.149 194.763 195.683C199.92 194.724 204.176 194.438 208.263 193.099C211.909 191.908 214.694 190.637 218.564 189.467C225.104 187.476 229.441 185.041 236.232 183.098C239.465 182.176 243.728 181.732 246.323 180.715C248.892 179.709 249.739 178.571 252.409 177.528C255.662 176.257 258.278 174.87 261.579 173.626C264.933 172.366 269.752 171.603 274.076 170.582C278.23 169.597 278.827 169.126 281.219 167.945C284.52 166.33 286.038 166.245 290.924 165.128C305.163 161.856 314.603 155.937 333.79 155.085C345.27 154.576 347.418 156.091 355.958 157.319C359.746 157.864 362.83 158.203 366.239 158.918C370.054 159.717 372.928 159.855 377.468 160.39C386.753 161.48 393.564 163.418 403.54 164.318C407.546 164.678 411.402 165.255 415.414 165.562C420.26 165.938 425.593 165.562 430.608 165.981C441.696 166.891 453.502 168.57 461.045 170.672C463.796 171.434 466.114 172.895 471.251 172.916C475.324 172.932 477.75 171.805 481.593 171.656C487.089 171.45 489.285 173.038 494.083 173.276C498.699 173.504 501.775 173.001 505.313 172.202C509.583 171.238 509.833 170.703 515.56 170.269C519.471 169.967 522.039 170.073 525.936 169.464C532.042 168.506 540.148 164.408 546.559 164.715C550.91 164.922 551.913 166.701 555.349 167.225C559.226 167.828 564.918 167.802 569.174 168.331C585.026 170.301 594.223 175.135 616.35 173.128C622.152 172.604 625.323 171.524 629.403 170.423C633.815 169.237 637.529 168.956 642.456 168.03C649.579 166.68 654.269 164.662 661.771 163.312C670.385 161.766 681.052 160.077 690.371 158.854C698.422 157.795 707.829 156.519 715.135 155.138C720.129 154.19 725.822 152.924 730.065 151.781C733.677 150.817 735.459 149.61 738.78 148.641C741.688 147.799 745.652 147.037 749.02 146.291C753.29 145.343 758.339 144.887 762.588 143.95C766.56 143.066 770.484 141.679 773.445 140.615C776.488 139.519 780.697 138.344 783.428 137.237C787.176 135.723 786.742 132.747 793.37 131.821C798.616 131.09 809.92 131.111 815.647 130.862C821.929 130.598 828.591 130.476 834.745 129.989C840.011 129.576 844.443 128.93 850.007 128.671C854.555 128.459 859.136 128.268 863.677 128.088C874.879 127.638 879.942 126.881 888.21 124.594C893.551 123.117 897.563 119.808 905.804 119.098C913.042 118.484 920.293 121.062 925.681 121.846C933.773 123.016 940.896 124.048 950.126 124.747C959.37 125.441 967.347 125.6 975.168 126.913C982.833 128.194 990.281 129.428 999.092 130.238C1011.47 131.381 1008.03 127.125 1019.7 126.489C1025.41 126.182 1036.37 128.289 1040.4 129.105C1047.11 130.465 1052.84 132.244 1059.56 133.679C1063.39 134.489 1065.01 135.966 1068.9 136.565C1073.31 137.248 1077.9 137.274 1081.77 138.301C1085.12 139.191 1086.96 139.974 1091.29 140.625C1097.29 141.52 1097.97 141.605 1101.19 143.061C1106.68 145.523 1115.88 144.697 1126.12 143.278C1128.81 142.907 1135.11 141.827 1137.36 141.34C1141.36 140.467 1142.01 139.397 1145.14 138.349C1150.34 136.612 1161.43 135.522 1169.02 134.722C1176 133.997 1183.59 134.457 1190.42 134.913C1199.13 135.5 1208.45 135.453 1216.2 133.483C1223.64 131.588 1229.5 130.82 1238.46 129.47C1248.14 128.009 1253.32 125.764 1262.05 124.117C1266.2 123.334 1270.92 122.725 1275.08 121.968C1279.21 121.211 1282.12 120.226 1286.34 119.474C1289.03 118.998 1292.01 118.828 1294.69 118.267C1296.97 117.796 1297.7 117.081 1300.44 116.668C1302.82 116.319 1306.94 116.086 1309.33 116.25C1314.09 116.583 1313.8 118.6 1319.65 118.288C1323.19 118.092 1329.9 116.446 1332.32 115.916C1348.11 112.438 1358.92 108.419 1372.88 104.491C1375.68 103.702 1378.32 102.871 1380.97 102.039C1377.96 101.817 1375 101.595 1372.14 101.367C1360.74 100.462 1356.55 96.8561 1345.47 96.2525C1336.17 95.7389 1324.95 96.5913 1316.53 97.4649C1312.5 96.3372 1309.64 94.9712 1305.62 93.8488C1301.03 92.5781 1294.38 91.7204 1289.22 90.5503C1283.51 89.2638 1276.98 88.2737 1271.34 86.966C1266.21 85.7694 1261.7 84.3982 1255.99 83.3605C1250.07 82.2857 1244.87 81.9468 1240.36 80.5279C1236.22 79.2308 1230.72 78.1083 1226.96 76.7477C1219.14 73.9257 1210.46 71.3102 1201.86 68.573C1193.5 65.9046 1186.98 62.7438 1172.26 61.8861C1170.95 61.812 1169.57 61.7749 1168.14 61.7749C1159.67 61.7749 1149.39 62.9609 1142.27 63.628Z" fill="#2C4562"/>
<path fill-rule="evenodd" clip-rule="evenodd" d="M1855.04 111.429C1848.45 110.117 1841.13 107.844 1832 107.529C1812.17 106.847 1797.3 117.648 1783.99 115.927C1776.63 114.982 1772.83 112.683 1761.66 113.99C1757.26 114.504 1756.03 115.712 1750.74 115.796C1745.89 115.869 1738.6 114.258 1734.32 113.875C1725.8 113.108 1719.44 111.198 1711.09 110.059C1702.23 108.847 1692.75 107.676 1684.73 106.196C1676.59 104.7 1669.25 103.115 1662.62 101.257C1655.08 99.1423 1648.62 96.854 1638.93 95.311C1624.2 92.9649 1614.27 89.27 1600.51 86.5933C1595.52 85.6224 1593.43 85.9163 1587.37 85.6959C1582.48 85.5227 1580.76 84.5727 1576.76 84.0216C1566.27 82.5678 1562.09 85.9583 1553 87.1234C1542.16 88.509 1534.39 84.6934 1528.75 83.4391C1522.09 81.959 1516.76 79.3978 1508.64 78.3638C1502.15 77.5398 1493.98 78.3271 1486.18 78.6577C1476.97 79.0461 1466.77 79.0776 1458.34 80.3582C1449.63 81.6808 1443.32 83.0192 1435.86 84.7354C1432.29 85.5542 1427.64 85.8743 1424.18 86.6616C1419.33 87.7637 1416.74 89.4485 1412.45 90.7029C1400.77 94.1248 1390.47 97.8984 1379.11 101.415C1376.46 102.234 1373.81 103.058 1371.01 103.84C1357.03 107.734 1346.2 111.717 1330.39 115.166C1327.97 115.691 1321.24 117.328 1317.7 117.517C1311.84 117.827 1312.13 115.827 1307.36 115.496C1304.97 115.334 1300.85 115.565 1298.47 115.916C1295.72 116.32 1294.99 117.029 1292.71 117.496C1290.02 118.052 1287.03 118.226 1284.34 118.698C1280.12 119.438 1277.2 120.414 1273.07 121.165C1268.91 121.92 1264.18 122.513 1260.02 123.295C1251.28 124.928 1246.09 127.148 1236.4 128.602C1227.42 129.94 1221.55 130.701 1214.1 132.58C1206.35 134.532 1197.01 134.58 1188.29 134.002C1181.46 133.546 1173.84 133.084 1166.85 133.813C1159.26 134.601 1148.16 135.682 1142.94 137.408C1139.81 138.442 1139.16 139.503 1135.15 140.369C1132.9 140.851 1126.6 141.922 1123.9 142.289C1113.64 143.696 1104.43 144.515 1098.93 142.069C1095.71 140.631 1095.03 140.547 1089.02 139.655C1084.69 139.014 1082.83 138.232 1079.49 137.356C1075.61 136.338 1071.01 136.306 1066.6 135.635C1062.7 135.041 1061.07 133.577 1057.24 132.769C1050.51 131.357 1044.77 129.588 1038.05 128.24C1034.02 127.431 1023.05 125.337 1017.33 125.647C1005.64 126.277 1009.08 130.496 996.687 129.363C987.865 128.56 980.406 127.332 972.737 126.061C964.905 124.765 956.91 124.608 947.653 123.92C938.409 123.233 931.276 122.204 923.173 121.044C917.777 120.272 910.515 117.711 903.267 118.32C895.014 119.018 891.003 122.304 885.648 123.768C877.368 126.035 872.305 126.786 861.08 127.232C856.533 127.41 851.938 127.599 847.391 127.809C841.819 128.066 837.38 128.707 832.107 129.116C825.945 129.594 819.273 129.72 812.982 129.987C807.247 130.229 795.92 130.208 790.667 130.932C784.036 131.85 784.47 134.8 780.717 136.301C777.982 137.393 773.768 138.558 770.72 139.644C767.755 140.704 763.825 142.08 759.841 142.956C755.592 143.885 750.536 144.336 746.254 145.276C742.888 146.016 738.917 146.772 736.006 147.611C732.68 148.567 730.895 149.763 727.278 150.724C723.029 151.852 717.328 153.106 712.327 154.046C705.01 155.416 695.59 156.686 687.528 157.73C678.196 158.943 667.513 160.617 658.887 162.155C651.374 163.488 646.685 165.487 639.545 166.826C634.611 167.744 630.885 168.022 626.473 169.198C622.388 170.29 619.211 171.36 613.402 171.88C591.243 173.869 582.026 169.077 566.152 167.125C561.897 166.6 556.196 166.626 552.314 166.033C548.873 165.508 547.868 163.745 543.511 163.54C537.098 163.241 528.974 167.298 522.859 168.248C518.957 168.852 516.384 168.747 512.468 169.046C506.74 169.482 506.482 170.006 502.207 170.962C498.664 171.754 495.576 172.253 490.954 172.027C486.156 171.791 483.964 170.216 478.46 170.426C474.605 170.573 472.175 171.681 468.096 171.67C462.952 171.654 460.631 170.201 457.875 169.445C450.322 167.361 438.499 165.703 427.396 164.795C422.373 164.38 417.032 164.758 412.18 164.38C408.162 164.076 404.307 163.504 400.289 163.147C390.299 162.26 383.478 160.334 374.18 159.252C369.633 158.722 366.755 158.586 362.934 157.793C359.527 157.085 356.433 156.749 352.639 156.208C344.087 154.991 341.936 153.49 330.432 153.993C311.226 154.838 301.772 160.706 287.519 163.944C282.626 165.057 281.099 165.141 277.801 166.747C275.398 167.907 274.808 168.379 270.641 169.356C266.304 170.369 261.485 171.124 258.132 172.373C254.814 173.607 252.208 174.982 248.943 176.241C246.269 177.275 245.421 178.409 242.855 179.401C240.249 180.409 235.98 180.85 232.743 181.763C225.943 183.689 221.606 186.108 215.05 188.077C211.174 189.237 208.385 190.491 204.727 191.677C200.634 193.005 196.379 193.288 191.214 194.238C183.348 195.687 176.317 197.193 167.766 198.463C161.298 199.424 151.83 201.266 145.41 200.631C141.603 200.258 137.666 199.203 134.239 198.626C129.237 197.776 106.193 197.051 100.96 198.463C98.9241 199.014 59.2585 193.85 58.0301 194.238C58.3966 194.448 2.58734 172.184 3.12349 172.373C6.10969 173.439 -5.21072 504.653 3.12349 503.997C10.3388 503.432 1920 503.997 1920 503.997V124.298C1910.72 122.828 1901.66 121.154 1893.18 119.333C1888.14 118.247 1883.24 117.134 1878.78 115.958C1871.9 114.148 1863 113.019 1855.04 111.429Z" fill="#2E4A6B"/>
</svg>
