<svg width="259" height="107" viewBox="0 0 259 107" fill="none" xmlns="http://www.w3.org/2000/svg">
<path fill-rule="evenodd" clip-rule="evenodd" d="M30.6438 53.2426C30.6438 50.1129 30.6455 46.9833 30.6473 43.8537C30.6516 36.1911 30.6558 28.5287 30.6345 20.8666C30.6201 15.6066 28.857 13.8922 23.5619 13.8084C17.2258 13.7074 15.3001 15.1896 15.2836 20.7477C15.217 42.4496 15.2213 64.153 15.2786 85.855C15.2929 91.466 17.243 93.0486 23.4459 92.9834C28.8241 92.9268 30.6273 91.1128 30.6373 85.6186C30.6526 77.9747 30.6495 70.3308 30.6463 62.6872V62.6849V62.6848C30.6451 59.5373 30.6438 56.3899 30.6438 53.2426ZM45.7819 53.4518C45.7819 56.2991 45.7822 59.1463 45.7825 61.9935V61.9936C45.7834 70.5329 45.7844 79.0721 45.7768 87.6117C45.7766 87.8559 45.7773 88.1004 45.778 88.345V88.3451C45.7818 89.6442 45.7856 90.9474 45.6493 92.2333C44.7652 100.608 41.0219 105.164 32.6111 106.198C26.2922 106.975 19.719 107.013 13.4066 106.218C4.07729 105.044 0.175639 99.6412 0.0660255 89.1491C-0.0215564 80.6497 -0.00304691 72.1495 0.0154625 63.6493C0.0232981 60.051 0.0311337 56.4526 0.0309206 52.8543C0.0307352 49.9382 0.0277193 47.0222 0.0247034 44.1063C0.0160648 35.7539 0.00742652 27.4018 0.065309 19.0498C0.0839361 16.457 0.321789 13.8284 0.809675 11.2837C1.8879 5.67194 6.12125 1.2258 11.8892 0.674153C18.3628 0.0565938 24.9826 -0.300186 31.4283 0.336716C41.2985 1.31464 45.5891 6.47362 45.7116 16.4455C45.8177 25.0608 45.7934 33.6771 45.7692 42.2937C45.7587 46.013 45.7482 49.7324 45.7482 53.4518H45.7819ZM137.419 60.6916C137.419 64.0024 137.42 67.3131 137.42 70.6238V70.6239C137.421 80.1331 137.422 89.6419 137.414 99.1514C137.414 99.3264 137.415 99.5045 137.416 99.6847C137.429 102.211 137.444 105.147 134.602 105.78C131.423 106.488 127.805 106.314 124.647 105.495C123.44 105.183 122.321 102.029 122.284 100.149C122.065 88.8764 122.093 77.597 122.222 66.3212C122.26 62.9941 121.168 61.4144 117.691 61.6996C116.418 61.8041 115.135 61.7778 113.852 61.7515C113.227 61.7387 112.601 61.7259 111.976 61.7282C107.395 61.7468 107.031 62.0678 107.021 66.5405C107.009 72.4208 107.01 78.3011 107.01 84.1814V84.1976C107.011 88.8763 107.012 93.555 107.006 98.2337C107.004 99.4165 106.958 100.607 106.819 101.781C106.434 105.02 104.489 106.564 101.288 106.631L101.057 106.636H101.057C99.705 106.665 98.3493 106.694 97.0021 106.612C94.1643 106.439 92.2994 105.067 91.9068 102.127C91.7499 100.957 91.6475 99.7697 91.6475 98.589C91.6332 73.5435 91.6281 48.4973 91.641 23.4518C91.6446 16.0797 97.1869 12.7211 103.967 15.8913C106.76 17.1974 106.959 19.7013 106.985 22.2066C107.029 26.4543 107.024 30.7022 107.018 34.95V34.95C107.015 37.7054 107.011 40.4607 107.021 43.2158C107.036 47.5 107.509 48.0237 111.679 48.0173C112.796 48.0154 113.794 48.023 114.688 48.0297C118.711 48.0602 120.603 48.0746 121.479 47.138C122.257 46.3057 122.232 44.7225 122.184 41.7322C122.166 40.5878 122.144 39.2374 122.163 37.6441C122.196 34.8841 122.187 32.1237 122.179 29.3634C122.171 26.7821 122.163 24.2008 122.189 21.6199C122.234 17.2067 124.039 15.4557 128.508 15.3153C128.752 15.3075 128.997 15.3083 129.241 15.3092C129.354 15.3096 129.467 15.31 129.58 15.3096C135.953 15.2838 137.401 16.6593 137.412 22.9445C137.43 32.0013 137.426 41.058 137.422 50.1145V50.1147C137.421 53.6404 137.419 57.166 137.419 60.6916ZM182.22 58.5311C180.987 59.2375 179.822 59.9152 178.7 60.5675L178.699 60.5678C176.252 61.9913 174.011 63.2942 171.725 64.5125C168.645 66.1532 167.315 68.7681 167.248 72.0558C167.166 76.1152 167.183 80.1774 167.2 84.239C167.204 85.1629 167.208 86.0867 167.211 87.0104C167.22 89.9442 168.443 92.0132 171.464 92.7719C175.782 93.8566 180.161 92.8378 181.581 90.3253C181.919 89.7286 182.191 88.9957 182.194 88.3244C182.225 80.5113 182.223 72.6983 182.221 64.5357L182.221 64.4082C182.221 62.4705 182.22 60.513 182.22 58.5311ZM197.446 70.3271L197.446 70.3306V70.3313C197.543 77.7865 197.639 85.2416 197.217 92.6681C196.739 101.077 192.95 105.167 184.691 106.087C177.686 106.868 170.419 106.676 163.421 105.759C156.345 104.829 152.452 99.7521 152.232 92.6122C151.979 84.4392 151.929 76.244 152.226 68.0739C152.472 61.2786 156.736 56.8339 162.319 53.539C164.587 52.2007 166.875 50.8954 169.163 49.59L169.163 49.59C172.025 47.957 174.887 46.3241 177.71 44.6267C181.975 42.0619 183.998 36.213 181.665 31.9947C180.853 30.5267 178.375 29.3189 176.566 29.1791C173.218 28.9204 169.847 28.9616 166.476 29.0028C164.844 29.0228 163.213 29.0427 161.584 29.0287C156.783 28.9879 155.033 27.1524 155.013 22.2728C154.993 17.2263 156.599 15.2948 161.337 15.3507C163.123 15.3715 164.913 15.3762 166.703 15.3809C173.117 15.3979 179.543 15.4149 185.873 16.171C192.953 17.0171 196.145 21.2154 197.252 28.3502C197.301 28.6645 197.357 28.9789 197.414 29.2935L197.414 29.2939C197.567 30.1526 197.721 31.0126 197.724 31.8729C197.753 39.2231 197.75 46.5742 197.747 53.9251C197.746 56.1795 197.745 58.4339 197.745 60.6883C197.681 60.6883 197.618 60.6884 197.554 60.6886C197.49 60.6888 197.427 60.689 197.363 60.689C197.363 63.9002 197.405 67.1136 197.446 70.3271ZM212.936 52.1662L212.936 52.1555C212.909 45.4497 212.882 38.7438 213.008 32.0408C213.124 25.8967 214.573 20.1854 220.847 17.2072C222.328 16.5044 223.991 15.8202 225.586 15.7793C227.146 15.7401 228.71 15.678 230.275 15.6159C235.504 15.4084 240.749 15.2003 245.878 15.8388C254.342 16.8919 258.109 21.8231 258.586 30.8236C258.863 36.05 258.757 41.3027 258.651 46.5417V46.5429L258.645 46.8428C258.569 50.6693 256.705 52.3543 252.813 52.479C251.505 52.5219 250.19 52.5384 248.884 52.4682C245.343 52.2776 243.69 50.665 243.6 47.128C243.55 45.1962 243.56 43.2631 243.569 41.33V41.3268C243.578 39.4621 243.587 37.5974 243.544 35.7339C243.425 30.676 241.563 29.0604 236.058 29.0418C230.149 29.0203 228.128 30.5506 228.105 35.6086C228.027 52.4618 228.035 69.3164 228.099 86.171C228.118 91.1122 230.12 92.9341 235.182 92.9749C237.507 92.9932 239.832 92.9877 242.157 92.9822H242.159C245.193 92.975 248.226 92.9678 251.26 93.0136C255.458 93.0766 257.183 95.0912 257.215 99.6857C257.248 104.446 255.461 106.578 251.123 106.623C243.979 106.695 236.831 106.711 229.687 106.619C218.846 106.478 213.289 100.927 212.964 90.0805C212.957 89.8434 212.956 89.6063 212.956 89.3684C212.956 79.8729 212.956 70.3774 212.958 60.8819C212.959 57.9769 212.947 55.0715 212.936 52.1662Z" fill="white"/>
</svg>
