<svg width="341" height="94" viewBox="0 0 341 94" fill="none" xmlns="http://www.w3.org/2000/svg">
<path fill-rule="evenodd" clip-rule="evenodd" d="M251.527 53.7451C251.527 51.5726 251.524 49.4001 251.521 47.2277C251.514 41.4344 251.507 35.6416 251.551 29.8509C251.567 27.6685 251.746 25.4701 252.066 23.3157C252.726 18.8631 255.032 15.3337 258.861 13.0194C265.848 8.79855 272.927 4.72158 280.017 0.676591C282.296 -0.622442 284.246 -0.010897 285.689 2.16748C286.273 3.05082 286.788 3.98613 287.276 4.92543C288.903 8.04711 288.343 10.1375 285.27 11.9442C283.293 13.1074 281.297 14.2374 279.301 15.3674L279.301 15.3678L279.3 15.3683C277.194 16.5602 275.089 17.7521 273.007 18.983C270.728 20.33 268.526 21.8129 266.364 23.3397C265.688 23.8154 265.121 24.5628 264.737 25.3103C263.434 27.8404 264.553 29.635 267.379 29.683C268.476 29.7017 269.577 29.6889 270.679 29.6762C273.114 29.648 275.55 29.6199 277.939 29.9308C285.949 30.978 289.646 34.9791 289.778 43.0211C289.978 55.3639 289.978 67.7147 289.778 80.0575C289.65 88.1035 285.969 92.2125 277.943 93.1238C273.219 93.6594 268.338 93.6714 263.61 93.1558C255.288 92.2524 251.651 87.8917 251.563 79.434C251.501 73.4716 251.516 67.5092 251.53 61.5468C251.536 58.9476 251.543 56.3483 251.543 53.7491C251.54 53.7475 251.537 53.7466 251.535 53.746L251.532 53.7454L251.53 53.7452L251.527 53.7451ZM264.301 60.3042V74.6256C264.301 81.0448 265.236 81.9641 271.712 81.8802C275.493 81.8322 277.048 80.3213 277.076 76.5681C277.098 73.7364 277.093 70.9046 277.088 68.0742V68.0735V68.0728C277.086 66.8606 277.084 65.6487 277.084 64.4371C277.084 62.6788 277.086 60.9201 277.088 59.1613V59.1609V59.1604V59.16V59.1596V59.1592V59.1481C277.094 54.8782 277.1 50.6074 277.072 46.3386C277.048 42.8852 275.469 41.2824 272.135 41.2104C270.54 41.1744 268.946 41.1864 267.351 41.2024C264.781 41.2264 264.309 41.6821 264.309 44.1962C264.297 48.2237 264.299 52.2511 264.3 56.2802V56.2808V56.2814V56.2819V56.2825V56.283C264.301 57.6232 264.301 58.9636 264.301 60.3042ZM211.173 61.5273C212.142 58.7043 213.111 55.8812 214.081 53.0579L214.094 53.0208L214.112 52.967L214.133 52.905L214.157 52.8349L214.184 52.7567C215.452 49.0646 216.721 45.372 217.988 41.6781C218.801 39.3033 219.611 36.9275 220.422 34.5515L220.427 34.5358L220.433 34.5175C221.777 30.5783 223.12 26.6389 224.479 22.7042C226.309 17.3962 230.394 15.4576 235.814 17.2363C237.529 17.7999 238.428 18.987 238.708 20.6857C238.798 21.2228 238.794 21.7792 238.79 22.332V22.3325V22.333C238.789 22.4463 238.788 22.5594 238.788 22.6722C238.792 44.3081 238.796 65.944 238.78 87.5759L238.78 87.6943L238.781 87.824C238.783 88.6701 238.786 89.5546 238.52 90.3299C237.419 93.5442 234.869 93.4699 232.365 93.3969C231.951 93.3848 231.538 93.3728 231.134 93.3756C228.352 93.3956 226.881 92.3883 226.325 90.134C226.09 89.1827 225.99 88.1675 226.022 87.1842C226.297 78.1004 226.592 69.0189 226.888 59.9362C226.987 56.8894 227.086 53.8425 227.185 50.7953C227.205 50.1678 227.189 49.5402 226.873 48.8527C226.315 50.4688 225.755 52.0848 225.195 53.7009C224.012 57.1174 222.829 60.5345 221.657 63.9535C219.914 69.0375 218.178 74.1229 216.443 79.2081L216.441 79.2153L216.438 79.2226C215.354 82.4004 214.269 85.578 213.183 88.7551C212.072 92.0086 210.229 93.3436 206.812 93.3916C200.141 93.4875 199.226 92.5842 199.226 85.8972V22.984C199.226 18.2875 200.577 16.9405 205.273 16.9365C205.47 16.9365 205.667 16.9345 205.864 16.9324H205.864H205.864H205.864H205.864H205.864C206.4 16.9269 206.936 16.9214 207.467 16.9565C210.209 17.1244 211.968 18.6272 211.94 21.3172C211.84 31.7974 211.628 42.2776 211.373 52.7538C211.323 54.7446 211.139 56.7315 210.954 58.7199L210.954 58.7206C210.87 59.6344 210.785 60.5485 210.713 61.4634C210.865 61.4833 211.021 61.5033 211.173 61.5273ZM302.628 48.8899C302.63 50.9425 302.633 52.9952 302.633 55.0482H302.645C302.645 57.5378 302.638 60.0275 302.631 62.5172C302.616 68.1894 302.601 73.8617 302.665 79.534C302.752 87.1083 306.146 92.0047 312.641 92.8201C318.009 93.4956 323.553 93.6275 328.937 93.1238C336.715 92.3964 339.761 89.1188 340.74 81.3526C341.052 78.8754 341.013 76.3496 340.974 73.8278V73.8265V73.8251V73.8238V73.8224C340.96 72.9524 340.947 72.083 340.948 71.2161C340.951 69.1232 340.953 67.0303 340.956 64.9372V64.9359V64.9347V64.9334V64.9212C340.973 53.6165 340.989 42.3099 340.928 31.0061C340.888 23.2359 337.351 18.2476 330.752 17.4761C325.504 16.8646 320.112 16.7487 314.843 17.1764C307.821 17.7479 304.499 20.7577 303.2 26.6333C302.816 28.364 302.669 30.1787 302.657 31.9574C302.615 37.6021 302.622 43.2447 302.628 48.8883V48.8887V48.8891V48.8895V48.8899ZM328.189 49.0121C328.187 51.0574 328.186 53.1028 328.186 55.1481C328.186 57.0638 328.186 58.9794 328.187 60.8949V60.8954V60.8959V60.8964V60.8969C328.19 66.0069 328.192 71.1158 328.178 76.2204C328.17 80.3853 326.699 81.8442 322.558 81.8762C322.294 81.8789 322.029 81.878 321.763 81.8771C321.629 81.8767 321.496 81.8762 321.363 81.8762C316.802 81.8642 315.407 80.4932 315.407 75.9606C315.403 62.1109 315.403 48.2572 315.407 34.4035C315.407 29.8309 316.778 28.464 321.327 28.448C321.46 28.448 321.592 28.4477 321.725 28.4475C322.124 28.4467 322.523 28.446 322.921 28.452C326.567 28.5079 328.158 30.0388 328.174 33.6721C328.199 38.7854 328.194 43.8988 328.189 49.0121ZM87.029 55.3638C87.029 58.9253 87.0294 62.4864 87.0299 66.0473V66.0934V66.0939V66.0943C87.0307 73.2 87.0316 80.3051 87.029 87.4119C87.029 91.9885 85.646 93.3835 81.1174 93.3915C80.9142 93.3915 80.711 93.393 80.5078 93.3946C79.9795 93.3986 79.4513 93.4026 78.923 93.3795C75.9892 93.2396 74.3784 91.6768 74.2825 88.755C74.2311 87.1448 74.2409 85.5325 74.2506 83.9211V83.921V83.9208V83.9206V83.9202V83.9198V83.9194C74.2546 83.2754 74.2585 82.6315 74.2585 81.988V32.0252C74.2585 28.9475 73.7628 28.4558 70.6811 28.4478L70.6772 28.4478H70.6768H70.6765H70.6762C68.7473 28.4438 66.8224 28.4398 64.8934 28.4478C62.0596 28.4598 61.484 29.0074 61.48 31.7853C61.474 36.1143 61.4747 40.4432 61.4755 44.7738C61.4757 46.2172 61.476 47.6607 61.476 49.1045C61.476 53.3733 61.4764 57.6421 61.4769 61.9109C61.4778 70.4486 61.4787 78.9862 61.476 87.5239C61.476 91.9566 60.0491 93.3835 55.6563 93.3955C55.4412 93.3955 55.2261 93.3972 55.011 93.399C54.4946 93.4031 53.9783 93.4073 53.462 93.3875C50.4282 93.2676 48.7854 91.6808 48.7295 88.651C48.6814 86.1633 48.6913 83.6755 48.7013 81.1892V81.189V81.1887V81.188V81.1872V81.1865V81.1858C48.7054 80.1579 48.7095 79.1302 48.7095 78.1029V22.9639C48.7095 18.2794 50.0605 16.9404 54.777 16.9404C63.5584 16.9364 72.3399 16.9364 81.1174 16.9404C85.638 16.9444 87.029 18.3513 87.029 22.9239V55.3638ZM137.448 61.5283C137.446 59.4229 137.443 57.3175 137.443 55.2122H137.343C137.343 52.6001 137.358 49.9874 137.373 47.3745V47.3739V47.3734C137.407 41.3621 137.44 35.3498 137.295 29.3434C137.128 22.3446 133.322 17.9639 126.42 17.3803C120.492 16.8788 114.51 16.9508 108.545 17.0226L108.545 17.0226C107.664 17.0332 106.783 17.0438 105.903 17.0526C104.772 17.0646 103.225 17.9399 102.613 18.8912C101.17 21.1295 101.354 23.7676 102.365 26.1418C103.281 28.2882 105.435 28.4401 107.486 28.4481C109.043 28.4539 110.6 28.4518 112.158 28.4496C114.857 28.4458 117.557 28.442 120.256 28.4801C123.082 28.52 124.281 29.7871 124.605 32.597C125.101 36.9218 123.822 40.1594 119.717 42.2858C115.184 44.632 110.759 47.2061 106.438 49.9241C102.573 52.3583 99.7035 55.8597 99.4996 60.5242C99.1878 67.7308 99.1359 74.9814 99.5236 82.1841C99.8633 88.4714 103.72 92.3285 110.048 92.9561C114.984 93.4437 120.02 93.5636 124.969 93.2319C131.907 92.7642 135.585 89.6905 136.856 84.0187C137.228 82.348 137.407 80.6053 137.419 78.8945C137.46 73.1058 137.454 67.317 137.448 61.5283ZM121.611 54.7681C122.587 54.2166 123.581 53.6547 124.593 53.0658V77.9113C124.593 78.1751 124.557 78.4429 124.493 78.6987C123.845 81.2488 122.099 81.9882 117.003 81.8763C114.129 81.8124 112.302 80.7571 112.222 78.4269C112.042 73.1388 112.058 67.8308 112.35 62.5507C112.418 61.2716 113.613 59.6808 114.752 58.9014C116.918 57.4206 119.209 56.1257 121.611 54.7681ZM0.0256845 48.5929C0.0256845 46.2375 0.0244353 43.8824 0.0231861 41.5274C0.019439 34.4629 0.0156925 27.3996 0.0456696 20.3339C0.0536637 18.4833 0.181568 16.6167 0.453366 14.7861C1.32072 8.95042 4.86608 5.15724 10.7777 4.66161C16.1777 4.20995 21.6856 4.07405 27.0696 4.59766C34.3401 5.30513 38.0334 9.63791 38.2812 16.9285C38.4477 21.9093 38.3946 26.9 38.3415 31.8856C38.336 32.4052 38.3305 32.9247 38.3252 33.4442C38.2972 36.0742 37.0022 37.4812 34.4041 37.8849C33.4221 38.0354 32.4082 38.0194 31.4092 38.0037L31.2225 38.0008C27.2374 37.9528 25.6266 36.382 25.5867 32.4529C25.5672 30.409 25.5711 28.3651 25.575 26.3212C25.5784 24.584 25.5817 22.8467 25.5707 21.1094C25.5467 17.1523 24.1158 15.7494 20.1307 15.7094C13.8314 15.6414 12.8122 16.6407 12.8122 22.892V75.0332C12.8122 75.1991 12.8109 75.365 12.8097 75.5309C12.8059 76.0285 12.8022 76.5261 12.8322 77.0238C13.044 80.3573 14.5509 81.8402 17.8684 81.8721C20.5582 81.8966 23.2481 81.8926 25.9379 81.8886C27.6368 81.886 29.3357 81.8835 31.0346 81.8881C36.3546 81.9041 39.1366 86.5687 36.3946 91.1732C35.7871 92.1965 34.2162 93.2397 33.0691 93.2637C31.9731 93.2882 30.8758 93.3171 29.7779 93.3461L29.7756 93.3461C23.8869 93.5014 17.9783 93.6573 12.1407 93.1318C3.635 92.3683 0.169577 87.9396 0.0616577 78.8464C-0.0219629 71.8167 -0.00256311 64.785 0.0168384 57.7528C0.0252583 54.7009 0.0336785 51.6489 0.0336785 48.5969C0.0336785 48.5929 0.0296891 48.5929 0.0256959 48.5929H0.0256845ZM150.111 49.2092C150.112 51.1995 150.114 53.1898 150.114 55.1801H150.122C150.122 57.6496 150.115 60.1191 150.109 62.5886C150.093 68.2131 150.078 73.8376 150.142 79.462C150.238 87.9078 153.879 92.4004 162.209 93.1359C167.729 93.6229 173.306 93.4965 178.874 93.3703C180.297 93.338 181.72 93.3057 183.142 93.2838C184.177 93.2678 185.568 92.5083 186.151 91.657C187.722 89.3667 187.614 86.7206 186.539 84.2465C185.6 82.0881 183.493 81.9042 181.447 81.8922C178.822 81.8767 176.197 81.8796 173.572 81.8825C172.14 81.8841 170.708 81.8857 169.276 81.8842C164.128 81.8802 162.889 80.6611 162.889 75.5889V35.7826C162.889 29.2554 163.828 28.3441 170.435 28.456C174.068 28.516 175.623 30.0548 175.663 33.7121C175.679 35.1118 175.673 36.5123 175.668 37.9129C175.661 39.7639 175.654 41.615 175.695 43.4648C175.755 46.3467 177.25 47.8815 180.096 48.0654C181.419 48.1533 182.758 48.1493 184.081 48.0614C186.819 47.8736 188.362 46.3587 188.41 43.6007C188.416 43.2441 188.422 42.8875 188.428 42.5307C188.5 38.3771 188.572 34.2155 188.37 30.0708C187.982 22.1007 184.485 18.0278 176.518 17.2404C171.142 16.7087 165.611 16.9286 160.223 17.4922C154.791 18.0637 151.465 21.781 150.566 27.153C150.282 28.8437 150.146 30.5784 150.134 32.2932C150.102 37.9302 150.106 43.5694 150.111 49.2092Z" fill="white"/>
</svg>
