<svg width="921" height="129" viewBox="0 0 921 129" fill="none" xmlns="http://www.w3.org/2000/svg">
<path fill-rule="evenodd" clip-rule="evenodd" d="M30.7382 24.2593V27.0372C30.7357 27.8176 30.73 28.5981 30.7242 29.3786L30.7242 29.38C30.7083 31.5316 30.6925 33.6833 30.7448 35.8334C30.8208 38.9718 29.2534 40.149 26.2067 40.3457C15.4946 41.0369 15.3209 40.9348 15.3237 30.1625C15.3239 29.2803 15.3234 28.3981 15.3228 27.5159V27.5158V27.5158V27.5157V27.5157V27.5157V27.5156V27.5156V27.5155V27.5155V27.5155V27.5154V27.5154V27.5153V27.5153V27.5151C15.3207 24.2305 15.3187 20.9458 15.3557 17.6622C15.3857 15.1231 16.4876 13.8401 19.3128 13.6612L19.4709 13.6512C30.7187 12.9398 30.7382 12.9385 30.7382 24.2593ZM30.7382 63.49V73.2434C30.7371 74.6326 30.7301 76.022 30.7231 77.4114V77.4115V77.4116V77.4117V77.4117V77.4118V77.4119V77.412V77.4121V77.4122V77.4123V77.4124V77.4125V77.4126V77.4127V77.4128C30.706 80.8225 30.6889 84.2323 30.7589 87.6402C30.8302 91.0989 29.4589 92.6508 25.8003 92.7426L25.4921 92.7504H25.492C20.4567 92.8778 17.9147 92.9421 16.6313 91.7029C15.3228 90.4394 15.3228 87.8208 15.3228 82.5323V82.5238C15.3228 80.2389 15.3308 77.9539 15.3388 75.6689C15.358 70.213 15.3771 64.7571 15.2871 59.3027C15.2243 55.4983 16.4116 53.6852 20.6568 53.7104L21.1606 53.7134C30.7373 53.7684 30.7382 53.7684 30.7382 63.49ZM45.7726 59.7906C45.536 51.9806 42.9953 49.2833 35.5232 47.0534C41.8474 46.2994 45.0461 42.453 45.3802 36.8308C45.8467 28.9693 46.239 20.9888 45.3896 13.1948C44.4904 4.93054 40.1222 1.20396 31.7256 0.525891C25.3916 0.0147366 19.0121 0.0115928 12.6394 0.00845248C11.2006 0.00774347 9.76216 0.00703463 8.32467 0.000479434C1.52928 -0.0313637 0.0312884 1.51115 0.0237796 8.17948C0.00921098 22.0459 0.0120766 35.9128 0.0149421 49.7791C0.0159534 54.6729 0.0169647 59.5667 0.0172095 64.4603C0.0172095 67.7579 0.0129072 71.0555 0.0086048 74.3532C-0.00226438 82.6842 -0.0131337 91.0153 0.0453672 99.3454C0.0810337 104.449 1.68602 106.052 6.79008 106.093C7.47958 106.099 8.16916 106.105 8.85878 106.111L8.86175 106.111L8.8647 106.111L8.86762 106.111L8.87051 106.111L8.87342 106.111L8.87651 106.111L8.87958 106.111L8.88263 106.111L8.88565 106.111L8.88887 106.111L8.89208 106.111H8.89256C16.1609 106.173 23.4355 106.236 30.6913 105.935C40.0528 105.546 45.4478 100.306 45.7716 90.9472C46.1302 80.572 46.087 70.1687 45.7726 59.7906ZM199.787 68.4506C199.771 65.8718 199.754 63.2931 199.754 60.715C199.755 58.16 199.765 55.6049 199.776 53.0498V53.0496V53.0495V53.0494V53.0492V53.0491V53.0489V53.0488V53.0487V53.0485V53.0484V53.0483V53.0481V53.048V53.0478C199.802 46.6225 199.829 40.1974 199.696 33.7757C199.619 30.0697 201.151 28.6874 204.682 28.9215C205.459 28.9726 206.24 28.9705 207.02 28.9683C207.801 28.9662 208.582 28.9641 209.359 29.0152C212.839 29.2446 214.807 30.9342 214.802 34.599C214.778 52.0949 214.773 69.5908 214.798 87.0858C214.803 90.5717 212.735 92.0805 209.652 92.5759C208.893 92.6976 208.114 92.683 207.334 92.6684C206.703 92.6566 206.071 92.6448 205.448 92.7052C201.307 93.1079 199.534 91.5944 199.672 87.1888C199.868 80.9477 199.828 74.6991 199.787 68.4506ZM229.886 70.4971C229.859 67.2989 229.831 64.1006 229.831 60.9032L229.878 60.9022L229.912 60.9016L229.947 60.9014C229.947 57.7538 229.982 54.6045 230.018 51.4552C230.1 44.2264 230.182 36.9976 229.832 29.7897C229.378 20.4522 224.249 15.8368 214.822 15.4659C208.798 15.2277 202.762 15.2601 196.728 15.2926L196.727 15.2926L196.727 15.2926L196.726 15.2926L196.725 15.2926L196.725 15.2926L196.724 15.2926L196.723 15.2926L196.723 15.2926L196.722 15.2926L196.722 15.2926L196.721 15.2926L196.72 15.2926L196.72 15.2926L196.719 15.2926C195.261 15.3005 193.803 15.3083 192.346 15.3123C185.868 15.3311 184.626 16.5664 184.612 22.8798C184.593 31.8522 184.597 40.8242 184.601 49.7964V49.7965V49.7966V49.7967V49.7968V49.7969V49.797V49.7972V49.7973V49.7974V49.7975V49.7976V49.7977V49.7978V49.798C184.602 53.0629 184.603 56.3279 184.603 59.593C184.604 65.0872 184.602 70.5815 184.601 76.0758C184.597 91.494 184.593 106.912 184.626 122.33C184.637 127.307 186.563 128.956 191.964 128.998C197.686 129.042 199.645 127.376 199.735 122.239C199.805 118.368 199.864 114.491 199.723 110.623C199.605 107.39 201.155 106.154 204.213 106.128C205.114 106.12 206.016 106.118 206.918 106.116C210.234 106.108 213.554 106.1 216.846 105.81C224.355 105.146 229.44 100.401 229.727 92.9384C230.014 85.467 229.95 77.9823 229.886 70.4971ZM493.949 67.8609C495.211 64.1964 496.457 60.575 497.693 56.9851L497.696 56.9757C500.93 47.5762 504.09 38.3924 507.272 29.2155C507.546 28.4236 507.802 27.6176 508.058 26.8103C508.841 24.3418 509.628 21.8618 510.974 19.7403C512.197 17.811 514.733 15.8508 516.925 15.5276C524.98 14.3429 526.906 16.3172 526.908 24.5186C526.909 31.6372 526.896 38.7559 526.882 45.8747C526.849 63.0959 526.816 80.3173 527 97.5368C527.094 106.374 523.066 107.196 515.007 105.488C513.488 105.166 511.743 101.402 511.749 99.2291C511.77 90.0164 512.054 80.8037 512.338 71.5906V71.5894V71.5883V71.5871V71.586V71.5848V71.5837V71.5826V71.5814V71.5803V71.5791V71.578V71.5768V71.5757C512.445 68.0953 512.553 64.615 512.646 61.1345C512.7 59.1302 512.654 57.1223 512.075 54.8885C510.941 58.1524 509.805 61.4157 508.67 64.679C506.959 69.5971 505.249 74.515 503.54 79.434C502.751 81.7027 501.969 83.9735 501.186 86.2443L501.185 86.2469L501.183 86.2521L501.182 86.2574L501.18 86.2626L501.177 86.2705L501.174 86.2784L501.171 86.2889L501.167 86.2994L501.164 86.3074L501.164 86.3081L501.164 86.3088L501.163 86.3095L501.163 86.3102L501.163 86.3109L501.163 86.3116L501.162 86.3123L501.162 86.3131L501.162 86.3138L501.161 86.3145L501.161 86.3152L501.161 86.3159C499.482 91.1887 497.803 96.0613 496.065 100.913C494.352 105.694 490.652 107.154 484.062 105.983C479.678 105.203 479.422 101.867 479.415 98.552C479.366 73.2817 479.348 48.0123 479.42 22.742C479.436 16.8313 481.359 15.2317 487.524 15.3038C493.211 15.3703 494.959 16.984 494.877 22.9602C494.736 33.3868 494.496 43.812 494.249 54.5189C494.148 58.9123 494.046 63.3531 493.949 67.8609ZM697.373 46.9693C696.147 45.7606 696.147 43.3082 696.147 38.4186C696.147 28.8723 698.803 26.7753 708.469 29.1476C709.681 29.4445 711.222 31.2933 711.347 32.5464C711.729 36.3648 711.864 40.2964 711.31 44.0708C711.153 45.1481 709.909 46.0854 708.699 46.997C708.247 47.3375 707.8 47.6744 707.416 48.0137C707.24 48.1699 706.89 48.131 706.538 48.0918C706.368 48.073 706.198 48.0541 706.047 48.0568C701.081 48.1428 698.606 48.1856 697.373 46.9693ZM711.513 75.1319L711.513 76.9881C711.512 77.9745 711.508 78.9609 711.505 79.9471C711.495 82.673 711.486 85.3984 711.518 88.1239C711.555 91.1714 710.184 92.5444 707.036 92.7261L706.886 92.7348C696.162 93.3567 696.147 93.3576 696.148 82.5213C696.148 80.8642 696.156 79.2068 696.163 77.5494C696.181 73.7925 696.199 70.0353 696.125 66.2804C696.057 62.8667 697.211 61.2745 700.984 61.2286L701.392 61.2237C706.421 61.1629 708.952 61.1323 710.224 62.3821C711.513 63.6476 711.513 66.2257 711.513 71.4142V71.4193C711.514 72.6569 711.514 73.8944 711.513 75.1319ZM726.624 68.7642C726.497 60.3295 724.363 57.5048 716.279 54.4245C722.532 53.7661 725.715 50.0086 726.223 44.407C726.709 39.0443 726.916 33.5214 726.173 28.2167C725.019 19.9702 719.957 15.8044 711.441 15.4878C706.088 15.2881 700.727 15.3019 695.366 15.3157C692.609 15.3229 689.851 15.33 687.094 15.308C682.748 15.2734 680.81 17.6448 680.803 21.6692C680.762 47.6915 680.769 73.7149 680.795 99.7372C680.798 103.77 682.63 106.159 687.018 106.123C689.847 106.099 692.677 106.112 695.507 106.124C700.641 106.146 705.773 106.169 710.898 105.978C721.174 105.597 726.428 100.042 726.621 89.6758C726.749 82.7068 726.727 75.7341 726.624 68.7642ZM275.867 61.1787C275.867 58.6514 275.874 56.1242 275.881 53.597V53.5911C275.898 47.5986 275.915 41.6065 275.837 35.6152C275.77 30.422 274.053 28.9853 268.511 28.9366C262.754 28.886 260.752 30.4669 260.723 35.7192C260.635 52.4527 260.634 69.1863 260.726 85.918C260.754 91.0026 263.011 92.768 268.613 92.6856C273.894 92.6088 275.783 90.9286 275.844 85.8131C275.912 80.0054 275.896 74.1972 275.881 68.3889V68.3825C275.874 65.9813 275.868 63.58 275.867 61.1787ZM245.539 51.5267V51.5265C245.51 44.9731 245.481 38.4194 245.6 31.868C245.799 20.9674 251.077 15.7367 262.081 15.3836C266.915 15.2281 271.773 15.2169 276.595 15.5138C284.862 16.0252 289.444 20.2519 290.762 28.3185C291.16 30.7517 291.387 33.2401 291.395 35.7051C291.45 52.4406 291.457 69.176 291.389 85.9114C291.376 88.6836 291.125 91.4924 290.616 94.2159C289.34 101.043 284.858 105.283 277.88 105.779C272.132 106.188 266.324 106.206 260.565 105.937C251.075 105.494 245.921 100.361 245.674 90.9042C245.487 83.7916 245.531 76.6727 245.575 69.5537V69.5523C245.594 66.4428 245.614 63.3333 245.614 60.2243H245.565C245.565 57.3258 245.552 54.427 245.539 51.5281V51.528V51.5279V51.5277V51.5276V51.5274V51.5273V51.5271V51.527V51.5268V51.5267ZM92.9238 53.3681L92.9238 53.3829C92.92 55.8619 92.9162 58.341 92.9162 60.8202C92.9162 63.2873 92.9203 65.7544 92.9245 68.2215V68.2238C92.9344 74.1251 92.9444 80.0266 92.8974 85.9285C92.858 91.029 91.0409 92.6446 85.644 92.6848C80.035 92.7279 77.9062 90.9578 77.8865 85.8095C77.8255 69.0713 77.8199 52.3321 77.8912 35.5929C77.9137 30.454 79.9561 28.8572 85.7688 28.9368C91.3027 29.0126 92.8636 30.4278 92.9002 35.7109C92.9418 41.5966 92.9328 47.4817 92.9238 53.367V53.3671V53.3673V53.3674V53.3675V53.3676V53.3677V53.3678V53.3679V53.368V53.3681ZM62.7149 51.7595C62.7244 54.7405 62.7339 57.7214 62.7339 60.7022H62.7743C62.7743 63.7983 62.7584 66.8948 62.7424 69.9914V69.9916V69.9917V69.9919V69.992V69.9921V69.9923V69.9924V69.9925V69.9927V69.9928C62.7058 77.1246 62.6691 84.2565 62.8268 91.3839C63.0183 99.9629 68.2284 105.357 76.7996 105.854C82.709 106.197 88.6728 106.186 94.5803 105.819C102.4 105.333 107.708 100.52 107.829 92.8375C108.163 71.4736 108.098 50.0993 107.851 28.7336C107.779 22.4267 104.32 17.4751 97.8006 16.4571C91.3938 15.4568 84.7805 15.3295 78.2742 15.4887C68.2115 15.735 62.8972 21.3553 62.7621 31.4149C62.6715 38.1946 62.6932 44.9765 62.7149 51.7585V51.7585V51.7586V51.7586V51.7586V51.7587V51.7587V51.7587V51.7588V51.7588V51.7595ZM601.663 61.133C601.663 58.6634 601.67 56.1938 601.677 53.7243C601.693 47.9822 601.709 42.2404 601.637 36.4995C601.562 30.5411 599.885 28.9658 594.132 28.9387C588.171 28.9106 586.298 30.6366 586.272 36.6934C586.204 52.6505 586.216 68.6086 586.265 84.5667C586.284 90.6684 588.22 92.6399 593.868 92.6858C599.866 92.7345 601.603 90.9391 601.652 84.3719C601.695 78.8269 601.683 73.281 601.672 67.7352C601.668 65.5344 601.664 63.3337 601.663 61.133ZM571.052 60.4193C571.051 57.6852 571.046 54.9509 571.04 52.2166C571.027 45.8069 571.013 39.3969 571.063 32.9874C571.154 21.1549 576.596 15.6498 588.485 15.3398C592.542 15.2349 596.61 15.2311 600.665 15.3941C610.931 15.8071 616.568 20.7231 616.761 30.8492C617.14 50.8336 617.153 70.8358 616.741 90.8192C616.535 100.825 611.07 105.565 600.937 106.015C596.417 106.215 591.875 106.216 587.355 106.033C576.547 105.595 571.222 100.123 571.08 89.2458C570.994 82.6183 571.014 75.9895 571.035 69.3605C571.044 66.3801 571.053 63.3997 571.052 60.4193ZM123.629 49.876C123.632 53.4929 123.635 57.1099 123.635 60.7269C123.635 63.9235 123.628 67.1203 123.621 70.3171C123.601 79.9892 123.58 89.6612 123.747 99.3301C123.783 101.378 124.73 104.291 126.257 105.277C132.148 109.088 138.774 105.26 138.782 98.3701C138.797 83.8092 138.794 69.2472 138.792 54.6854C138.79 48.9367 138.789 43.1879 138.789 37.4393C138.789 28.8857 138.79 28.8857 147.589 28.9315C153.938 28.9634 153.98 28.9924 153.983 35.5381C153.986 42.1672 153.983 48.7965 153.98 55.4258V55.437C153.973 69.8901 153.967 84.3431 154.019 98.7953C154.041 104.688 155.697 106.116 161.66 106.126C167.617 106.133 169.477 104.595 169.492 98.9143C169.565 73.4876 169.561 48.0608 169.495 22.6341C169.481 17.1131 167.649 15.3561 162.207 15.3224C151.738 15.2549 141.269 15.2559 130.801 15.3195C125.141 15.3542 123.669 16.863 123.648 22.5863C123.615 31.6828 123.622 40.7788 123.629 49.8751V49.8752V49.8753V49.8754V49.8755V49.8756V49.8757V49.8759V49.876ZM756.929 48.269H756.9V55.2408V55.2518C756.9 60.8238 756.9 63.6044 758.289 64.9349C759.672 66.2601 762.434 66.1465 767.947 65.9196L768.201 65.9092C770.976 65.7949 772.286 64.7769 772.289 62.1105C772.292 59.8005 772.303 57.4901 772.315 55.1797C772.348 48.5029 772.382 41.8253 772.212 35.1534C772.089 30.3385 770.152 28.9758 764.831 28.9384C759.309 28.9 757.236 30.4191 756.977 35.2564C756.817 38.2592 756.856 41.272 756.895 44.2846C756.912 45.6131 756.929 46.9415 756.929 48.269ZM741.707 60.6888C741.705 57.9603 741.699 55.2317 741.693 52.5033C741.678 45.9411 741.663 39.3791 741.72 32.8176C741.819 21.238 747.248 15.6785 758.815 15.3648C763.645 15.2337 768.501 15.2084 773.317 15.5427C781.058 16.0794 786.386 20.1581 786.784 27.7695C787.476 41.0088 787.23 54.3211 786.773 67.5828C786.55 74.0807 782.007 77.9047 775.704 78.9742C771.841 79.6306 767.847 79.6538 763.899 79.6767C763.645 79.6782 763.39 79.6797 763.136 79.6813L762.942 79.6825C759.665 79.7017 756.863 79.7182 756.851 84.2864C756.838 89.7634 758.548 92.4317 763.297 92.6246C766.501 92.7549 769.711 92.732 772.921 92.7092C775.018 92.6942 777.115 92.6793 779.211 92.707C784.467 92.7754 786.08 94.6054 785.994 99.8333C785.926 103.984 784.117 106.174 779.758 106.126C776.957 106.096 774.155 106.109 771.352 106.123C766.819 106.145 762.286 106.167 757.759 106.002C747.232 105.619 741.906 100.092 741.742 89.4881C741.64 82.8916 741.663 76.2934 741.686 69.6953V69.6858C741.697 66.6867 741.708 63.6876 741.707 60.6888ZM395.679 76.953H395.659C395.659 77.9565 395.675 78.9609 395.69 79.9652C395.724 82.2038 395.758 84.4422 395.623 86.6708C395.32 91.6374 392.824 92.7987 385.199 92.7641C380.512 92.7435 380.449 90.0434 380.497 86.6811C380.593 79.7402 380.653 72.7928 380.474 65.8538C380.385 62.3932 381.809 61.3096 385.149 61.2469C394.361 61.0736 395.678 62.2293 395.679 71.3992C395.68 72.6336 395.679 73.8675 395.679 75.1016L395.679 76.953ZM364.986 49.7283C364.989 53.3926 364.993 57.0569 364.993 60.7215C364.993 64.317 364.989 67.9124 364.986 71.5078C364.978 80.4554 364.97 89.4028 365.012 98.3507C365.039 103.947 366.466 105.973 370.855 106.033C379.59 106.153 388.341 106.24 397.06 105.813C405.055 105.421 410.182 100.488 410.545 92.4644C411.009 82.2689 411.063 72.0173 410.559 61.8257C410.115 52.904 404.595 48.3167 395.504 48.106C392.072 48.0264 388.633 47.9533 385.205 48.0882C381.848 48.2193 380.4 46.9474 380.48 43.484C380.642 36.5188 380.779 29.5339 380.376 22.5875C380.243 20.2788 379.045 16.9999 377.278 15.9987C370.929 12.3995 365.04 16.231 365.008 23.5568C364.969 32.2811 364.978 41.0045 364.986 49.7283ZM881.351 77.285H881.382V68.4916C881.382 68.3371 881.385 68.1826 881.378 68.029C881.157 63.1842 879.419 61.4862 874.453 61.3138C873.78 61.2904 873.107 61.3001 872.433 61.3099C871.707 61.3204 870.981 61.3309 870.256 61.2998C867.247 61.1696 866.156 62.6054 866.196 65.5209C866.255 69.6294 866.25 73.7384 866.245 77.8473V77.8639C866.241 81.3092 866.237 84.7543 866.271 88.1988C866.282 89.3648 866.673 91.4824 867.097 91.5376C867.359 91.571 867.622 91.6054 867.886 91.6402L868.229 91.6854L868.235 91.6862C871.324 92.0944 874.499 92.5141 877.452 91.9488C879.014 91.65 880.805 88.8787 881.183 86.9719C881.618 84.7786 881.524 82.4821 881.43 80.1852C881.39 79.216 881.351 78.2467 881.351 77.285ZM850.697 60.7088C850.697 57.105 850.693 53.5011 850.69 49.8972C850.681 41.1132 850.673 32.3291 850.711 23.5451C850.744 16.2315 856.666 12.3934 862.993 16.002C864.759 17.0098 865.943 20.2877 866.081 22.6001C866.485 29.3902 866.395 36.2243 866.167 43.0303C866.036 46.9451 867.603 48.3218 871.392 48.0989C874.251 47.9299 877.129 48.0031 880 48.0761C880.406 48.0865 880.813 48.0968 881.219 48.1064C890.306 48.32 895.824 52.9119 896.264 61.8383C896.766 72.03 896.713 82.2816 896.249 92.4779C895.883 100.496 890.751 105.424 882.751 105.815C874.032 106.241 865.28 106.154 856.546 106.032C852.167 105.972 850.741 103.939 850.715 98.338C850.674 89.4374 850.682 80.5369 850.69 71.6367C850.694 67.994 850.697 64.3514 850.697 60.7088ZM306.496 51.9175C306.504 54.8598 306.512 57.8021 306.512 60.7443H306.565C306.565 63.8409 306.549 66.938 306.532 70.0351V70.0383C306.495 77.1661 306.458 84.2939 306.619 91.4167C306.813 99.9891 312.028 105.423 320.616 105.849C326.867 106.159 333.138 106.126 339.406 106.092H339.407C341.259 106.082 343.111 106.072 344.962 106.071C349.514 106.069 350.69 103.162 350.672 99.2604C350.652 95.2445 349.125 92.6942 344.674 92.7008C343.405 92.7028 342.137 92.7079 340.869 92.7131H340.868C336.828 92.7296 332.787 92.746 328.749 92.6605C323.517 92.55 321.704 90.733 321.669 85.5969C321.624 78.8418 321.633 72.0861 321.642 65.3303C321.645 62.7908 321.649 60.2512 321.649 57.7117C321.65 55.5268 321.641 53.3417 321.633 51.1566C321.612 45.7495 321.591 40.3424 321.706 34.9383C321.805 30.3435 324.067 28.8085 329.746 28.9387C334.91 29.0567 336.545 30.4184 336.68 34.9645C336.73 36.6826 336.717 38.403 336.703 40.1237C336.689 41.9673 336.674 43.8112 336.739 45.6525C336.915 50.6529 339.19 52.5597 344.656 52.5175C350.029 52.4763 352.075 50.858 352.139 45.8371C352.214 39.962 352.119 34.0598 351.623 28.2081C351.124 22.305 348.062 17.5763 341.98 16.5601C335.743 15.5168 329.29 15.336 322.942 15.4372C311.972 15.6114 306.649 21.1249 306.533 31.9282C306.462 38.5884 306.479 45.2496 306.496 51.9107V51.9175ZM641.289 66.4981C641.288 62.9149 641.288 59.3319 641.289 55.7489V55.5884C641.29 48.8482 641.291 42.1082 641.284 35.3677C641.277 29.1246 641.093 28.9579 634.61 28.9316C634.457 28.9309 634.304 28.9307 634.15 28.9306C633.967 28.9305 633.784 28.9307 633.602 28.9309L633.229 28.9312C633.065 28.9313 632.901 28.9312 632.737 28.9307C626.026 28.911 625.978 28.8623 625.973 22.1865C625.967 15.3075 625.967 15.3009 633.052 15.2981C636.322 15.2967 639.592 15.3071 642.862 15.3174C650.675 15.3422 658.487 15.3669 666.296 15.2316C670.273 15.1623 672.226 16.3995 671.835 20.5091C671.733 21.5834 671.749 22.681 671.832 23.7581C672.116 27.4425 670.685 29.0712 666.72 28.9897C666.02 28.9753 665.367 28.959 664.759 28.9438L664.758 28.9437L664.758 28.9437C660.513 28.8376 658.417 28.7852 657.39 29.8069C656.388 30.8032 656.403 32.8208 656.431 36.806V36.8101V36.8145C656.436 37.5535 656.441 38.3601 656.441 39.2404C656.437 47.3019 656.438 55.3637 656.439 63.4254V63.6942C656.441 75.212 656.443 86.7299 656.429 98.2475C656.421 105.268 650.158 109.025 644.052 105.334C642.508 104.4 641.457 101.505 641.411 99.4838C641.223 91.3402 641.247 83.1919 641.272 75.0436L641.272 74.9867C641.281 72.1571 641.289 69.3275 641.289 66.4981ZM811.081 56.9354C811.099 59.9551 811.117 62.9749 811.118 65.9941C811.118 68.8988 811.104 71.8039 811.09 74.7091C811.051 82.8115 811.011 90.9141 811.288 99.0061C811.367 101.309 813.056 104.801 814.923 105.582C822.062 108.57 826.416 105.364 826.429 97.7642C826.46 81.2819 826.452 64.7996 826.445 48.3174C826.443 45.4231 826.442 42.5288 826.441 39.6346C826.441 38.996 826.439 38.3948 826.437 37.8288V37.8181V37.8169C826.422 32.9093 826.415 30.6519 827.534 29.6445C828.487 28.7865 830.256 28.8352 833.532 28.9253C834.488 28.9516 835.573 28.9815 836.803 28.9934C840.777 29.0318 842.189 27.3993 841.882 23.7233C841.806 22.7999 841.792 21.8558 841.886 20.9352C842.307 16.819 840.749 15.1126 836.319 15.2137C828.521 15.3929 820.719 15.3589 812.917 15.325C809.626 15.3107 806.335 15.2963 803.045 15.298C796.013 15.3018 796.013 15.3083 796.014 22.1583C796.015 25.549 796.015 27.2372 796.859 28.0801C797.697 28.9159 799.363 28.9208 802.682 28.9306C802.969 28.9315 803.256 28.9396 803.542 28.9477C804.196 28.9661 804.849 28.9845 805.493 28.9175C809.605 28.4895 811.348 29.8953 811.215 34.3739C810.993 41.889 811.037 49.4122 811.081 56.9354ZM435.281 61.3763C435.282 64.6506 435.284 67.9249 435.286 71.1993V71.225C435.292 80.1795 435.299 89.1343 435.273 98.0886C435.254 104.96 434.051 106.16 427.533 106.126C421.416 106.094 420.07 104.712 420.066 98.2338C420.049 73.2931 420.049 48.3525 420.065 23.4128C420.071 16.19 425.366 12.6067 431.93 15.9156C433.689 16.8016 435.082 20.1114 435.132 22.3423C435.354 32.0155 435.326 41.694 435.299 51.3726C435.29 54.7072 435.28 58.0418 435.281 61.3763ZM920.992 71.8581C920.989 68.2723 920.985 64.6866 920.985 61.101C920.985 57.3081 920.989 53.5152 920.992 49.7224C921.002 40.658 921.011 31.5936 920.963 22.5286C920.931 16.6845 919.324 15.274 913.281 15.3012C907.471 15.3265 905.783 16.9308 905.776 22.7581C905.748 48.0078 905.752 73.2575 905.772 98.5072C905.778 104.643 907.183 106.058 913.045 106.126C919.574 106.202 920.937 105.014 920.967 98.7433C921.011 89.7824 921.002 80.8201 920.992 71.8581Z" fill="white"/>
</svg>
