<svg width="652" height="128" viewBox="0 0 652 128" fill="none" xmlns="http://www.w3.org/2000/svg">
<path fill-rule="evenodd" clip-rule="evenodd" d="M37.7901 42.0426V42.0425C37.7856 33.766 37.781 25.4893 37.8105 17.2122C37.8207 14.605 36.8966 13.1469 34.0562 13.2329C33.9091 13.2373 33.763 13.2409 33.6183 13.2444L33.6181 13.2444C31.3399 13.2999 29.3963 13.3473 29.077 16.6926C28.0058 27.9166 26.8877 39.1362 25.7696 50.3558L25.7695 50.3566L25.7695 50.3569L25.7694 50.3575L25.7693 50.3582C24.5931 62.1605 23.4169 73.9629 22.2954 85.7707C22.2217 86.5441 23.5693 88.0526 24.4266 88.1958C26.0764 88.4717 27.7799 88.438 29.481 88.4042C30.0589 88.3928 30.6365 88.3813 31.2116 88.382C37.7968 88.3902 37.7982 88.384 37.7996 81.9768C37.8009 71.6911 37.7996 61.4061 37.7934 51.1205C37.7934 48.0946 37.7918 45.0687 37.7901 42.0429V42.0428V42.0428V42.0427V42.0427V42.0427V42.0426V42.0426V42.0426ZM52.3681 45.488C52.3685 48.7763 52.372 52.0647 52.3755 55.353V55.3531V55.3532V55.3532V55.3533V55.3534V55.3534V55.3535V55.3536V55.3536C52.3856 64.8433 52.3957 74.3328 52.3299 83.8216C52.3115 86.5174 52.6627 88.2436 55.9362 88.6971C57.2068 88.8723 59.1184 90.9367 59.1804 92.2168C59.5214 99.2017 59.5849 106.219 59.3148 113.208C59.1736 116.859 56.1504 117.401 53.0665 117.401C49.9784 117.401 47.2171 116.85 46.7874 113.197C46.5294 110.996 46.5323 108.761 46.5352 106.532V106.532C46.5359 106.045 46.5365 105.559 46.5344 105.074C46.5249 102.671 45.4364 101.623 42.9936 101.638C34.2553 101.694 25.5157 101.711 16.7774 101.631C13.9336 101.605 12.9215 102.955 12.9808 105.578C13.032 107.838 13.0497 110.102 12.9556 112.361C12.8185 115.622 11.1899 117.142 7.77183 117.369C3.00545 117.685 0.349808 116.457 0.200453 113.07C-0.0975735 106.304 -0.0593824 99.5051 0.286383 92.7419C0.355264 91.3977 2.18298 89.6355 3.6206 88.9671C7.0312 87.3836 8.54452 84.8759 8.88347 81.3235C9.49455 74.9111 10.1207 68.5001 10.7468 62.089L10.7468 62.089L10.7468 62.0889L10.7468 62.0888L10.7468 62.0887L10.7469 62.0886L10.7469 62.0885L10.7469 62.0884L10.7469 62.0883L10.7469 62.0882C11.4603 54.7835 12.1737 47.4788 12.8649 40.1719C13.3352 35.2019 13.7814 30.2294 14.2277 25.2569C14.8116 18.7501 15.3955 12.2433 16.0334 5.74196C16.4603 1.39568 18.003 0.0890038 22.4727 0.0508127C30.3032 -0.0139757 38.1344 -0.0214776 45.965 0.0555866C50.5963 0.100597 52.3408 1.88603 52.3538 6.47646C52.3786 15.5673 52.3747 24.6588 52.3708 33.75V33.7535V33.7536V33.7537V33.7538V33.7539V33.754V33.7541V33.7542V33.7543V33.7544C52.3692 37.6657 52.3675 41.5769 52.3681 45.488ZM410.228 63.0652H411.587C417.152 63.0597 417.227 63.0475 416.866 57.6066C416.174 47.1375 415.432 36.6704 414.63 26.2081C414.372 22.8418 414.068 19.4489 413.35 16.1625C413.112 15.0699 411.437 13.4516 410.566 13.5389C409.401 13.6548 408.232 15.0795 407.356 16.1734C406.894 16.7512 406.826 17.7076 406.766 18.549L406.759 18.6487L406.75 18.7717C406.558 21.3237 406.364 23.8757 406.171 26.4276L406.17 26.4412L406.169 26.4548L406.168 26.4685L406.167 26.4821L406.166 26.4958L406.165 26.5095L406.164 26.5233L406.163 26.537L406.162 26.5508L406.161 26.5623C405.402 36.5657 404.643 46.5697 403.995 56.5802C403.576 63.055 403.725 63.0652 410.228 63.0652ZM410.458 0.0321945C422.603 0.052654 427.666 5.02704 428.528 17.1684C429.625 32.6327 430.82 48.0898 432.014 63.547C432.578 70.8479 433.142 78.1489 433.696 85.4506C433.953 88.8312 434.174 92.2145 434.361 95.5992C434.559 99.2069 433.244 100.853 429.735 101.514C422.86 102.807 420.145 100.751 419.667 93.8806C419.584 92.693 419.498 91.5056 419.412 90.3182L419.412 90.3148C419.18 87.1078 418.947 83.9007 418.784 80.6904C418.623 77.5205 417.248 75.8919 413.893 76.1272C412.589 76.2195 411.276 76.1961 409.964 76.1727C409.345 76.1617 408.726 76.1507 408.108 76.1518C402.8 76.162 402.424 76.4914 402.01 81.8811C401.9 83.3193 401.827 84.7631 401.755 86.2066C401.606 89.1729 401.457 92.1379 400.978 95.0495C400.633 97.1501 399.292 100.402 397.846 100.735C394.765 101.443 391.233 100.935 388.08 100.152C387.164 99.9244 386.319 97.0334 386.432 95.4314C387.648 78.0886 388.975 60.7531 390.302 43.4174L390.303 43.409C390.64 39.0019 390.978 34.5947 391.313 30.1875C391.429 28.6713 391.535 27.1543 391.642 25.6373L391.643 25.6214V25.621V25.6206V25.6203V25.6199V25.6195V25.6192V25.6188V25.6184V25.6181C391.862 22.5199 392.08 19.4217 392.37 16.3302C393.489 4.39825 398.392 0.011735 410.458 0.0321945ZM564.031 65.079C564.036 62.7933 564.041 60.5076 564.041 58.222C564.041 55.7762 564.048 53.3302 564.054 50.8842C564.07 44.6201 564.085 38.356 564.001 32.0932C563.959 28.9895 564.929 27.5846 568.28 27.5716C577.922 27.5335 578.46 27.959 578.46 37.6214C578.46 41.6383 578.461 45.6553 578.462 49.6723C578.464 60.3605 578.466 71.0488 578.454 81.7368C578.447 87.2507 577.399 88.3446 571.915 88.3705C571.671 88.3716 571.433 88.373 571.203 88.3746C570.952 88.3763 570.71 88.3782 570.476 88.3799C566.875 88.4075 565.255 88.4199 564.543 87.6219C563.96 86.9694 563.984 85.7751 564.029 83.6042V83.6036C564.046 82.7634 564.066 81.7769 564.056 80.619C564.008 75.4399 564.02 70.2594 564.031 65.079ZM549.62 55.4324C549.621 59.8993 549.621 64.3661 549.621 68.833C549.622 73.4099 549.62 77.9869 549.619 82.5639C549.616 94.0472 549.613 105.531 549.632 117.014C549.641 121.936 551.286 123.39 556.62 123.414C562.18 123.438 563.957 121.929 564.028 116.984C564.086 113.026 564.076 109.067 564.032 105.109C564.007 102.69 565.111 101.596 567.547 101.645C570.496 101.705 573.453 101.746 576.399 101.621C587.649 101.139 592.878 96.5925 593.082 85.8008C593.432 67.3729 593.421 48.9286 593.09 30.5001C592.895 19.66 587.682 15.002 576.803 14.8165C570.683 14.7128 564.561 14.7471 558.44 14.7815L558.437 14.7815L558.435 14.7815L558.432 14.7815C557.631 14.786 556.831 14.7905 556.03 14.7947C551.056 14.8213 549.631 16.291 549.626 21.3301C549.616 32.6976 549.618 44.065 549.62 55.4324ZM651.247 63.8364C651.247 67.8449 651.231 71.8538 651.215 75.8627C651.178 85.3144 651.141 94.7662 651.313 104.214C651.463 112.578 648.337 118.592 640.649 122.209C639.049 122.962 637.52 123.864 635.991 124.767C634.98 125.364 633.969 125.96 632.936 126.515C629.177 128.533 627.304 127.729 624.641 123.065C622.275 118.92 622.69 116.456 625.999 114.332C626.647 113.917 627.304 113.509 627.962 113.101C630.2 111.714 632.445 110.322 634.361 108.578C635.239 107.778 635.627 106.443 636.015 105.108C636.19 104.505 636.365 103.902 636.586 103.348C636.096 103.173 635.609 102.965 635.123 102.758L635.122 102.757C634.044 102.298 632.967 101.838 631.854 101.725C630.294 101.568 628.716 101.553 627.14 101.538C625.308 101.521 623.477 101.505 621.676 101.263C611.745 99.9317 607.836 95.5295 607.69 85.473C607.586 78.322 607.607 71.1694 607.628 64.0169C607.636 60.9894 607.645 57.9618 607.645 54.9345C607.644 51.5906 607.646 48.2468 607.647 44.903C607.651 37.0493 607.654 29.1957 607.63 21.342C607.622 18.7007 607.934 15.7163 610.809 15.3378C613.985 14.9184 617.438 15.4844 620.551 16.3778C621.445 16.6349 621.993 19.5102 622.001 21.1885C622.065 33.9234 622.068 46.6591 622.072 59.3945C622.074 66.4525 622.076 73.5105 622.088 80.5682C622.088 80.7324 622.087 80.8991 622.086 81.0674V81.071V81.0746C622.08 82.5066 622.072 84.0558 622.699 85.1934C623.204 86.1102 624.184 86.7707 625.158 87.4277C625.547 87.69 625.935 87.9517 626.292 88.2289C626.407 88.3172 626.601 88.3113 626.787 88.3055L626.814 88.3047C626.84 88.304 626.866 88.3033 626.891 88.303L626.927 88.3028L626.939 88.3029L626.96 88.3032C627.678 88.3184 628.346 88.3346 628.965 88.3497C633.615 88.4627 635.601 88.511 636.411 87.5586C637.015 86.8482 636.965 85.581 636.877 83.3686V83.3679V83.3672V83.3663V83.3652V83.3641V83.3627C636.835 82.2986 636.784 81.0162 636.793 79.4722C636.869 66.4616 636.855 53.4504 636.841 40.4394L636.841 40.3289C636.834 34.0357 636.827 27.7427 636.831 21.4497C636.834 16.1071 638.224 14.8025 643.797 14.7834C649.65 14.7643 651.232 16.1419 651.24 21.4225C651.254 31.5207 651.252 41.6197 651.249 51.7184C651.248 55.7578 651.247 59.7971 651.247 63.8364ZM202.143 58.9927C201.515 60.8217 200.886 62.6507 200.257 64.4798L199.668 64.3427C199.668 64.0065 199.665 63.6703 199.662 63.3341C199.656 62.6058 199.65 61.8778 199.673 61.1503C199.801 56.9748 199.936 52.7995 200.072 48.6242V48.6236V48.6229V48.6222V48.6215V48.6209V48.6202C200.365 39.582 200.657 30.5439 200.883 21.5039C201.015 16.2322 199.395 14.8075 193.913 14.7836C187.962 14.757 186.441 16.0344 186.413 21.3348C186.379 27.5903 186.386 33.8455 186.393 40.1008C186.396 42.6673 186.398 45.2339 186.398 47.8005C186.398 51.4304 186.395 55.0604 186.391 58.6903C186.379 70.6682 186.367 82.6459 186.487 94.6228C186.507 96.5855 187.136 99.1961 188.482 100.369C192.555 103.919 200.5 101.34 202.287 96.1736C204.406 90.0441 206.496 83.9047 208.586 77.7653L208.587 77.7627C210.135 73.2153 211.683 68.6679 213.243 64.1245C214.268 61.1421 215.329 58.172 216.363 55.2771C216.828 53.9737 217.288 52.6856 217.737 51.4184C217.674 54.9015 217.606 58.387 217.538 61.8744L217.538 61.8875C217.326 72.7128 217.114 83.5562 217.054 94.4004C217.043 96.4471 217.893 99.9136 219.089 100.274C222.134 101.193 225.748 101.35 228.857 100.628C231.483 100.018 231.476 97.0774 231.47 94.6327V94.6294L231.469 94.3996L231.469 94.2395C231.477 83.8357 231.476 73.4319 231.475 63.0281C231.475 60.1994 231.474 57.3706 231.474 54.5419C231.474 43.4583 231.474 32.374 231.472 21.2904C231.472 18.8196 231.141 16.4825 228.548 15.2897C223.169 12.8141 217.236 15.2201 215.287 20.7674C213.195 26.7238 211.155 32.6978 209.115 38.6717L209.113 38.6771L209.112 38.6805C208.197 41.3587 207.283 44.0369 206.364 46.7134C204.958 50.8071 203.551 54.8998 202.143 58.9927ZM97.3706 51.7647V51.7645C97.3972 45.7745 97.4239 39.784 97.2443 33.8001C97.1904 32.0113 96.0945 29.0276 94.9358 28.7364C91.9242 27.978 88.4726 27.8294 85.4576 28.5373C82.8089 29.1587 82.8322 31.8945 82.8524 34.2625C82.8543 34.4778 82.8561 34.6901 82.8558 34.8974C82.8401 50.1657 82.8401 65.4333 82.8497 80.7015C82.8545 87.4668 83.9504 88.5068 90.8194 88.3827C96.1265 88.2865 97.333 87.0651 97.3487 81.6365C97.364 75.9893 97.3596 70.3414 97.3553 64.6939V64.6936V64.6934V64.6932V64.693V64.6928C97.3536 62.5369 97.352 60.3811 97.3514 58.2254C97.3514 56.0723 97.361 53.9188 97.3706 51.7653V51.7652V51.765V51.7648V51.7647ZM111.868 58.0944C111.868 60.4224 111.873 62.7504 111.877 65.0784C111.89 71.1206 111.902 77.1629 111.832 83.2044C111.803 85.785 111.513 88.3915 111.051 90.934C109.986 96.7956 106.073 100.324 100.436 100.828C93.5964 101.437 86.6279 101.398 79.7774 100.854C73.6525 100.368 69.6097 95.7665 68.7797 89.6675C68.4605 87.3222 68.2907 84.938 68.2846 82.5708C68.243 66.283 68.2491 49.9952 68.2668 33.7074C68.2825 19.3032 72.7938 14.7946 87.1735 14.7892C87.9581 14.7889 88.7433 14.7837 89.5286 14.7785H89.5287H89.5288H89.5288H89.5289H89.529C92.2652 14.7606 95.0035 14.7426 97.7265 14.9296C106.51 15.5305 111.338 20.138 111.645 28.9178C111.882 35.6881 111.827 42.4684 111.772 49.2486V49.2492C111.748 52.1979 111.724 55.1466 111.724 58.0944H111.868ZM245.877 47.1991C245.878 50.7178 245.879 54.2365 245.879 57.7551C245.879 60.7606 245.875 63.7661 245.871 66.7717C245.858 76.202 245.845 85.6327 245.958 95.061C245.979 96.8253 246.537 99.2354 247.759 100.201C250.609 102.454 254.208 102.134 257.496 100.927C260.374 99.8697 260.385 97.169 260.387 94.6307C260.391 90.2745 260.391 85.9182 260.39 81.5618C260.39 77.2134 260.39 72.8649 260.393 68.5162C260.394 67.7285 260.391 67.0049 260.388 66.3402V66.34C260.37 62.3123 260.361 60.4489 261.285 59.6015C262.08 58.872 263.566 58.8957 266.332 58.9397C267.378 58.9564 268.606 58.9759 270.048 58.9588C274.53 58.9056 274.948 59.3387 274.958 63.743C274.97 68.8967 274.968 74.0505 274.966 79.2043C274.965 84.225 274.963 89.2458 274.973 94.2665C274.986 100.01 276.599 101.641 282.155 101.654C287.773 101.669 289.474 100.005 289.477 94.4097C289.485 70.1031 289.486 45.7979 289.474 21.492C289.472 16.2292 287.957 14.8065 282.473 14.7834C276.529 14.7581 275.018 16.0368 274.98 21.3379C274.93 28.1209 274.905 34.9046 274.991 41.6862C275.027 44.5751 273.809 45.8559 270.925 45.7406C268.886 45.6595 266.835 45.6315 264.8 45.7502C261.613 45.9364 260.287 44.6085 260.353 41.3732C260.481 35.0808 260.434 28.7847 260.387 22.4901V22.488V22.4859V22.4839V22.4818L260.378 21.3638C260.339 16.0443 258.834 14.7609 252.909 14.7834C247.411 14.8045 245.891 16.2258 245.883 21.4661C245.872 30.0438 245.875 38.6215 245.877 47.1991ZM170.436 58.0169C170.436 62.0601 170.436 66.1034 170.436 70.1466C170.436 78.2032 170.436 86.2599 170.434 94.3168C170.434 94.3901 170.434 94.464 170.435 94.5384C170.435 94.6304 170.436 94.7232 170.436 94.8167C170.449 97.2376 170.465 100.088 167.811 100.667C164.688 101.348 161.113 101.124 158.033 100.25C156.897 99.9268 156.039 96.6335 156.026 94.6885C155.923 79.5199 155.926 64.3506 155.93 49.1811C155.931 43.4302 155.932 37.6792 155.928 31.9283C155.925 28.2613 155.109 27.6236 151.545 27.5977C148.371 27.5752 147.996 29.4636 147.748 31.9944C146.021 49.6483 144.286 67.3021 142.333 84.9321C141.494 92.5041 134.267 100.4 127.138 102.186C126.599 102.321 125.985 102.439 125.461 102.319C122.222 101.581 121.137 98.9671 120.087 96.4365C119.894 95.973 119.703 95.5122 119.5 95.0663C118.42 92.6937 119.521 90.3845 121.726 89.2838C127.303 86.4986 128.391 81.7813 128.851 76.1133C130.25 58.8837 131.974 41.6786 133.814 24.4892C134.853 14.7825 135.068 14.7825 144.857 14.7825H144.925L150.487 14.7824C154.194 14.7822 157.902 14.7821 161.609 14.7825C169.676 14.7839 170.435 15.5245 170.436 23.4137C170.437 31.1033 170.437 38.7929 170.437 46.4825C170.436 50.3273 170.436 54.1721 170.436 58.0169ZM328.923 57.6865C330.013 57.0492 331.144 56.3882 332.339 55.7032C332.339 58.4613 332.346 61.169 332.352 63.8408V63.8445V63.8482C332.369 70.51 332.384 76.9481 332.295 83.3849C332.252 86.5227 330.541 88.4329 327.123 88.3477C326.547 88.3335 325.97 88.3414 325.393 88.3493C324.608 88.36 323.824 88.3707 323.042 88.3259C319.413 88.1179 318.073 86.9108 318.002 83.3576C317.899 78.1623 317.966 72.9615 318.052 67.7648C318.099 64.9386 319.442 62.9186 322.034 61.5689C324.303 60.3869 326.514 59.0944 328.922 57.6868L328.923 57.6865ZM346.811 66.2337C346.807 63.5106 346.803 60.7874 346.803 58.0642H346.744C346.744 55.1479 346.758 52.2312 346.772 49.3146C346.804 42.6217 346.837 35.929 346.699 29.2402C346.52 20.5933 341.717 15.4825 333.065 14.997C325.826 14.5898 318.541 14.6566 311.296 14.9601C309.674 15.0276 307.353 16.6064 306.69 18.0843C304.26 23.504 307.106 27.5434 313.013 27.6143C317.664 27.6709 322.317 27.6593 326.968 27.6423C330.107 27.6307 331.738 29.2156 332.244 32.2361C333.038 36.9862 331.448 40.6784 327.275 43.1199C322.88 45.691 318.472 48.2491 313.975 50.6361C307.577 54.033 303.595 59.0899 303.297 66.4015C303.027 73.0583 302.962 79.752 303.318 86.402C303.828 95.9416 307.715 100.1 317.215 101.212C322.024 101.775 326.987 101.893 331.799 101.411C342.869 100.304 346.725 95.752 346.793 84.5156C346.83 78.4219 346.821 72.3279 346.811 66.2337ZM446.179 57.9749C446.179 54.3112 446.178 50.6474 446.177 46.9836C446.174 38.4297 446.172 29.8759 446.185 21.3224C446.193 16.2771 447.747 14.8224 453.02 14.7836C459.055 14.7392 460.629 16.005 460.675 21.184C460.698 23.7702 460.691 26.357 460.684 28.9436C460.674 33.0319 460.663 37.1198 460.77 41.205C460.795 42.2057 461.272 43.1941 461.749 44.1826L461.749 44.1828C461.969 44.6392 462.189 45.0956 462.365 45.5533C462.724 45.1697 463.134 44.805 463.544 44.4404C464.433 43.6486 465.323 42.857 465.698 41.8713C468.35 34.9069 470.906 27.8927 473.108 20.7768C475.16 14.1473 480.224 14.0954 485.744 15.2105C488.46 15.7602 488.867 18.085 487.976 20.6439C486.958 23.5703 485.969 26.5077 484.981 29.445C483.232 34.644 481.482 39.8428 479.566 44.9797C477.899 49.4481 477.791 53.5482 479.442 58.0963C482.581 66.7439 485.518 75.4638 488.456 84.1837C489.592 87.5574 490.729 90.9312 491.877 94.3008C493.666 99.5493 492.099 101.653 486.414 101.655C481.036 101.656 479.142 100.267 477.426 95.1935C473.807 84.4952 470.172 73.8024 466.509 63.1191C466.145 62.06 465.736 60.8972 464.989 60.1273C464.384 59.5026 463.19 59.0559 462.351 59.1766C461.763 59.2612 461.113 60.3701 460.886 61.1373C460.663 61.8935 460.677 62.7268 460.691 63.5488V63.5508C460.695 63.757 460.698 63.9626 460.698 64.166C460.694 67.9825 460.696 71.7989 460.697 75.6152C460.7 81.9804 460.703 88.3453 460.679 94.71C460.659 100.051 458.91 101.665 453.389 101.655C447.931 101.644 446.19 99.9701 446.183 94.6275C446.172 85.9663 446.175 77.3048 446.177 68.6432C446.178 65.0871 446.179 61.531 446.179 57.9749ZM511.613 54.8198C511.619 57.7131 511.626 60.6063 511.626 63.4994C511.627 66.2027 511.619 68.9061 511.612 71.6095C511.591 79.4228 511.569 87.2359 511.735 95.0452C511.776 96.9446 512.848 100.101 514.073 100.443C517.055 101.277 520.569 101.433 523.562 100.668C526.294 99.9696 526.277 97.0661 526.263 94.5666C526.261 94.3674 526.26 94.1707 526.26 93.978C526.272 84.8449 526.271 75.7118 526.27 66.5785C526.269 62.9345 526.269 59.2905 526.269 55.6464C526.269 53.3519 526.276 51.0574 526.283 48.7628C526.3 43.1419 526.317 37.521 526.232 31.9018C526.184 28.6814 527.432 27.3461 530.675 27.5937C532.431 27.7269 534.202 27.6821 535.97 27.6373C536.474 27.6246 536.978 27.6118 537.481 27.6032C539.458 27.5691 541.005 26.6866 540.703 24.5759C540.558 23.5586 540.686 22.483 540.814 21.4067C541.094 19.0541 541.374 16.6979 538.799 14.9395C538.539 14.7624 538.131 14.7761 537.748 14.789C537.65 14.7923 537.554 14.7956 537.462 14.7956C533.033 14.7936 528.604 14.7942 524.176 14.7948C516.234 14.7958 508.293 14.7969 500.352 14.7833C497.991 14.7799 496.799 16.0832 497.255 18.1789C497.474 19.1869 497.303 20.3085 497.132 21.431C496.766 23.824 496.4 26.2213 499.819 27.5309C500.25 27.6965 500.759 27.6695 501.265 27.6428C501.461 27.6324 501.657 27.622 501.847 27.623C502.368 27.6255 502.89 27.6361 503.413 27.6467C504.709 27.673 506.006 27.6993 507.293 27.6025C510.526 27.3591 511.718 28.7046 511.676 31.9522C511.577 39.5737 511.595 47.1969 511.613 54.8198Z" fill="white"/>
</svg>
