<svg width="960" height="76" viewBox="0 0 960 76" fill="none" xmlns="http://www.w3.org/2000/svg">
<mask id="mask0_0_2027" style="mask-type:alpha" maskUnits="userSpaceOnUse" x="0" y="0" width="960" height="76">
<rect width="960" height="76" fill="white"/>
</mask>
<g mask="url(#mask0_0_2027)">
<path fill-rule="evenodd" clip-rule="evenodd" d="M-978 222C-947.492 213.398 -919.986 205.624 -892.409 197.873C-876.153 193.304 -860.028 188.689 -843.369 184.251C-832.649 181.396 -821.59 178.588 -809.611 176.245C-804.891 175.321 -797.263 175.718 -792.664 174.942C-781.326 172.814 -769.972 170.691 -758.651 168.554C-752.135 167.324 -744.141 166.438 -739.525 164.744C-731.843 161.923 -724.659 159.776 -712.183 158.342C-699.402 156.872 -688.88 155 -675.185 156.923C-672.432 157.309 -668.011 157.372 -665.365 156.979C-647.347 154.31 -629.023 151.75 -612.001 148.582C-603.695 147.036 -598.679 146.666 -590.222 148.423C-571.63 152.286 -552.02 155.713 -534.189 159.061C-525.302 158.569 -516.983 158.107 -505.467 157.468C-500.878 153.017 -487.053 149.939 -469.427 147.475C-460.345 146.205 -454.5 142.823 -447.504 140.318C-443.7 138.956 -441.434 136.56 -436.918 136.149C-425.104 135.078 -412.017 133.989 -400.206 134.495C-386.273 135.093 -376.326 134.498 -368.144 131.169C-366.502 130.502 -364.756 129.636 -362.423 129.381C-346.489 127.634 -331.261 125.666 -318.251 122.197C-315.616 121.495 -306.662 122.359 -301.649 123.109C-293.891 124.268 -287.015 125.951 -283.802 126.6C-273.844 123.988 -266.428 121.902 -258.525 119.994C-215.521 109.614 -172.444 99.2581 -129.262 88.9431C-121.87 87.1769 -113.883 85.6317 -106.117 84.0074C-97.7272 82.2543 -89.5287 80.751 -78.594 82.6561C-75.9988 83.1089 -69.865 82.5322 -66.7797 81.8555C-17.6993 71.0927 40.3717 65.7472 94.5786 58.0869C98.3422 57.5552 104.385 57.8001 108.535 58.2988C117.311 59.3513 125.285 60.9935 134.044 62.063C147.332 63.6852 159.727 64.205 171.383 60.3498C176.151 58.7736 186.045 58.5727 195.224 57.5682C205.03 55.882 216.767 53.9139 228.323 51.8569C235.367 50.6035 243.203 49.5201 248.752 47.8049C255.601 45.6889 262.121 44.2246 271.77 42.9602C286.176 41.0721 298.538 39.6438 313.652 41.4519C316.019 41.7348 319.571 41.6878 321.901 41.364C339.681 38.8952 357.176 36.2424 375.037 33.8276C379.992 33.1579 387.613 32.2494 391.061 32.8801C427.481 39.5419 463.331 46.4795 499.244 53.3862C502.963 54.1018 506.106 55.0914 509.43 55.9819C520.233 58.8765 536.624 58.6876 546.293 55.4862C553.373 53.1443 560.215 50.7385 568.874 47.7749C574.551 49.7339 579.463 51.4161 584.331 53.1103C591.831 55.7211 598.052 58.7696 612.089 58.6617C615.295 58.6367 619.139 59.6562 621.785 60.4588C638.309 65.4754 640.404 65.5783 658.262 62.08C670.56 64.181 682.538 65.9871 693.493 68.235C697.042 68.9617 698.338 70.8038 699.916 72.2111C705.909 77.5466 717.998 80.9089 734.1 83.8995C744.867 85.8975 751.017 90.0975 759.968 93.5988C761.922 93.4389 768.348 92.3254 770.5 92.8292C785.057 96.2416 788.703 92.1115 796.482 90.0875C802.783 88.4493 811.475 87.6257 822.121 85.9725C833.271 83.6826 847.469 80.832 861.408 77.8734C866.743 76.7409 873.495 75.6555 876.16 74.0452C889.19 66.16 911.14 65.1705 936.813 66.3589C940.459 66.5279 944.914 66.31 948.198 65.8092C964.011 63.4034 979.538 60.8316 995.193 58.3328C1003.73 56.9715 1012.53 55.7411 1020.77 54.2398C1024.22 53.6111 1027.05 52.5296 1029.27 51.4851C1034.97 48.7984 1041.18 47.3881 1052.07 50.9804C1056.08 43.1911 1073.02 39.296 1091.32 35.2559C1100.54 33.2189 1104.4 28.922 1109.89 25.5326C1113.21 23.4886 1114.59 21.8424 1124.58 21.0698C1133.49 20.3811 1140.11 17.0757 1147.78 14.9167C1166.55 18.1342 1178.27 17.0507 1199.39 9.89613C1205.65 7.77515 1211.01 5.41829 1216.83 3.18137C1228.19 -1.18453 1238.82 -0.978632 1251.1 3.3183C1262.22 7.20743 1275.23 10.6158 1286.54 14.4589C1297.37 18.1382 1307.61 18.461 1316.07 15.1356C1328.82 17.5295 1340.52 19.4445 1351 21.8384C1354.87 22.724 1356.49 24.677 1358.05 26.2403C1363.73 31.9245 1375.32 35.7747 1392.23 39.139C1403.58 41.397 1409.49 46.0807 1418.31 49.8839C1426.19 47.1842 1432.04 49.0013 1438.47 51.619C1441.5 52.8554 1447.31 53.5111 1452.03 54.3537C1456.73 55.1953 1461.55 55.9869 1466.46 56.7176C1473.57 57.7761 1480.99 58.6666 1487.95 59.8041C1494.14 60.8156 1499.49 62.3609 1505.94 63.1405C1515.56 64.3039 1526.01 65.8882 1535.75 65.6973C1551.72 65.3834 1577.36 68.306 1586.93 72.1312C1593 74.561 1601.41 76.546 1609.56 78.4271C1621.82 81.2558 1634.76 83.8185 1649.71 86.982C1657.65 85.4148 1665.21 87.7666 1672.36 90.5093C1678.28 92.7822 1682.73 96.0986 1695.72 92.9901C1697.13 92.6513 1704.05 93.8417 1706.93 94.7443C1708.68 95.295 1707.76 96.6514 1707.76 97.6459C1707.77 138.291 1707.77 178.936 1707.73 219.58C1707.73 220.239 1707.36 220.898 1707.03 222H-978Z" fill="#2E4A6B"/>
</g>
</svg>
