<svg width="537" height="208" viewBox="0 0 537 208" fill="none" xmlns="http://www.w3.org/2000/svg">
<path fill-rule="evenodd" clip-rule="evenodd" d="M66.8565 90.1321C66.8565 84.794 66.8548 79.4559 66.8532 74.1178C66.8487 59.51 66.8442 44.9021 66.8733 30.2935C66.8829 25.6941 65.1448 23.2411 60.1215 23.3951C59.942 23.4006 59.7635 23.4057 59.5862 23.4107L59.5855 23.4107C55.3674 23.5303 51.8064 23.6313 51.4177 29.5861C50.5859 42.3147 49.3358 55.0179 48.0653 67.714L47.8361 70.0034C45.1554 96.7896 42.4746 123.576 39.4744 150.326C38.9347 155.139 40.7113 156.544 44.8379 156.597C49.4368 156.655 54.0381 156.635 58.6382 156.613C65.765 156.577 66.836 155.547 66.8541 148.176C66.8914 132.345 66.8781 116.515 66.8648 100.684C66.8618 97.1669 66.8589 93.6495 66.8565 90.1321ZM92.5484 80.4835C92.5494 86.2658 92.5549 92.0482 92.5605 97.8306C92.5768 114.59 92.593 131.349 92.4955 148.107C92.4655 153.063 93.0413 156.434 99.2569 157.093C101.364 157.318 104.576 161.301 104.691 163.692C105.271 175.814 105.366 187.993 104.862 200.12C104.62 205.922 100.71 208.041 93.5257 207.999C86.5203 207.959 83.1246 205.685 82.419 199.74C81.9257 195.59 81.9892 191.36 82.0523 187.158C82.0581 186.773 82.0639 186.388 82.0692 186.004C82.1293 181.785 80.289 179.665 76.0303 179.666C67.2594 179.67 58.4882 179.67 49.7168 179.67C42.885 179.67 36.0531 179.67 29.2212 179.671C25.2834 179.672 23.3241 181.733 23.246 185.575C23.2113 187.284 23.2166 188.996 23.2219 190.707C23.2303 193.387 23.2386 196.066 23.0933 198.736C22.7351 205.34 19.3538 207.998 11.7595 207.998C4.30575 207.996 0.411208 205.202 0.247733 198.799C-0.0371452 187.636 -0.189802 176.44 0.434047 165.304C0.581895 162.657 3.48958 159.224 6.04748 157.838C12.0996 154.562 15.3259 150.066 15.9533 143.292C17.1768 130.089 18.452 116.891 19.7272 103.693C20.7336 93.2785 21.7399 82.8639 22.7207 72.4469C23.5317 63.8302 24.3138 55.2108 25.0958 46.5915C26.2054 34.3623 27.3149 22.1333 28.5072 9.91218C29.2164 2.6456 32.0039 0.179289 39.418 0.107104C53.4191 -0.0300469 67.425 -0.0420776 81.4261 0.10951C89.422 0.194928 92.4943 3.45406 92.5196 11.6639C92.5702 27.7704 92.5622 43.877 92.5542 59.9832L92.5541 60.0181V60.0183V60.0185C92.5508 66.8403 92.5474 73.6619 92.5484 80.4835ZM510.93 122.9C510.93 120.741 510.933 118.583 510.937 116.425C510.945 111.604 510.952 106.785 510.922 101.965C510.863 92.511 508.594 90.2011 499.287 90.153C495.75 90.1345 492.212 90.1462 488.674 90.158C483.014 90.1767 477.354 90.1955 471.696 90.0904C462.58 89.922 460.035 87.2331 460.021 78.1066C459.985 55.9747 459.98 33.8441 460.022 11.7123C460.039 3.10192 462.88 0.137542 471.464 0.094231C480.152 0.0495778 488.84 0.057918 497.528 0.0662583C508.034 0.0763441 518.541 0.08643 529.047 0.00279713C534.621 -0.0405136 536.939 2.08051 536.98 7.76866L536.983 8.22054V8.22108C537.038 15.7611 537.066 19.5666 535.177 21.4877C533.252 23.4454 529.337 23.446 521.432 23.4472H521.421C518.454 23.4479 515.488 23.4556 512.521 23.4632L512.519 23.4632C505.689 23.4809 498.859 23.4986 492.029 23.4315C487.549 23.3882 485.423 25.188 485.484 29.8247C485.617 39.9919 485.608 50.1615 485.489 60.3287C485.431 65.2733 487.811 66.8806 492.519 66.942C493.251 66.9515 493.985 66.9601 494.719 66.9688L494.725 66.9688C502.164 67.0564 509.645 67.1444 516.98 68.1439C526.839 69.4889 533.037 75.6029 535.324 85.402C535.412 85.7788 535.515 86.1565 535.618 86.5346L535.618 86.5358L535.618 86.5364C535.887 87.5195 536.156 88.5061 536.159 89.4901C536.176 95.8427 536.256 102.199 536.336 108.555V108.556V108.556V108.557C536.539 124.714 536.742 140.873 535.906 156.977C535.149 171.519 526.347 178.567 511.786 179.317C502.619 179.787 493.38 179.801 484.219 179.265C469.798 178.418 461.13 170.044 460.336 155.819C459.809 146.385 459.918 136.91 460.027 127.443L460.027 127.439C460.054 125.139 460.08 122.84 460.098 120.541C460.14 115.025 463.45 112.255 468.79 111.817C470.569 111.67 472.368 111.713 474.16 111.755H474.161C474.369 111.76 474.578 111.765 474.786 111.77C482.299 111.937 485.374 114.877 485.487 122.297C485.547 126.241 485.533 130.186 485.519 134.131V134.136C485.506 137.966 485.493 141.796 485.547 145.624C485.665 154.056 488.913 156.664 498.887 156.617C507.802 156.575 510.817 153.882 510.911 145.629C510.97 140.403 510.956 135.176 510.942 129.949C510.936 127.599 510.93 125.249 510.93 122.9ZM171.652 81.8469H171.674C171.674 84.1036 171.659 86.3608 171.644 88.618C171.609 93.9224 171.573 99.2269 171.733 104.526C171.883 109.536 170.049 112.002 164.819 111.779C161.282 111.628 157.735 111.674 154.191 111.72H154.191L154.188 111.72C153.852 111.725 153.516 111.729 153.179 111.733C152.87 111.737 152.561 111.741 152.252 111.745C148.34 111.789 146.245 109.993 146.245 106.031C146.245 101.912 146.236 97.7928 146.226 93.6735L146.226 93.6527C146.199 81.8631 146.173 70.0735 146.357 58.2859C146.453 52.0972 149.595 49.4276 155.83 49.0956C158.018 48.9801 160.225 48.9728 162.41 49.1112C168.501 49.4962 171.462 52.3956 171.608 58.571C171.736 63.9894 171.707 69.4114 171.678 74.8332C171.665 77.1712 171.652 79.5092 171.652 81.8469ZM120.865 86.6768C120.932 92.0302 120.999 97.3837 120.999 102.734C120.797 102.734 120.137 134.251 120.457 149.999C120.878 170.762 129.687 179.332 150.414 179.604C161.811 179.753 173.215 179.747 184.611 179.574C192.124 179.461 194.866 176.14 194.815 167.979C194.765 160.016 191.81 156.75 184.271 156.649C178.833 156.576 173.395 156.591 167.956 156.606H167.956H167.956C165.595 156.612 163.234 156.619 160.873 156.618C148.111 156.613 144.924 152.993 146.203 140.342C146.577 136.641 148.263 135.021 151.968 135.09C157.167 135.187 162.373 135.242 167.567 135.053C186.278 134.371 196.266 126.776 196.814 111.044C197.528 90.5319 197.419 69.9641 196.815 49.4444C196.437 36.6136 189.469 28.6469 176.798 27.1189C165.587 25.7667 153.997 25.5249 142.78 26.7183C128.705 28.2149 122.018 35.2325 121.232 49.5371C120.553 61.8863 120.709 74.2812 120.865 86.6765V86.6767V86.6768ZM221.87 88.0511V88.0508C221.868 71.4834 221.867 54.9155 221.872 38.3483C221.872 38.035 221.87 37.7159 221.868 37.3932C221.84 33.1611 221.808 28.2948 226.656 27.2933C232.031 26.184 238.102 26.5004 243.398 27.9297C245.418 28.4759 247.138 33.8019 247.259 37.0141C247.571 45.2338 247.528 53.466 247.484 61.6989V61.6992C247.465 65.4333 247.445 69.1674 247.459 72.9007C247.483 79.8365 248.578 81.0311 255.368 81.0419C256.906 81.0445 258.309 81.0553 259.591 81.0652C266.79 81.1209 270.122 81.1467 271.639 79.5C272.947 78.0808 272.907 75.4195 272.832 70.4646C272.804 68.6342 272.772 66.4906 272.801 63.9811C272.847 60.0046 272.829 56.0277 272.811 52.0508C272.789 47.0542 272.767 42.0577 272.871 37.0623C273.048 28.5324 276.172 25.9061 285.493 25.8712C295.374 25.8327 298.722 28.3772 298.744 37.0214C298.858 80.8891 298.861 124.758 298.743 168.626C298.72 177.229 295.41 179.689 285.427 179.643C276.088 179.598 272.946 177.011 272.875 168.453C272.777 156.544 272.79 144.635 272.803 132.726C272.81 125.892 272.818 119.057 272.804 112.222C272.79 104.799 271.997 104.009 264.498 104C263.018 103.999 261.664 103.988 260.427 103.978C253.687 103.925 250.408 103.899 248.83 105.524C247.335 107.064 247.366 110.085 247.427 115.966C247.442 117.45 247.459 119.116 247.454 120.986C247.412 136.54 247.425 152.093 247.45 167.645C247.457 172.207 247.188 177.673 242.195 178.512C236.62 179.446 230.436 178.643 224.944 177.093C223.214 176.606 222.041 171.282 222.005 168.157C221.816 151.723 221.837 135.285 221.858 118.848L221.858 118.813C221.865 113.527 221.872 108.241 221.871 102.955C221.871 97.9869 221.87 93.019 221.87 88.0511ZM375.543 130.697H375.504C375.504 132.293 375.522 133.89 375.541 135.487C375.582 139.065 375.624 142.643 375.457 146.212C375.112 153.63 372.009 156.435 364.523 156.614C357.14 156.791 353.449 156.88 351.603 155.078C349.757 153.276 349.757 149.582 349.757 142.195C349.757 139.175 349.767 136.155 349.777 133.134C349.801 125.81 349.825 118.485 349.712 111.163C349.634 106.112 351.746 104.071 356.82 103.928C373.566 103.454 375.54 105.218 375.543 121.745C375.544 123.734 375.544 125.724 375.544 127.713C375.544 128.708 375.543 129.703 375.543 130.697ZM324.19 89.4926C324.19 93.7311 324.19 97.9697 324.191 102.208C324.191 108.54 324.188 114.871 324.186 121.202C324.179 136.808 324.173 152.413 324.211 168.018C324.23 175.727 326.596 179.342 332.664 179.419C333.268 179.427 333.873 179.435 334.478 179.443C349.264 179.634 364.082 179.826 378.83 178.996C390.473 178.344 399.105 171.092 399.675 160.199C400.714 140.364 400.643 120.406 399.699 100.563C399.235 90.8044 392.343 84.078 382.373 82.52C376.165 81.5494 369.817 81.3942 363.486 81.2394C361.836 81.1991 360.187 81.1587 358.542 81.104C350.933 80.8502 349.806 79.9394 349.773 72.4671C349.757 68.7037 349.777 64.9392 349.796 61.1749C349.839 52.9706 349.881 44.7673 349.553 36.5781C349.428 33.4333 347.492 28.1939 345.475 27.7115C340.133 26.435 334.029 26.1884 328.727 27.5142C324.125 28.6669 324.158 33.5779 324.187 37.8127C324.19 38.1435 324.192 38.4702 324.192 38.7906C324.187 55.6922 324.188 72.5922 324.19 89.4926Z" fill="white"/>
</svg>
