<svg width="537" height="203" viewBox="0 0 537 203" fill="none" xmlns="http://www.w3.org/2000/svg">
<path fill-rule="evenodd" clip-rule="evenodd" d="M65.2402 87.9655C65.2402 82.7561 65.2386 77.5466 65.237 72.3372C65.2327 58.0802 65.2283 43.8231 65.2567 29.5653C65.266 25.0765 63.5699 22.6824 58.6681 22.8327C58.4927 22.8381 58.3183 22.843 58.145 22.848C54.0289 22.9647 50.554 23.0633 50.1747 28.8749C49.363 41.2975 48.1431 53.6954 46.9033 66.0863L46.6797 68.3206L46.6797 68.3212C44.0637 94.4633 41.4477 120.605 38.5202 146.712C37.9935 151.41 39.7271 152.781 43.7539 152.833C48.2417 152.889 52.7318 152.869 57.2207 152.848C64.1752 152.813 65.2203 151.808 65.2379 144.614C65.2744 129.164 65.2614 113.714 65.2484 98.2643C65.2455 94.8314 65.2426 91.3985 65.2402 87.9655ZM90.3111 78.5488C90.312 84.1924 90.3175 89.8361 90.3229 95.4797V95.4798V95.48V95.4801C90.3387 111.836 90.3546 128.192 90.2595 144.547C90.2302 149.383 90.792 152.673 96.8574 153.317C98.9136 153.536 102.048 157.424 102.16 159.757C102.726 171.588 102.818 183.474 102.327 195.309C102.091 200.972 98.2755 203.04 91.2647 202.999C84.4287 202.96 81.1151 200.741 80.4266 194.938C79.9452 190.888 80.0072 186.76 80.0687 182.659V182.659L80.0689 182.649L80.069 182.64L80.0691 182.633C80.0746 182.266 80.0801 181.899 80.0852 181.533C80.1439 177.415 78.3481 175.346 74.1923 175.347C65.6282 175.351 57.0637 175.351 48.4991 175.351C41.8377 175.351 35.1763 175.351 28.5148 175.352C24.6722 175.353 22.7603 177.365 22.684 181.114C22.6502 182.782 22.6554 184.453 22.6606 186.123C22.6687 188.738 22.6768 191.353 22.5351 193.959C22.1855 200.404 18.886 202.998 11.4752 202.998C4.20166 202.996 0.401267 200.269 0.241745 194.02C-0.0362473 183.125 -0.185213 172.198 0.423554 161.33C0.567828 158.747 3.40522 155.396 5.90128 154.044C11.8071 150.846 14.9554 146.458 15.5677 139.848C16.7615 126.962 18.0059 114.082 19.2503 101.201L19.2503 101.201L19.2503 101.201L19.2504 101.201L19.2505 101.199L19.2506 101.198L19.2507 101.197C20.2326 91.0335 21.2145 80.8706 22.1714 70.7054C22.9628 62.2959 23.726 53.8837 24.4891 45.4716C25.5719 33.5364 26.6546 21.6013 27.8181 9.67391C28.5101 2.582 31.2302 0.174979 38.465 0.104529C52.1277 -0.0293246 65.795 -0.0410662 79.4577 0.106878C87.2602 0.190243 90.2583 3.37103 90.283 11.3835C90.3324 27.1036 90.3245 42.8238 90.3167 58.5435V58.5437V58.5438V58.544C90.3134 65.2123 90.3101 71.8806 90.3111 78.5488ZM167.524 79.8794H167.503C167.503 77.6009 167.515 75.3221 167.527 73.0432V73.0431V73.0429L167.527 73.0344C167.556 67.7429 167.585 62.4512 167.459 57.163C167.317 51.1361 164.427 48.3064 158.484 47.9306C156.351 47.7956 154.198 47.8027 152.063 47.9154C145.979 48.2394 142.913 50.8449 142.819 56.8848C142.639 68.389 142.665 79.8951 142.691 91.4013C142.7 95.4284 142.709 99.4554 142.71 103.482C142.71 107.349 144.754 109.102 148.571 109.058C149.2 109.051 149.83 109.043 150.459 109.035L150.461 109.035L150.463 109.035H150.463H150.464H150.464C153.922 108.99 157.383 108.944 160.834 109.092C165.938 109.31 167.728 106.903 167.581 102.013C167.426 96.8417 167.46 91.6648 167.495 86.488C167.509 84.285 167.524 82.082 167.524 79.8794ZM118.074 100.264C118.074 95.0427 118.008 89.818 117.943 84.5932C117.791 72.4958 117.639 60.3987 118.302 48.3463C119.069 34.3856 125.594 27.5367 139.328 26.0761C150.274 24.9113 161.584 25.1473 172.524 26.4671C184.888 27.9582 191.688 35.7335 192.057 48.2559C192.646 68.2823 192.753 88.3557 192.056 108.375C191.521 123.728 181.775 131.141 163.516 131.807C158.447 131.991 153.367 131.937 148.294 131.843C144.679 131.775 143.034 133.356 142.669 136.968C141.421 149.316 144.53 152.849 156.984 152.853C159.287 152.854 161.591 152.848 163.895 152.841H163.895H163.896H163.896C169.203 152.826 174.51 152.812 179.816 152.884C187.173 152.982 190.056 156.169 190.106 163.941C190.155 171.906 187.479 175.147 180.148 175.257C169.027 175.426 157.9 175.432 146.778 175.287C126.552 175.021 117.956 166.657 117.545 146.393C117.233 131.023 117.877 100.264 118.074 100.264ZM490.747 175.304H490.747H490.747C493.598 175.312 496.449 175.32 499.3 175.322C501.462 175.323 503.624 175.327 505.786 175.331C511.234 175.341 516.681 175.351 522.127 175.32C523.839 175.31 525.354 175.326 526.695 175.34H526.696C531.488 175.391 534.049 175.418 535.418 174.155C536.99 172.704 536.991 169.552 536.995 162.781C536.995 161.904 536.996 160.967 537 159.965C537.02 154.765 534.959 152.667 529.637 152.777C523.429 152.907 517.217 152.884 511.005 152.862C505.315 152.841 499.624 152.82 493.936 152.917C488.871 153.003 486.836 150.967 487.021 145.996C487.232 140.362 487.209 134.712 487.1 129.071C486.992 123.477 489.285 119.388 494.073 116.511C498.06 114.116 502.026 111.685 505.993 109.253L505.993 109.253C510.327 106.597 514.661 103.94 519.023 101.33C528.571 95.6191 535.813 87.8098 536.272 76.4651C536.999 58.605 537.178 40.6557 536.229 22.8155C535.509 9.27986 528.153 2.19382 514.695 0.949218C504.673 0.022808 494.417 0.123785 484.392 1.08307C472.031 2.2631 464.892 9.69316 463.905 22.0418C462.994 33.4557 463.001 44.9672 463.135 56.4293C463.226 64.3196 466.676 66.682 476.134 66.6151C484.86 66.5541 488.045 63.9239 488.263 56.07C488.383 51.717 488.362 47.3604 488.341 43.0034V42.9978C488.327 39.9609 488.312 36.9239 488.345 33.8878C488.439 25.34 490.952 22.9564 499.693 22.8942C508.775 22.8285 511.771 25.4292 511.848 33.7963C511.885 37.8612 511.858 41.9278 511.831 45.9941V45.9944V45.9946C511.788 52.438 511.745 58.881 511.958 65.3165C512.234 73.6354 508.901 79.3888 501.759 83.483C492.977 88.5178 484.277 93.7135 475.739 99.1486C467.511 104.387 462.636 111.963 462.408 121.845C462.168 132.194 462.089 142.546 462.011 152.898C461.97 158.301 461.928 163.704 461.865 169.107C461.813 173.492 463.812 175.42 468.278 175.36C475.766 175.26 483.255 175.282 490.744 175.304H490.747ZM216.507 92.2172L216.506 85.9489C216.505 69.7748 216.503 53.6003 216.509 37.4265C216.509 37.1219 216.507 36.8118 216.505 36.4981L216.505 36.4943C216.477 32.364 216.446 27.6147 221.177 26.6372C226.421 25.5546 232.346 25.8634 237.514 27.2583C239.485 27.7914 241.163 32.9894 241.282 36.1244C241.586 44.1465 241.544 52.1808 241.502 60.2159V60.2162C241.482 63.8604 241.463 67.5048 241.476 71.1483C241.5 77.9173 242.568 79.0832 249.195 79.0938C250.695 79.0963 252.065 79.1069 253.315 79.1165C260.34 79.1709 263.592 79.196 265.072 77.5891C266.349 76.2042 266.309 73.6068 266.236 68.7708C266.209 66.9843 266.178 64.8923 266.206 62.4431C266.251 58.5643 266.233 54.685 266.216 50.8058V50.8001C266.194 45.9235 266.173 41.0469 266.274 36.1713C266.448 27.8466 269.496 25.2834 278.591 25.2493C288.233 25.2118 291.501 27.6951 291.522 36.1314C291.633 78.9447 291.636 121.759 291.521 164.572C291.499 172.969 288.268 175.37 278.527 175.324C269.414 175.281 266.348 172.756 266.279 164.403C266.183 152.782 266.195 141.16 266.208 129.537C266.215 122.867 266.223 116.195 266.209 109.524C266.195 102.28 265.421 101.508 258.104 101.5C256.659 101.499 255.339 101.488 254.132 101.479C247.555 101.427 244.355 101.401 242.815 102.987C241.356 104.49 241.386 107.438 241.445 113.179C241.46 114.627 241.477 116.253 241.472 118.078C241.431 133.258 241.444 148.437 241.468 163.615C241.475 168.068 241.212 173.402 236.34 174.22C230.9 175.133 224.865 174.348 219.506 172.836C217.818 172.361 216.673 167.165 216.638 164.115C216.454 148.076 216.474 132.034 216.495 115.993V115.993C216.501 110.822 216.508 105.651 216.508 100.48C216.507 97.7257 216.507 94.9715 216.507 92.2172ZM366.465 127.555H366.426C366.426 129.113 366.444 130.671 366.462 132.23C366.503 135.722 366.543 139.214 366.38 142.697C366.044 149.937 363.016 152.674 355.711 152.849C348.507 153.022 344.905 153.109 343.103 151.35C341.301 149.592 341.301 145.987 341.301 138.777C341.302 135.83 341.311 132.883 341.321 129.937C341.345 122.787 341.368 115.638 341.258 108.491C341.182 103.562 343.243 101.569 348.194 101.429C364.535 100.967 366.461 102.689 366.465 118.819C366.466 120.76 366.465 122.702 366.465 124.643C366.465 125.614 366.465 126.585 366.465 127.555ZM316.353 87.3405C316.353 91.4774 316.353 95.6144 316.354 99.7515C316.354 105.93 316.351 112.108 316.349 118.286C316.342 133.517 316.336 148.748 316.374 163.979C316.392 171.503 318.701 175.031 324.622 175.106C325.212 175.114 325.802 175.122 326.392 175.129C340.821 175.316 355.28 175.503 369.672 174.693C381.033 174.057 389.457 166.979 390.013 156.348C391.027 136.99 390.957 117.512 390.037 98.1452C389.584 88.6216 382.858 82.0569 373.13 80.5364C367.071 79.5891 360.877 79.4376 354.699 79.2865C353.089 79.2471 351.48 79.2078 349.874 79.1544C342.45 78.9067 341.349 78.0178 341.318 70.7251C341.302 67.0519 341.321 63.3776 341.34 59.7035C341.382 51.6967 341.423 43.6909 341.103 35.6989C340.981 32.6296 339.091 27.5162 337.123 27.0453C331.911 25.7995 325.954 25.5588 320.78 26.8528C316.289 27.9778 316.322 32.7708 316.35 36.9038C316.353 37.2266 316.355 37.5454 316.355 37.8581C316.35 54.3531 316.351 70.8467 316.353 87.3405Z" fill="white"/>
</svg>
