<svg width="960" height="76" viewBox="0 0 960 76" fill="none" xmlns="http://www.w3.org/2000/svg">
<mask id="mask0_0_2021" style="mask-type:alpha" maskUnits="userSpaceOnUse" x="0" y="0" width="960" height="76">
<rect width="960" height="76" transform="matrix(-1 0 0 1 960 0)" fill="white"/>
</mask>
<g mask="url(#mask0_0_2021)">
<path fill-rule="evenodd" clip-rule="evenodd" d="M0 0C30.5077 3.9522 58.0141 7.52416 85.5909 11.0856C101.847 13.1847 117.972 15.305 134.631 17.3441C145.351 18.6561 156.41 19.9461 168.389 21.0226C173.109 21.4469 180.737 21.2646 185.336 21.6214C196.674 22.5991 208.028 23.5745 219.349 24.5564C225.865 25.1213 233.859 25.5286 238.475 26.307C246.157 27.603 253.341 28.5894 265.817 29.2484C278.598 29.9235 289.12 30.7837 302.815 29.9001C305.568 29.7228 309.989 29.6939 312.635 29.8744C330.653 31.101 348.977 32.2771 365.999 33.7324C374.305 34.4429 379.321 34.6128 387.778 33.8055C406.37 32.031 425.98 30.4562 443.811 28.9178C452.698 29.1442 461.017 29.3563 472.533 29.6498C477.122 31.6948 490.947 33.1093 508.573 34.2413C517.655 34.8245 523.5 36.3786 530.496 37.5294C534.3 38.1554 536.566 39.2561 541.082 39.4449C552.896 39.9372 565.983 40.4373 577.794 40.2049C591.727 39.9303 601.674 40.2036 609.856 41.7333C611.498 42.0396 613.244 42.4373 615.577 42.5549C631.511 43.3571 646.739 44.2614 659.749 45.8554C662.384 46.1778 671.338 45.781 676.351 45.4366C684.109 44.9039 690.985 44.1305 694.198 43.8325C704.156 45.0325 711.572 45.9909 719.475 46.8676C762.479 51.6368 805.556 56.3949 848.738 61.1343C856.13 61.9457 864.117 62.6557 871.883 63.402C880.273 64.2075 888.471 64.8982 899.406 64.0229C902.001 63.8148 908.135 64.0798 911.22 64.3907C960.301 69.3358 1018.37 71.7918 1072.58 75.3114C1076.34 75.5557 1082.39 75.4432 1086.53 75.2141C1095.31 74.7305 1103.28 73.9759 1112.04 73.4846C1125.33 72.7392 1137.73 72.5004 1149.38 74.2717C1154.15 74.9959 1164.04 75.0882 1173.22 75.5498C1183.03 76.3245 1194.77 77.2287 1206.32 78.1738C1213.37 78.7497 1221.2 79.2475 1226.75 80.0356C1233.6 81.0078 1240.12 81.6806 1249.77 82.2615C1264.18 83.129 1276.54 83.7853 1291.65 82.9545C1294.02 82.8246 1297.57 82.8461 1299.9 82.9949C1317.68 84.1292 1335.18 85.3481 1353.04 86.4576C1357.99 86.7653 1365.61 87.1827 1369.06 86.8929C1405.48 83.8321 1441.33 80.6445 1477.24 77.4712C1480.96 77.1424 1484.11 76.6877 1487.43 76.2786C1498.23 74.9486 1514.62 75.0354 1524.29 76.5063C1531.37 77.5823 1538.22 78.6877 1546.87 80.0494C1552.55 79.1493 1557.46 78.3764 1562.33 77.598C1569.83 76.3984 1576.05 74.9978 1590.09 75.0473C1593.3 75.0588 1597.14 74.5904 1599.78 74.2216C1616.31 71.9167 1618.4 71.8694 1636.26 73.4768C1648.56 72.5114 1660.54 71.6816 1671.49 70.6488C1675.04 70.3149 1676.34 69.4685 1677.92 68.8219C1683.91 66.3705 1696 64.8256 1712.1 63.4516C1722.87 62.5336 1729.02 60.6038 1737.97 58.9951C1739.92 59.0686 1746.35 59.5802 1748.5 59.3487C1763.06 57.7809 1766.7 59.6785 1774.48 60.6084C1780.78 61.3611 1789.48 61.7395 1800.12 62.4991C1811.27 63.5512 1825.47 64.861 1839.41 66.2203C1844.74 66.7406 1851.49 67.2394 1854.16 67.9792C1867.19 71.6021 1889.14 72.0568 1914.81 71.5108C1918.46 71.4331 1922.91 71.5333 1926.2 71.7633C1942.01 72.8687 1957.54 74.0503 1973.19 75.1984C1981.73 75.8239 1990.53 76.3892 1998.77 77.079C2002.22 77.3679 2005.05 77.8648 2007.27 78.3447C2012.97 79.5791 2019.18 80.2271 2030.07 78.5766C2034.08 82.1554 2051.02 83.9451 2069.32 85.8013C2078.54 86.7373 2082.4 88.7115 2087.89 90.2688C2091.21 91.2079 2092.59 91.9643 2102.58 92.3193C2111.49 92.6357 2118.11 94.1544 2125.78 95.1464C2144.55 93.6681 2156.27 94.1659 2177.39 97.4531C2183.65 98.4276 2189.01 99.5105 2194.83 100.538C2206.19 102.544 2216.82 102.45 2229.1 100.475C2240.22 98.6885 2253.23 97.1225 2264.54 95.3567C2275.37 93.6662 2285.61 93.5179 2294.07 95.0458C2306.82 93.9459 2318.52 93.066 2329 91.9661C2332.87 91.5593 2334.49 90.6619 2336.05 89.9437C2341.73 87.332 2353.32 85.563 2370.23 84.0172C2381.58 82.9798 2387.49 80.8278 2396.31 79.0804C2404.19 80.3208 2410.04 79.4859 2416.47 78.2831C2419.5 77.7151 2425.31 77.4138 2430.03 77.0267C2434.73 76.64 2439.55 76.2763 2444.46 75.9406C2451.57 75.4542 2458.99 75.0451 2465.95 74.5224C2472.14 74.0577 2477.49 73.3477 2483.94 72.9895C2493.56 72.4549 2504.01 71.7271 2513.75 71.8148C2529.72 71.959 2555.36 70.6162 2564.93 68.8587C2571 67.7422 2579.41 66.8302 2587.56 65.9659C2599.82 64.6663 2612.76 63.4888 2627.71 62.0353C2635.65 62.7554 2643.21 61.6748 2650.36 60.4146C2656.28 59.3703 2660.73 57.8466 2673.72 59.2748C2675.13 59.4305 2682.05 58.8835 2684.93 58.4688C2686.68 58.2158 2685.76 57.5926 2685.76 57.1357C2685.77 38.4608 2685.77 19.7863 2685.73 1.11182C2685.73 0.809181 2685.36 0.506538 2685.03 0L0 0Z" fill="#2E4A6B"/>
</g>
</svg>
