<svg width="547" height="208" viewBox="0 0 547 208" fill="none" xmlns="http://www.w3.org/2000/svg">
<path fill-rule="evenodd" clip-rule="evenodd" d="M477.385 135.057C475.525 135.057 473.666 135.058 471.807 135.06C468.088 135.062 464.369 135.065 460.65 135.05C450.067 135.008 447.252 131.512 449.84 121.489C453.492 107.343 457.172 93.2044 460.852 79.0657L460.856 79.0498C462.417 73.0511 463.978 67.0524 465.537 61.0532C466.776 56.2874 468.016 51.5221 469.256 46.7567L469.271 46.6995C472.22 35.3685 475.168 24.0375 478.094 12.7006C480.693 2.63431 489.331 -2.11274 499.157 1.29016C504.414 3.1107 505.079 6.91097 503.815 11.8316C499.593 28.2742 495.445 44.7357 491.298 61.1974L491.294 61.2128L491.288 61.2378C489.724 67.4457 488.16 73.6537 486.591 79.8607C485.97 82.3223 485.356 84.7863 484.743 87.2504L484.742 87.2536L484.742 87.2552C483.201 93.4463 481.66 99.6379 479.983 105.793C478.886 109.822 480.653 111.331 484.265 111.755C484.499 111.783 484.736 111.787 484.973 111.79C485.135 111.793 485.297 111.795 485.458 111.806L485.459 111.806C494.04 112.358 498.328 112.634 500.471 110.623C502.611 108.615 502.612 104.327 502.615 95.757V95.7464C502.615 94.1509 502.604 92.555 502.593 90.959V90.9571C502.565 86.9945 502.537 83.0316 502.687 79.0755C502.978 71.3804 505.73 68.7567 513.287 68.479C525.841 68.0146 528.336 70.43 528.351 83.0744C528.354 85.1926 528.362 87.3107 528.371 89.4288C528.392 94.8536 528.414 100.278 528.333 105.701C528.27 109.976 530.192 111.656 534.432 111.874C544.522 112.392 548.856 119.461 545.363 129.022C543.606 133.835 539.574 135.037 535.341 134.919C529.636 134.757 528.12 137.308 528.282 142.488C528.548 151.015 528.436 159.557 528.319 168.09C528.202 176.651 525.197 179.305 515.963 179.366C505.784 179.431 502.901 177.221 502.684 168.497C502.463 159.571 502.525 150.636 502.633 141.705C502.69 137.006 500.908 134.776 495.91 134.995C491.591 135.185 487.263 135.141 482.935 135.096C481.085 135.077 479.234 135.058 477.385 135.057ZM66.571 74.3808V74.3807C66.5665 59.8473 66.562 45.3136 66.591 30.7793C66.6005 26.2034 64.8698 23.7629 59.8678 23.9161C59.6888 23.9216 59.5108 23.9266 59.334 23.9317C55.1337 24.0507 51.5878 24.1512 51.2008 30.0755C50.3725 42.7391 49.1277 55.3776 47.8625 68.0088L47.6342 70.2883L47.6341 70.2891L47.634 70.2898L47.6339 70.2906C44.9646 96.9387 42.2953 123.587 39.308 150.199C38.7706 154.988 40.5396 156.386 44.6487 156.439C49.2282 156.496 53.8101 156.476 58.3908 156.454C65.4874 156.418 66.5539 155.394 66.5718 148.06C66.609 132.312 66.5958 116.565 66.5825 100.817L66.5824 100.675C66.5795 97.2211 66.5766 93.7668 66.5742 90.3125C66.5742 85.002 66.5726 79.6915 66.571 74.381V74.3809V74.3808ZM92.1575 80.7131C92.1585 86.4658 92.164 92.2186 92.1696 97.9712V97.9714V97.9715V97.9716C92.1857 114.646 92.2019 131.319 92.1049 147.992C92.075 152.922 92.6483 156.276 98.8376 156.932C100.936 157.155 104.134 161.119 104.249 163.497C104.826 175.557 104.92 187.674 104.419 199.739C104.178 205.512 100.285 207.62 93.1306 207.578C86.1549 207.538 82.7736 205.276 82.071 199.361C81.5797 195.232 81.643 191.023 81.7058 186.843V186.843L81.706 186.833C81.7117 186.453 81.7174 186.074 81.7226 185.695C81.7825 181.498 79.95 179.389 75.7092 179.39C66.9693 179.393 58.229 179.393 49.4886 179.393C42.6918 179.393 35.895 179.393 29.0981 179.395C25.177 179.396 23.226 181.446 23.1482 185.268C23.1136 186.969 23.1189 188.672 23.1242 190.374C23.1325 193.04 23.1408 195.706 22.9962 198.362C22.6395 204.932 19.2725 207.576 11.7102 207.576C4.28803 207.575 0.409957 204.795 0.247174 198.425C-0.0364999 187.318 -0.188511 176.18 0.432699 165.101C0.579922 162.467 3.47531 159.051 6.02239 157.673C12.049 154.413 15.2615 149.94 15.8863 143.202C17.1046 130.066 18.3745 116.935 19.6443 103.804C20.6464 93.4428 21.6484 83.0813 22.6251 72.7176C23.4326 64.1455 24.2113 55.5707 24.99 46.996L24.9901 46.9954L24.9901 46.9948L24.9902 46.9942L24.9902 46.9939L24.9902 46.9937L24.9902 46.9934C26.0951 34.8269 27.1999 22.6606 28.3872 10.502C29.0933 3.27252 31.869 0.818802 39.2517 0.746985C53.1937 0.610535 67.1404 0.598565 81.0823 0.749379C89.0443 0.834362 92.1037 4.07686 92.1288 12.2448C92.1792 28.2675 92.1712 44.2902 92.1632 60.3126V60.3187V60.3188V60.319V60.3192C92.1599 67.1172 92.1565 73.9152 92.1575 80.7131ZM170.948 82.0696H170.927C170.927 79.7439 170.939 77.4178 170.952 75.0917C170.981 69.6975 171.011 64.3033 170.883 58.9125C170.738 52.7686 167.788 49.884 161.724 49.501C159.548 49.3633 157.35 49.3705 155.172 49.4854C148.963 49.8158 145.834 52.4718 145.739 58.6288C145.555 70.3564 145.582 82.0859 145.608 93.8154C145.618 97.9205 145.627 102.025 145.627 106.13C145.627 110.072 147.713 111.859 151.608 111.815C151.962 111.811 152.317 111.806 152.671 111.802L153.539 111.791H153.54C157.069 111.745 160.601 111.699 164.122 111.849C169.33 112.071 171.157 109.617 171.007 104.633C170.848 99.3609 170.883 94.0834 170.919 88.806C170.933 86.5604 170.948 84.3148 170.948 82.0696ZM120.488 102.85C120.488 97.5271 120.421 92.2009 120.354 86.8748C120.199 74.5427 120.044 62.2109 120.72 49.9247C121.503 35.6931 128.162 28.7114 142.176 27.2224C153.346 26.035 164.887 26.2756 176.051 27.621C188.668 29.1411 195.606 37.0672 195.984 49.8325C196.584 70.2475 196.693 90.7103 195.982 111.118C195.437 126.769 185.491 134.325 166.858 135.004C161.687 135.192 156.503 135.137 151.326 135.041C147.637 134.972 145.958 136.584 145.585 140.266C144.312 152.853 147.485 156.454 160.193 156.459C162.543 156.46 164.894 156.453 167.246 156.447H167.246H167.246H167.246C172.662 156.432 178.078 156.417 183.492 156.49C190.999 156.591 193.942 159.839 193.992 167.762C194.042 175.882 191.312 179.185 183.831 179.298C172.483 179.47 161.128 179.476 149.778 179.328C129.139 179.057 120.367 170.53 119.948 149.874C119.63 134.206 120.287 102.85 120.488 102.85ZM220.932 88.2128V88.2131C220.933 93.1654 220.933 98.1176 220.933 103.07C220.934 108.341 220.927 113.613 220.92 118.884V118.885V118.885C220.9 135.237 220.879 151.59 221.066 167.939C221.102 171.049 222.27 176.345 223.993 176.83C229.462 178.371 235.62 179.171 241.171 178.241C246.143 177.407 246.411 171.969 246.404 167.43C246.379 151.957 246.366 136.483 246.408 121.009C246.413 119.149 246.396 117.492 246.381 116.016V116.015C246.321 110.165 246.29 107.16 247.777 105.628C249.348 104.009 252.613 104.035 259.327 104.088C260.558 104.098 261.906 104.108 263.38 104.11C270.847 104.118 271.637 104.905 271.651 112.29C271.665 119.09 271.657 125.89 271.65 132.69V132.7C271.637 144.545 271.624 156.389 271.722 168.233C271.792 176.748 274.921 179.322 284.22 179.366C294.161 179.413 297.457 176.965 297.48 168.406C297.597 124.762 297.595 81.1167 297.481 37.4728C297.46 28.8728 294.125 26.3413 284.286 26.3796C275.005 26.4143 271.894 29.0272 271.717 37.5135C271.614 42.4835 271.636 47.4546 271.658 52.4258C271.676 56.3823 271.693 60.3389 271.648 64.295C271.619 66.7918 271.651 68.9244 271.679 70.7455C271.753 75.6735 271.793 78.3211 270.492 79.7333C268.982 81.373 265.664 81.3473 258.493 81.2919C257.217 81.2821 255.82 81.2713 254.288 81.2687C247.527 81.258 246.437 80.0694 246.413 73.1691C246.399 69.4548 246.419 65.7396 246.438 62.0246C246.481 53.8336 246.524 45.6434 246.214 37.4656C246.093 34.2698 244.38 28.971 242.369 28.4276C237.096 27.0056 231.05 26.6908 225.698 27.7944C220.871 28.7909 220.903 33.6323 220.931 37.8428C220.933 38.1639 220.935 38.4813 220.935 38.793C220.929 55.266 220.931 71.7396 220.932 88.2128ZM373.956 130.671H373.916C373.916 132.258 373.935 133.847 373.953 135.436C373.995 138.995 374.036 142.555 373.87 146.106C373.526 153.487 370.437 156.277 362.982 156.455C355.628 156.632 351.952 156.72 350.115 154.925C348.278 153.132 348.278 149.457 348.278 142.11C348.278 139.105 348.288 136.101 348.298 133.096C348.322 125.809 348.346 118.521 348.234 111.236C348.156 106.211 350.259 104.18 355.311 104.038C371.987 103.566 373.952 105.322 373.956 121.764C373.957 123.743 373.956 125.723 373.956 127.702C373.956 128.692 373.956 129.681 373.956 130.671ZM322.819 89.644C322.82 93.8717 322.82 98.0994 322.82 102.327C322.821 108.621 322.818 114.915 322.815 121.209C322.809 136.74 322.802 152.271 322.841 167.801C322.86 175.471 325.215 179.068 331.257 179.144C331.859 179.152 332.461 179.16 333.063 179.167C347.787 179.358 362.542 179.548 377.228 178.723C388.822 178.074 397.418 170.859 397.985 160.022C399.02 140.288 398.949 120.432 398.009 100.69C397.547 90.9814 390.684 84.2893 380.757 82.7393C374.575 81.7737 368.254 81.6192 361.949 81.4652C360.306 81.425 358.664 81.3849 357.026 81.3305C349.45 81.0779 348.327 80.1719 348.295 72.7377C348.278 68.9931 348.298 65.2475 348.317 61.5021C348.36 53.3401 348.402 45.1789 348.076 37.0319C347.951 33.9031 346.023 28.6904 344.014 28.2105C338.695 26.9405 332.617 26.6951 327.337 28.0142C322.754 29.161 322.788 34.047 322.817 38.2602C322.819 38.5893 322.821 38.9143 322.821 39.233C322.817 56.0376 322.818 72.8407 322.819 89.644Z" fill="white"/>
</svg>
