<svg width="505" height="203" viewBox="0 0 505 203" fill="none" xmlns="http://www.w3.org/2000/svg">
<path fill-rule="evenodd" clip-rule="evenodd" d="M65.1714 29.4968C65.1807 25.0184 63.4869 22.6287 58.5915 22.7798C58.4156 22.7852 58.2407 22.7902 58.0669 22.7951C53.9571 22.9114 50.4879 23.0097 50.1091 28.8068C49.2985 41.2005 48.0802 53.5708 46.842 65.9329L46.6212 68.137C44.0078 94.2268 41.3945 120.316 38.4698 146.371C37.9439 151.058 39.6752 152.426 43.6967 152.477C48.1786 152.534 52.6629 152.514 57.1459 152.492C64.0913 152.458 65.1351 151.454 65.1526 144.278C65.189 128.865 65.1761 113.451 65.1631 98.0379C65.1602 94.6124 65.1573 91.1868 65.155 87.7613C65.155 82.5645 65.1534 77.3677 65.1518 72.1708V72.1707V72.1706V72.1705C65.1474 57.9459 65.1431 43.721 65.1714 29.4968ZM90.1415 144.211C90.1123 149.036 90.6734 152.318 96.7308 152.961C98.7843 153.179 101.914 157.058 102.027 159.386C102.591 171.189 102.684 183.048 102.193 194.854C101.958 200.505 98.1471 202.568 91.1455 202.527C84.3184 202.489 81.0091 200.275 80.3215 194.485C79.8407 190.445 79.9026 186.326 79.9641 182.234V182.234L79.9642 182.225L79.9644 182.216C79.9699 181.847 79.9754 181.479 79.9806 181.111C80.0391 177.003 78.2457 174.939 74.0953 174.94C65.5393 174.943 56.983 174.943 48.4265 174.943C41.7769 174.943 35.1272 174.943 28.4775 174.945C24.6399 174.946 22.7305 176.953 22.6544 180.693C22.6206 182.358 22.6258 184.024 22.6309 185.69V185.69V185.69V185.69V185.69C22.6391 188.299 22.6472 190.908 22.5056 193.508C22.1565 199.938 18.8613 202.526 11.4602 202.526C4.19617 202.525 0.400743 199.804 0.241429 193.568C-0.0361999 182.7 -0.184971 171.798 0.423 160.954C0.567086 158.377 3.40077 155.035 5.89357 153.686C11.7917 150.495 14.9358 146.118 15.5473 139.522C16.7387 126.676 17.9805 113.836 19.2224 100.995L19.2224 100.994L19.2226 100.992C20.2042 90.8424 21.1858 80.6925 22.1425 70.5401C22.9333 62.1452 23.696 53.7474 24.4586 45.3495C25.5394 33.4476 26.6203 21.5454 27.7817 9.65041C28.4729 2.57616 31.1894 0.174726 38.4148 0.104441C52.0596 -0.0291021 65.7091 -0.0408164 79.3539 0.105612C87.1462 0.189955 90.1404 3.36218 90.165 11.356C90.2143 27.0397 90.2065 42.7223 90.1987 58.4049C90.1954 65.0587 90.192 71.7125 90.1931 78.3664C90.194 83.9965 90.1994 89.6266 90.2049 95.2566C90.2207 111.575 90.2365 127.893 90.1415 144.211ZM167.284 79.694C167.284 77.4178 167.296 75.1413 167.308 72.8647C167.337 67.5856 167.366 62.3063 167.24 57.0304C167.099 51.0174 164.212 48.1943 158.277 47.8194C156.147 47.6847 153.996 47.6917 151.864 47.8042C145.788 48.1275 142.726 50.7269 142.632 56.7527C142.453 68.2291 142.479 79.708 142.505 91.1876V91.1878V91.1881V91.1883C142.514 95.2062 142.523 99.2241 142.523 103.242C142.523 107.1 144.565 108.847 148.377 108.805C149.006 108.798 149.635 108.79 150.264 108.782L150.266 108.782H150.267H150.267H150.267C153.721 108.737 157.178 108.692 160.624 108.839C165.721 109.055 167.509 106.653 167.362 101.777C167.207 96.6172 167.241 91.4526 167.276 86.2881V86.2869C167.29 84.0891 167.305 81.8914 167.305 79.694H167.284ZM118.147 48.2341C118.913 34.3058 125.43 27.4729 139.146 26.0156C150.078 24.8536 161.373 25.089 172.299 26.4057C184.647 27.8923 191.437 35.6495 191.806 48.1439C192.394 68.1238 192.501 88.1505 191.805 108.122C191.271 123.44 181.538 130.836 163.302 131.5C158.24 131.684 153.167 131.629 148.1 131.536C144.49 131.469 142.847 133.047 142.482 136.65C141.236 148.968 144.341 152.494 156.778 152.497C159.114 152.498 161.45 152.492 163.787 152.486H163.787H163.787H163.787H163.79C169.054 152.471 174.318 152.457 179.581 152.528C186.929 152.627 189.808 155.806 189.857 163.56C189.906 171.507 187.234 174.74 179.913 174.849C168.807 175.018 157.693 175.024 146.586 174.878C126.387 174.614 117.801 166.27 117.391 146.053C117.08 130.719 117.723 100.031 117.92 100.031C117.92 94.8226 117.854 89.6105 117.789 84.3985L117.789 84.3968C117.637 72.3276 117.485 60.2586 118.147 48.2341ZM216.222 36.4097C216.224 36.7239 216.226 37.0346 216.226 37.3397C216.22 53.476 216.222 69.6131 216.223 85.7492C216.224 90.5814 216.224 95.4135 216.225 100.245C216.225 105.393 216.218 110.541 216.212 115.689L216.212 115.724C216.192 131.728 216.171 147.731 216.355 163.732C216.39 166.777 217.533 171.959 219.219 172.435C224.571 173.942 230.598 174.726 236.031 173.816C240.897 172.999 241.16 167.676 241.153 163.235C241.128 148.092 241.115 132.947 241.156 117.803C241.161 115.982 241.144 114.36 241.13 112.915V112.915C241.071 107.19 241.041 104.249 242.496 102.75C244.033 101.166 247.229 101.191 253.799 101.243C255.005 101.253 256.324 101.263 257.767 101.265C265.074 101.273 265.848 102.041 265.862 109.27C265.875 115.926 265.867 122.581 265.86 129.236C265.847 140.832 265.835 152.427 265.931 164.021C266 172.354 269.062 174.872 278.163 174.916C287.891 174.963 291.118 172.567 291.14 164.189C291.255 121.475 291.252 78.7614 291.141 36.0476C291.12 27.6309 287.856 25.1533 278.227 25.1908C269.144 25.2236 266.099 27.782 265.926 36.0874C265.825 40.951 265.847 45.8164 265.868 50.6818C265.885 54.5538 265.903 58.4259 265.858 62.297C265.83 64.7406 265.861 66.8277 265.888 68.6101C265.961 73.4331 266.001 76.0243 264.727 77.4065C263.249 79.0113 260.002 78.9864 252.984 78.9326H252.983C251.735 78.9231 250.367 78.9126 248.869 78.9102C242.251 78.8985 241.184 77.7352 241.161 70.9831C241.148 67.3497 241.167 63.7153 241.186 60.0811L241.186 60.0762V60.0759V60.0756C241.228 52.0594 241.27 44.0439 240.966 36.0406C240.848 32.9129 239.172 27.7258 237.204 27.1951C232.042 25.8035 226.126 25.4942 220.888 26.5743C216.163 27.5495 216.195 32.2888 216.222 36.4097ZM365.986 127.258L365.986 124.354C365.986 122.417 365.987 120.48 365.986 118.543C365.982 102.45 364.059 100.732 347.739 101.194C342.794 101.333 340.736 103.32 340.812 108.239C340.922 115.368 340.899 122.501 340.875 129.634V129.634C340.865 132.574 340.856 135.514 340.855 138.455C340.855 145.646 340.855 149.242 342.653 150.997C344.451 152.753 348.049 152.667 355.246 152.494C362.542 152.32 365.565 149.588 365.902 142.365C366.064 138.89 366.024 135.407 365.983 131.923C365.965 130.368 365.947 128.812 365.947 127.258H365.986ZM315.941 37.7703C315.941 37.4582 315.939 37.1401 315.937 36.8179C315.909 32.6938 315.876 27.9129 320.361 26.7905C325.528 25.4984 331.477 25.7397 336.683 26.9815C338.648 27.4512 340.535 32.554 340.657 35.6161C340.977 43.5894 340.935 51.5765 340.894 59.5645V59.5648C340.875 63.2304 340.856 66.8962 340.872 70.561C340.903 77.8367 342.002 78.7235 349.417 78.9695C351.024 79.0231 352.635 79.0626 354.247 79.1022L354.249 79.1022C360.414 79.2534 366.596 79.405 372.642 80.3494C382.358 81.8652 389.075 88.4159 389.527 97.9162C390.447 117.238 390.516 136.672 389.504 155.984C388.948 166.591 380.535 173.651 369.189 174.287C354.816 175.094 340.376 174.908 325.966 174.721L324.198 174.699C318.284 174.624 315.979 171.105 315.96 163.598C315.923 148.399 315.929 133.2 315.935 118C315.938 111.84 315.94 105.68 315.94 99.5198L315.939 87.2666C315.938 70.7681 315.937 54.27 315.941 37.7703ZM449.733 37.3353C453.753 44.003 457.218 44.6907 464.765 40.2252L479.811 34.8281C479.722 36.1638 479.76 40.9128 479.806 46.6876C479.86 53.4525 479.925 61.6251 479.811 67.3672C479.322 92.0681 479.167 116.777 479.012 141.484C478.972 147.84 478.932 154.195 478.887 160.55C478.798 173.092 481.424 175.487 494.102 174.9C501.009 174.58 503.886 171.734 504.133 164.759C504.225 162.15 504.206 159.537 504.188 156.924C504.18 155.846 504.172 154.768 504.172 153.691C504.172 143.271 504.173 132.851 504.174 122.43C504.176 85.8575 504.179 49.2847 504.161 12.7118C504.157 2.53914 500.083 -1.27972 490.011 0.459852C484.754 1.36771 479.45 3.21857 474.729 5.70199C468.789 8.82486 463.101 12.4277 457.416 16.0285C455.696 17.1174 453.977 18.206 452.252 19.2812C444.561 24.0735 444.062 27.9263 449.733 37.3353Z" fill="white"/>
</svg>
