<svg width="533" height="207" viewBox="0 0 533 207" fill="none" xmlns="http://www.w3.org/2000/svg">
<path fill-rule="evenodd" clip-rule="evenodd" d="M66.5582 89.6512C66.5582 84.3422 66.5565 79.0331 66.5549 73.7241C66.5505 59.1937 66.546 44.6631 66.5749 30.1318C66.5845 25.557 64.8541 23.117 59.8533 23.2702C59.6746 23.2757 59.4969 23.2808 59.3204 23.2858L59.3203 23.2858L59.3201 23.2858L59.3196 23.2858C55.1204 23.4048 51.5753 23.5052 51.1883 29.4282C50.3602 42.0888 49.1157 54.7243 47.8508 67.3527L47.6227 69.6301C44.9539 96.2732 42.285 122.916 39.2983 149.523C38.761 154.311 40.5297 155.709 44.6378 155.762C49.2162 155.819 53.797 155.799 58.3766 155.777C65.4716 155.741 66.5378 154.717 66.5558 147.385C66.593 131.64 66.5797 115.894 66.5665 100.149C66.5635 96.6498 66.5606 93.1505 66.5582 89.6512ZM92.1355 80.054C92.1364 85.8051 92.142 91.5562 92.1476 97.3072V97.3074V97.3075V97.3076C92.1637 113.978 92.1798 130.648 92.0829 147.317C92.0529 152.246 92.6261 155.599 98.814 156.255C100.912 156.478 104.109 160.441 104.224 162.818C104.801 174.876 104.895 186.99 104.394 199.052C104.154 204.823 100.261 206.931 93.1084 206.889C86.1343 206.849 82.7537 204.588 82.0513 198.674C81.5602 194.546 81.6234 190.338 81.6862 186.159C81.692 185.776 81.6977 185.394 81.7031 185.012C81.7629 180.815 79.9308 178.706 75.6911 178.708C66.9532 178.711 58.215 178.711 49.4765 178.711C42.6814 178.711 35.8861 178.711 29.0908 178.712C25.1706 178.714 23.22 180.763 23.1423 184.584C23.1078 186.285 23.113 187.987 23.1183 189.689C23.1266 192.355 23.1349 195.02 22.9903 197.676C22.6337 204.244 19.2675 206.888 11.707 206.888C4.28654 206.886 0.409373 204.107 0.246628 197.738C-0.0369795 186.634 -0.188955 175.498 0.43211 164.422C0.579299 161.789 3.47401 158.374 6.0205 156.995C12.0457 153.737 15.2575 149.265 15.8821 142.528C17.1001 129.395 18.3696 116.268 19.6391 103.141L19.6392 103.14L19.6395 103.138L19.6396 103.136C20.6413 92.778 21.643 82.4203 22.6193 72.0603C23.4267 63.4896 24.2053 54.9162 24.9839 46.3428C26.0885 34.179 27.1931 22.0152 28.38 9.85929C29.0861 2.63148 31.8611 0.178332 39.2421 0.106532C53.1807 -0.0298865 67.1242 -0.0418531 81.0628 0.108926C89.023 0.193888 92.0817 3.43563 92.1068 11.6016C92.1572 27.6204 92.1492 43.6392 92.1412 59.6576V59.6637V59.6639V59.664V59.6642C92.1378 66.4609 92.1344 73.2575 92.1355 80.054ZM170.908 81.4101H170.886C170.886 79.0849 170.899 76.7594 170.912 74.4338V74.4323C170.941 69.0399 170.97 63.6474 170.842 58.2584C170.697 52.116 167.749 49.232 161.685 48.8491C159.51 48.7115 157.313 48.7187 155.135 48.8336C148.928 49.1638 145.8 51.8192 145.704 57.9748C145.52 69.6993 145.547 81.4257 145.574 93.1521C145.583 97.2565 145.592 101.361 145.593 105.465C145.593 109.406 147.678 111.193 151.572 111.148C152.214 111.141 152.855 111.133 153.497 111.124L153.499 111.124L153.501 111.124L153.503 111.124C157.031 111.078 160.562 111.032 164.083 111.183C169.29 111.404 171.116 108.951 170.967 103.968C170.808 98.6974 170.843 93.4212 170.878 88.1451L170.878 88.1382C170.893 85.8954 170.908 83.6525 170.908 81.4101ZM120.325 86.216L120.325 86.2143C120.17 73.8851 120.015 61.5561 120.691 49.2727C121.474 35.0445 128.131 28.0644 142.143 26.5757C153.31 25.3887 164.848 25.6292 176.009 26.9742C188.623 28.494 195.56 36.4182 195.937 49.1806C196.538 69.5908 196.647 90.0488 195.936 110.452C195.39 126.099 185.447 133.654 166.819 134.332C161.648 134.52 156.465 134.465 151.29 134.369C147.602 134.3 145.923 135.912 145.551 139.593C144.278 152.177 147.45 155.778 160.155 155.782C162.505 155.783 164.856 155.777 167.206 155.77H167.207H167.207H167.207C172.621 155.755 178.036 155.74 183.449 155.813C190.954 155.914 193.896 159.162 193.946 167.082C193.996 175.201 191.267 178.503 183.788 178.616C172.442 178.788 161.089 178.794 149.743 178.646C129.109 178.375 120.338 169.85 119.92 149.198C119.601 133.534 120.258 102.185 120.459 102.185C120.459 96.8646 120.392 91.5403 120.325 86.216ZM220.88 87.6199C220.881 92.5484 220.881 97.4769 220.881 102.405C220.882 107.675 220.875 112.944 220.868 118.214V118.214V118.215V118.218C220.848 134.566 220.827 150.914 221.014 167.259C221.05 170.368 222.218 175.664 223.94 176.148C229.407 177.689 235.564 178.489 241.114 177.559C246.085 176.725 246.353 171.289 246.346 166.751C246.321 151.282 246.308 135.811 246.35 120.341C246.355 118.481 246.338 116.824 246.323 115.348V115.348C246.263 109.499 246.232 106.494 247.719 104.963C249.289 103.345 252.553 103.37 259.265 103.423C260.497 103.433 261.844 103.444 263.318 103.445C270.783 103.454 271.573 104.24 271.587 111.623C271.601 118.421 271.593 125.219 271.586 132.017C271.573 143.863 271.56 155.709 271.658 167.554C271.728 176.067 274.857 178.64 284.153 178.684C294.092 178.731 297.387 176.283 297.41 167.726C297.527 124.092 297.525 80.4575 297.411 36.8238C297.39 28.2258 294.056 25.6949 284.219 25.7332C274.94 25.7679 271.83 28.3802 271.653 36.8645C271.55 41.8334 271.572 46.8035 271.594 51.7737C271.612 55.7291 271.629 59.6846 271.584 63.6397C271.555 66.1359 271.587 68.268 271.615 70.0887C271.689 75.0156 271.729 77.6625 270.429 79.0744C268.919 80.7137 265.601 80.688 258.432 80.6326C257.157 80.6228 255.759 80.612 254.229 80.6095C247.469 80.5987 246.378 79.4104 246.355 72.5117C246.341 68.7983 246.361 65.0839 246.38 61.3697V61.3694V61.3691C246.423 53.1803 246.466 44.9922 246.156 36.8166C246.035 33.6215 244.323 28.3239 242.312 27.7807C237.04 26.359 230.995 26.0443 225.645 27.1476C220.819 28.1439 220.851 32.9841 220.878 37.1936C220.88 37.5146 220.883 37.832 220.882 38.1437C220.877 54.6354 220.879 71.1278 220.88 87.6199ZM510.086 67.7849L510.086 67.7852C510.332 68.0878 510.495 68.2886 510.687 68.3223C525.773 70.9227 531.895 80.4301 532.122 98.6229C532.327 115.09 532.23 131.56 532.114 148.028C532.09 151.576 531.71 155.18 530.989 158.654C528.525 170.537 521.514 177.286 509.345 178.129C499.048 178.842 488.622 178.862 478.324 178.151C465.23 177.248 456.914 169.015 456.07 155.953C455.454 146.441 455.563 136.879 455.671 127.324V127.32C455.7 124.767 455.729 122.215 455.745 119.664C455.776 114.444 458.98 111.787 464.008 111.25C465.398 111.101 466.81 111.125 468.218 111.15C468.606 111.156 468.993 111.163 469.379 111.166C477.965 111.242 480.946 114.09 481.037 122.505C481.075 126.056 481.064 129.607 481.053 133.159C481.04 137.147 481.027 141.135 481.085 145.123C481.2 153.201 484.438 155.803 494.009 155.781C503.044 155.762 506.242 153.116 506.297 145.148C506.4 130.663 506.384 116.179 506.306 101.695C506.265 93.9559 503.387 91.0935 495.518 90.5347C481.081 89.5103 477.673 84.7045 482.784 70.6067C486.106 61.4446 489.921 52.4593 493.736 43.4745C495.348 39.6776 496.96 35.8808 498.535 32.0708C501.612 24.6216 500.873 23.413 492.757 23.3472C482.8 23.2658 472.84 23.2167 462.885 23.3567C457.597 23.4321 455.423 21.3296 455.524 15.8956C455.56 14.0096 455.564 12.3469 455.568 10.8812C455.582 5.67878 455.589 2.95833 456.952 1.54294C458.445 -0.00845987 461.568 0.00808297 468.112 0.0427583C469.054 0.0477517 470.068 0.0531211 471.158 0.0542384C477.874 0.0609651 484.591 0.0574671 491.308 0.0539691C501.319 0.0487551 511.331 0.043541 521.343 0.0721883C531.978 0.103301 534.541 3.95773 530.588 13.8577C527.486 21.6308 524.373 29.4002 521.261 37.1697L521.237 37.2292C518.017 45.2677 514.797 53.3064 511.588 61.3494C511.043 62.7166 510.571 64.1121 510.123 65.4377L510.123 65.4382C509.924 66.0256 509.73 66.5993 509.537 67.1508C509.765 67.389 509.94 67.605 510.086 67.7849ZM373.868 130H373.828C373.828 131.587 373.847 133.175 373.865 134.764C373.907 138.323 373.948 141.881 373.782 145.432C373.438 152.81 370.35 155.6 362.897 155.778C355.545 155.955 351.87 156.043 350.032 154.249C348.196 152.456 348.196 148.782 348.196 141.436C348.196 138.433 348.206 135.429 348.216 132.425C348.24 125.139 348.264 117.853 348.152 110.57C348.074 105.546 350.176 103.515 355.228 103.373C371.899 102.902 373.864 104.657 373.868 121.095C373.869 123.074 373.868 125.053 373.868 127.032C373.868 128.021 373.868 129.011 373.868 130ZM322.743 89.2087C322.744 93.3601 322.744 97.5115 322.744 101.663C322.745 107.957 322.742 114.251 322.739 120.545C322.733 136.07 322.726 151.596 322.765 167.121C322.784 174.789 325.139 178.385 331.18 178.462C331.781 178.47 332.383 178.477 332.984 178.485C347.705 178.676 362.457 178.866 377.14 178.041C388.73 177.392 397.325 170.179 397.892 159.344C398.926 139.615 398.855 119.764 397.916 100.026C397.454 90.3199 390.592 83.6293 380.667 82.0797C374.487 81.1143 368.167 80.9599 361.864 80.8059C360.222 80.7657 358.58 80.7256 356.942 80.6712C349.368 80.4187 348.245 79.5128 348.213 72.0804C348.197 68.3369 348.216 64.5924 348.235 60.848C348.278 52.6877 348.32 44.5283 347.994 36.3829C347.869 33.2549 345.941 28.0434 343.934 27.5636C338.616 26.2939 332.539 26.0486 327.26 27.3673C322.679 28.5139 322.712 33.3988 322.741 37.611C322.743 37.94 322.746 38.2649 322.746 38.5836C322.741 55.4596 322.742 72.334 322.743 89.2087Z" fill="white"/>
</svg>
